LondrinaShadow-Regular.ufo
<glyph name="exclam" format="1">
  <advance width="217"/>
  <unicode hex="0021"/>
  <outline>
    <contour>
      <point x="146" y="-28" type="line" name="hr01"/>
      <point x="166" y="-28" type="line" smooth="yes"/>
      <point x="173" y="-28"/>
      <point x="178" y="-29"/>
      <point x="186" y="-29" type="curve" name="hr02" smooth="yes"/>
      <point x="203" y="-29" type="line"/>
      <point x="203" y="18"/>
      <point x="206" y="71"/>
      <point x="206" y="111" type="curve"/>
      <point x="185" y="111" type="line"/>
      <point x="185" y="119"/>
      <point x="186" y="126"/>
      <point x="186" y="131" type="curve"/>
      <point x="155" y="131"/>
      <point x="124" y="135"/>
      <point x="95" y="135" type="curve" name="hr03" smooth="yes"/>
      <point x="80" y="135"/>
      <point x="64" y="134"/>
      <point x="44" y="125" type="curve"/>
      <point x="44" y="90"/>
      <point x="38" y="50"/>
      <point x="38" y="22" type="curve" smooth="yes"/>
      <point x="38" y="3"/>
      <point x="40" y="-9"/>
      <point x="51" y="-9" type="curve" smooth="yes"/>
      <point x="58" y="-9" type="line"/>
      <point x="59" y="-22"/>
      <point x="64" y="-29"/>
      <point x="71" y="-29" type="curve" name="hr04" smooth="yes"/>
    </contour>
    <contour>
      <point x="39" y="712" type="line" name="hr05"/>
      <point x="35" y="648"/>
      <point x="33" y="578"/>
      <point x="33" y="515" type="curve" smooth="yes"/>
      <point x="33" y="419"/>
      <point x="35" y="326"/>
      <point x="35" y="230" type="curve" smooth="yes"/>
      <point x="35" y="160" type="line"/>
      <point x="55" y="160" type="line"/>
      <point x="55" y="140" type="line"/>
      <point x="108" y="140"/>
      <point x="146" y="139"/>
      <point x="206" y="146" type="curve"/>
      <point x="202" y="223"/>
      <point x="200" y="313"/>
      <point x="200" y="393" type="curve" smooth="yes"/>
      <point x="200" y="494"/>
      <point x="204" y="595"/>
      <point x="204" y="692" type="curve"/>
      <point x="197" y="695"/>
      <point x="190" y="696"/>
      <point x="183" y="697" type="curve"/>
      <point x="183" y="702"/>
      <point x="184" y="708"/>
      <point x="184" y="712" type="curve"/>
      <point x="165" y="719"/>
      <point x="148" y="719"/>
      <point x="131" y="719" type="curve" smooth="yes"/>
      <point x="102" y="719"/>
      <point x="74" y="715"/>
      <point x="50" y="712" type="curve"/>
    </contour>
    <contour>
      <point x="51" y="702" type="line" smooth="yes"/>
      <point x="74" y="705"/>
      <point x="104" y="709"/>
      <point x="133" y="709" type="curve" smooth="yes"/>
      <point x="148" y="709"/>
      <point x="161" y="708"/>
      <point x="174" y="704" type="curve"/>
      <point x="171" y="608"/>
      <point x="170" y="506"/>
      <point x="170" y="405" type="curve" smooth="yes"/>
      <point x="170" y="326"/>
      <point x="171" y="251"/>
      <point x="175" y="175" type="curve"/>
      <point x="140" y="171"/>
      <point x="85" y="171"/>
      <point x="46" y="170" type="curve"/>
      <point x="45" y="170" type="line"/>
      <point x="45" y="238" type="line" smooth="yes"/>
      <point x="45" y="330"/>
      <point x="43" y="421"/>
      <point x="43" y="513" type="curve" smooth="yes"/>
      <point x="43" y="576"/>
      <point x="44" y="638"/>
      <point x="48" y="702" type="curve"/>
    </contour>
    <contour>
      <point x="51" y="1" type="line" smooth="yes"/>
      <point x="49" y="1"/>
      <point x="48" y="6"/>
      <point x="48" y="16" type="curve" smooth="yes"/>
      <point x="48" y="41"/>
      <point x="54" y="91"/>
      <point x="54" y="118" type="curve"/>
      <point x="54" y="119" type="line"/>
      <point x="66" y="124"/>
      <point x="80" y="125"/>
      <point x="96" y="125" type="curve" smooth="yes"/>
      <point x="123" y="125"/>
      <point x="151" y="121"/>
      <point x="176" y="121" type="curve"/>
      <point x="175" y="84"/>
      <point x="173" y="40"/>
      <point x="173" y="1" type="curve"/>
      <point x="166" y="1" type="line" smooth="yes"/>
      <point x="150" y="1"/>
      <point x="143" y="2"/>
      <point x="128" y="2" type="curve" smooth="yes"/>
      <point x="126" y="2" type="line"/>
    </contour>
  </outline>
</glyph>
<glyph name="quotedbl" format="1">
  <advance width="378"/>
  <unicode hex="0022"/>
  <outline>
    <contour>
      <point x="29" y="714" type="line" name="hr01"/>
      <point x="27" y="664"/>
      <point x="26" y="622"/>
      <point x="26" y="588" type="curve" smooth="yes"/>
      <point x="26" y="551" type="line" smooth="yes"/>
      <point x="26" y="526"/>
      <point x="27" y="490"/>
      <point x="27" y="451" type="curve"/>
      <point x="34" y="450"/>
      <point x="40" y="449"/>
      <point x="47" y="449" type="curve"/>
      <point x="47" y="431" type="line"/>
      <point x="58" y="428"/>
      <point x="72" y="429"/>
      <point x="87" y="429" type="curve" smooth="yes"/>
      <point x="103" y="429"/>
      <point x="119" y="430"/>
      <point x="132" y="430" type="curve" smooth="yes"/>
      <point x="180" y="430" type="line"/>
      <point x="180" y="457"/>
      <point x="178" y="641"/>
      <point x="178" y="689" type="curve"/>
      <point x="175" y="694"/>
      <point x="169" y="697"/>
      <point x="158" y="698" type="curve"/>
      <point x="158" y="709" type="line"/>
      <point x="153" y="717"/>
      <point x="136" y="720"/>
      <point x="116" y="720" type="curve" smooth="yes"/>
      <point x="97" y="720"/>
      <point x="74" y="719"/>
      <point x="58" y="716" type="curve"/>
      <point x="40" y="714" type="line"/>
    </contour>
    <contour>
      <point x="222" y="714" type="line" name="hr02"/>
      <point x="220" y="664"/>
      <point x="219" y="622"/>
      <point x="219" y="588" type="curve" smooth="yes"/>
      <point x="219" y="551" type="line" smooth="yes"/>
      <point x="219" y="526"/>
      <point x="220" y="490"/>
      <point x="220" y="451" type="curve"/>
      <point x="227" y="450"/>
      <point x="233" y="449"/>
      <point x="240" y="449" type="curve"/>
      <point x="240" y="431" type="line"/>
      <point x="251" y="428"/>
      <point x="265" y="429"/>
      <point x="280" y="429" type="curve" smooth="yes"/>
      <point x="296" y="429"/>
      <point x="312" y="430"/>
      <point x="325" y="430" type="curve" smooth="yes"/>
      <point x="373" y="430" type="line"/>
      <point x="373" y="457"/>
      <point x="371" y="641"/>
      <point x="371" y="689" type="curve"/>
      <point x="368" y="694"/>
      <point x="362" y="697"/>
      <point x="351" y="698" type="curve"/>
      <point x="351" y="709" type="line"/>
      <point x="346" y="717"/>
      <point x="329" y="720"/>
      <point x="309" y="720" type="curve" smooth="yes"/>
      <point x="290" y="720"/>
      <point x="267" y="719"/>
      <point x="251" y="716" type="curve"/>
      <point x="233" y="714" type="line"/>
    </contour>
    <contour>
      <point x="233" y="704" type="line"/>
      <point x="241" y="704"/>
      <point x="287" y="711"/>
      <point x="317" y="711" type="curve" smooth="yes"/>
      <point x="331" y="711"/>
      <point x="339" y="709"/>
      <point x="341" y="706" type="curve"/>
      <point x="341" y="674"/>
      <point x="343" y="561"/>
      <point x="343" y="500" type="curve" smooth="yes" name="hr03"/>
      <point x="343" y="460" type="line"/>
      <point x="329" y="460" type="line" smooth="yes"/>
      <point x="312" y="460"/>
      <point x="284" y="459"/>
      <point x="259" y="459" type="curve" smooth="yes"/>
      <point x="230" y="460" type="line"/>
      <point x="230" y="527"/>
      <point x="229" y="564"/>
      <point x="229" y="601" type="curve" smooth="yes"/>
      <point x="229" y="632"/>
      <point x="229" y="659"/>
      <point x="232" y="702" type="curve" smooth="yes"/>
      <point x="232" y="704" type="line"/>
    </contour>
    <contour>
      <point x="40" y="704" type="line"/>
      <point x="48" y="704"/>
      <point x="94" y="711"/>
      <point x="124" y="711" type="curve" smooth="yes"/>
      <point x="138" y="711"/>
      <point x="146" y="709"/>
      <point x="148" y="706" type="curve"/>
      <point x="148" y="674"/>
      <point x="150" y="561"/>
      <point x="150" y="500" type="curve" smooth="yes"/>
      <point x="150" y="460" type="line"/>
      <point x="136" y="460" type="line" smooth="yes"/>
      <point x="119" y="460"/>
      <point x="91" y="459"/>
      <point x="66" y="459" type="curve" smooth="yes"/>
      <point x="37" y="460" type="line"/>
      <point x="37" y="527"/>
      <point x="36" y="564"/>
      <point x="36" y="601" type="curve" smooth="yes"/>
      <point x="36" y="632"/>
      <point x="36" y="659"/>
      <point x="39" y="702" type="curve" smooth="yes"/>
      <point x="39" y="704" type="line"/>
    </contour>
  </outline>
</glyph>
<glyph name="numbersign" format="1">
  <advance width="669"/>
  <unicode hex="0023"/>
  <outline>
    <contour>
      <point x="669" y="459" type="line" name="hr01"/>
      <point x="669" y="472" type="line"/>
      <point x="649" y="472" type="line"/>
      <point x="649" y="492" type="line"/>
      <point x="615" y="492" type="line"/>
      <point x="639" y="568"/>
      <point x="647" y="590"/>
      <point x="647" y="610" type="curve" smooth="yes"/>
      <point x="647" y="629"/>
      <point x="638" y="626"/>
      <point x="627" y="626" type="curve"/>
      <point x="627" y="654"/>
      <point x="597" y="647"/>
      <point x="580" y="647" type="curve" smooth="yes"/>
      <point x="565" y="647"/>
      <point x="553" y="646"/>
      <point x="538" y="646" type="curve" smooth="yes"/>
      <point x="526" y="646"/>
      <point x="513" y="647"/>
      <point x="497" y="651" type="curve"/>
      <point x="474" y="571"/>
      <point x="458" y="516"/>
      <point x="447" y="496" type="curve"/>
      <point x="425" y="496" type="line"/>
      <point x="387" y="496" type="line"/>
      <point x="373" y="496" type="line"/>
      <point x="400" y="581"/>
      <point x="407" y="599"/>
      <point x="407" y="623" type="curve"/>
      <point x="400" y="623"/>
      <point x="392" y="624"/>
      <point x="385" y="624" type="curve"/>
      <point x="386" y="631"/>
      <point x="387" y="636"/>
      <point x="387" y="643" type="curve" name="hr02"/>
      <point x="300" y="646"/>
      <point x="267" y="647"/>
      <point x="250" y="650" type="curve"/>
      <point x="242" y="609"/>
      <point x="210" y="494"/>
      <point x="199" y="494" type="curve" smooth="yes"/>
      <point x="196" y="494"/>
      <point x="194" y="495"/>
      <point x="189" y="495" type="curve" smooth="yes"/>
      <point x="179" y="495" type="line" smooth="yes"/>
      <point x="159" y="494"/>
      <point x="141" y="494"/>
      <point x="126" y="494" type="curve" smooth="yes"/>
      <point x="54" y="494"/>
      <point x="32" y="500"/>
      <point x="27" y="503" type="curve"/>
      <point x="28" y="372" type="line"/>
      <point x="48" y="372" type="line"/>
      <point x="48" y="352" type="line"/>
      <point x="116" y="352"/>
      <point x="139" y="353"/>
      <point x="155" y="353" type="curve"/>
      <point x="135" y="297"/>
      <point x="132" y="275"/>
      <point x="129" y="267" type="curve"/>
      <point x="112" y="266"/>
      <point x="102" y="266"/>
      <point x="90" y="266" type="curve" smooth="yes"/>
      <point x="42" y="266"/>
      <point x="22" y="279"/>
      <point x="15" y="286" type="curve"/>
      <point x="15" y="235"/>
      <point x="14" y="201"/>
      <point x="19" y="144" type="curve"/>
      <point x="26" y="143"/>
      <point x="32" y="143"/>
      <point x="37" y="143" type="curve"/>
      <point x="41" y="120"/>
      <point x="43" y="122"/>
      <point x="59" y="122" type="curve" smooth="yes"/>
      <point x="64" y="122"/>
      <point x="68" y="122"/>
      <point x="71" y="123" type="curve"/>
      <point x="55" y="82"/>
      <point x="39" y="40"/>
      <point x="30" y="-11" type="curve"/>
      <point x="37" y="-10"/>
      <point x="45" y="-10"/>
      <point x="54" y="-10" type="curve"/>
      <point x="51" y="-17"/>
      <point x="51" y="-24"/>
      <point x="50" y="-31" type="curve"/>
      <point x="74" y="-30"/>
      <point x="106" y="-28"/>
      <point x="122" y="-28" type="curve" name="hr03" smooth="yes"/>
      <point x="146" y="-28"/>
      <point x="161" y="-29"/>
      <point x="169" y="-30" type="curve" name="hr04"/>
      <point x="193" y="-30"/>
      <point x="199" y="3"/>
      <point x="202" y="14" type="curve"/>
      <point x="201" y="13" type="line" smooth="yes"/>
      <point x="228" y="88"/>
      <point x="225" y="69"/>
      <point x="246" y="127" type="curve"/>
      <point x="277" y="128"/>
      <point x="293" y="128"/>
      <point x="310" y="128" type="curve" smooth="yes"/>
      <point x="316" y="128" type="line"/>
      <point x="301" y="79"/>
      <point x="285" y="44"/>
      <point x="272" y="-9" type="curve"/>
      <point x="279" y="-9"/>
      <point x="288" y="-9"/>
      <point x="296" y="-10" type="curve" name="hr05"/>
      <point x="295" y="-17"/>
      <point x="293" y="-22"/>
      <point x="292" y="-29" type="curve"/>
      <point x="319" y="-30"/>
      <point x="354" y="-31"/>
      <point x="371" y="-31" type="curve" smooth="yes"/>
      <point x="396" y="-31"/>
      <point x="411" y="-30"/>
      <point x="418" y="-29" type="curve"/>
      <point x="427" y="-29" type="line"/>
      <point x="454" y="20"/>
      <point x="479" y="103"/>
      <point x="487" y="124" type="curve"/>
      <point x="610" y="127"/>
      <point x="610" y="121"/>
      <point x="666" y="129" type="curve"/>
      <point x="661" y="196"/>
      <point x="668" y="211"/>
      <point x="655" y="243" type="curve"/>
      <point x="638" y="243"/>
      <point x="642" y="247"/>
      <point x="635" y="263" type="curve"/>
      <point x="596" y="266"/>
      <point x="562" y="266"/>
      <point x="538" y="267" type="curve"/>
      <point x="548" y="297" type="line" smooth="yes"/>
      <point x="555" y="316"/>
      <point x="559" y="333"/>
      <point x="566" y="353" type="curve"/>
      <point x="677" y="356" type="line"/>
    </contour>
    <contour>
      <point x="646" y="386" type="line"/>
      <point x="540" y="383" type="line"/>
      <point x="525" y="340"/>
      <point x="513" y="300"/>
      <point x="498" y="257" type="curve"/>
      <point x="513" y="256"/>
      <point x="560" y="258"/>
      <point x="628" y="253" type="curve"/>
      <point x="636" y="232"/>
      <point x="630" y="220"/>
      <point x="635" y="160" type="curve" smooth="yes"/>
      <point x="635" y="158" type="line"/>
      <point x="614" y="155"/>
      <point x="597" y="155"/>
      <point x="573" y="155" type="curve" smooth="yes"/>
      <point x="529" y="155" type="line" smooth="yes"/>
      <point x="512" y="155"/>
      <point x="491" y="155"/>
      <point x="464" y="154" type="curve" smooth="yes"/>
      <point x="461" y="154" type="line"/>
      <point x="455" y="146"/>
      <point x="428" y="49"/>
      <point x="402" y="2" type="curve"/>
      <point x="399" y="1" type="line" smooth="yes"/>
      <point x="396" y="1"/>
      <point x="383" y="0"/>
      <point x="350" y="0" type="curve" name="hr06" smooth="yes"/>
      <point x="333" y="0"/>
      <point x="312" y="0"/>
      <point x="285" y="1" type="curve"/>
      <point x="300" y="61"/>
      <point x="323" y="108"/>
      <point x="336" y="157" type="curve"/>
      <point x="329" y="157" type="line"/>
      <point x="327" y="158"/>
      <point x="321" y="158"/>
      <point x="311" y="158" type="curve" smooth="yes"/>
      <point x="275" y="158" type="line" smooth="yes"/>
      <point x="260" y="158"/>
      <point x="242" y="158"/>
      <point x="219" y="157" type="curve"/>
      <point x="198" y="95"/>
      <point x="204" y="120"/>
      <point x="172" y="37" type="curve" smooth="yes"/>
      <point x="169" y="28"/>
      <point x="165" y="0"/>
      <point x="150" y="0" type="curve" smooth="yes"/>
      <point x="142" y="0"/>
      <point x="126" y="1"/>
      <point x="102" y="1" type="curve" smooth="yes"/>
      <point x="86" y="1"/>
      <point x="66" y="1"/>
      <point x="43" y="0" type="curve"/>
      <point x="54" y="56"/>
      <point x="75" y="104"/>
      <point x="94" y="155" type="curve"/>
      <point x="74" y="155"/>
      <point x="54" y="153"/>
      <point x="37" y="153" type="curve" smooth="yes"/>
      <point x="28" y="153" type="line"/>
      <point x="25" y="188"/>
      <point x="26" y="226"/>
      <point x="25" y="262" type="curve"/>
      <point x="26" y="259"/>
      <point x="39" y="256"/>
      <point x="90" y="256" type="curve" smooth="yes"/>
      <point x="102" y="256"/>
      <point x="135" y="251"/>
      <point x="140" y="267" type="curve" smooth="yes"/>
      <point x="146" y="288" type="line" smooth="yes"/>
      <point x="151" y="307"/>
      <point x="160" y="336"/>
      <point x="176" y="383" type="curve"/>
      <point x="156" y="383" type="line" smooth="yes"/>
      <point x="139" y="383"/>
      <point x="103" y="382"/>
      <point x="38" y="382" type="curve"/>
      <point x="36" y="490" type="line"/>
      <point x="39" y="489" type="line" smooth="yes"/>
      <point x="46" y="486"/>
      <point x="65" y="484"/>
      <point x="128" y="484" type="curve" smooth="yes"/>
      <point x="143" y="484"/>
      <point x="159" y="484"/>
      <point x="179" y="485" type="curve" smooth="yes"/>
      <point x="186" y="485"/>
      <point x="193" y="484"/>
      <point x="200" y="484" type="curve" smooth="yes"/>
      <point x="204" y="484"/>
      <point x="207" y="485"/>
      <point x="210" y="485" type="curve"/>
      <point x="211" y="487" type="line" smooth="yes"/>
      <point x="219" y="503"/>
      <point x="250" y="601"/>
      <point x="258" y="637" type="curve"/>
      <point x="258" y="638" type="line"/>
      <point x="265" y="636"/>
      <point x="290" y="636"/>
      <point x="377" y="633" type="curve"/>
      <point x="377" y="628"/>
      <point x="368" y="602"/>
      <point x="333" y="486" type="curve"/>
      <point x="356" y="486" type="line"/>
      <point x="423" y="486" type="line"/>
      <point x="452" y="486" type="line"/>
      <point x="463" y="503"/>
      <point x="481" y="559"/>
      <point x="502" y="639" type="curve"/>
      <point x="504" y="639" type="line" smooth="yes"/>
      <point x="515" y="637"/>
      <point x="525" y="636"/>
      <point x="536" y="636" type="curve" smooth="yes"/>
      <point x="552" y="636"/>
      <point x="568" y="638"/>
      <point x="584" y="638" type="curve" smooth="yes"/>
      <point x="595" y="638"/>
      <point x="617" y="640"/>
      <point x="617" y="629" type="curve" smooth="yes"/>
      <point x="617" y="615"/>
      <point x="608" y="595"/>
      <point x="576" y="483" type="curve"/>
      <point x="597" y="483"/>
      <point x="618" y="482"/>
      <point x="639" y="482" type="curve"/>
      <point x="639" y="478" type="line"/>
    </contour>
    <contour>
      <point x="379" y="258" type="line"/>
      <point x="380" y="261" type="line" smooth="yes"/>
      <point x="389" y="302"/>
      <point x="408" y="339"/>
      <point x="420" y="383" type="curve"/>
      <point x="418" y="384" type="line"/>
      <point x="375" y="385"/>
      <point x="338" y="386"/>
      <point x="299" y="386" type="curve"/>
      <point x="297" y="385" type="line"/>
      <point x="282" y="342"/>
      <point x="269" y="300"/>
      <point x="254" y="257" type="curve"/>
    </contour>
    <contour>
      <point x="392" y="329" type="curve" smooth="yes"/>
      <point x="384" y="306"/>
      <point x="375" y="284"/>
      <point x="371" y="268" type="curve"/>
      <point x="295" y="267" type="line"/>
      <point x="302" y="291"/>
      <point x="312" y="324"/>
      <point x="323" y="355" type="curve"/>
      <point x="350" y="355" type="line"/>
      <point x="402" y="355" type="line"/>
      <point x="399" y="344"/>
      <point x="395" y="337"/>
    </contour>
  </outline>
</glyph>
<glyph name="dollar" format="1">
  <advance width="445"/>
  <unicode hex="0024"/>
  <outline>
    <contour>
      <point x="346" y="333" type="curve" name="hr01" smooth="yes"/>
      <point x="308" y="360"/>
      <point x="217" y="405"/>
      <point x="217" y="456" type="curve" smooth="yes"/>
      <point x="217" y="475"/>
      <point x="237" y="491"/>
      <point x="254" y="491" type="curve" smooth="yes"/>
      <point x="257" y="491" type="line"/>
      <point x="257" y="471"/>
      <point x="261" y="445"/>
      <point x="284" y="436" type="curve"/>
      <point x="291" y="421"/>
      <point x="305" y="410"/>
      <point x="340" y="410" type="curve" smooth="yes"/>
      <point x="363" y="410"/>
      <point x="376" y="412"/>
      <point x="396" y="412" type="curve" smooth="yes"/>
      <point x="412" y="412" type="line" smooth="yes"/>
      <point x="439" y="412"/>
      <point x="456" y="420"/>
      <point x="456" y="448" type="curve" smooth="yes"/>
      <point x="456" y="454" type="line" smooth="yes"/>
      <point x="456" y="489"/>
      <point x="456" y="514"/>
      <point x="441" y="545" type="curve" smooth="yes"/>
      <point x="425" y="580"/>
      <point x="376" y="635"/>
      <point x="326" y="651" type="curve" name="hr02"/>
      <point x="326" y="722" type="line"/>
      <point x="325" y="722"/>
      <point x="317" y="723"/>
      <point x="306" y="723" type="curve"/>
      <point x="306" y="746" type="line"/>
      <point x="295" y="755"/>
      <point x="274" y="763"/>
      <point x="223" y="763" type="curve" smooth="yes"/>
      <point x="199" y="763" type="line" smooth="yes"/>
      <point x="172" y="763"/>
      <point x="142" y="765"/>
      <point x="142" y="737" type="curve" smooth="yes"/>
      <point x="142" y="730"/>
      <point x="147" y="667"/>
      <point x="147" y="663" type="curve" smooth="yes"/>
      <point x="147" y="658" type="line"/>
      <point x="75" y="637"/>
      <point x="18" y="579"/>
      <point x="18" y="507" type="curve" name="hr03" smooth="yes"/>
      <point x="18" y="456"/>
      <point x="42" y="405"/>
      <point x="75" y="366" type="curve" smooth="yes"/>
      <point x="118" y="315"/>
      <point x="253" y="242"/>
      <point x="253" y="167" type="curve" smooth="yes"/>
      <point x="253" y="152"/>
      <point x="233" y="141"/>
      <point x="217" y="141" type="curve" name="hr04" smooth="yes"/>
      <point x="200" y="141"/>
      <point x="204" y="155"/>
      <point x="204" y="170" type="curve" name="hr05" smooth="yes"/>
      <point x="204" y="186" type="line" smooth="yes"/>
      <point x="204" y="210"/>
      <point x="196" y="220"/>
      <point x="181" y="225" type="curve"/>
      <point x="174" y="248"/>
      <point x="150" y="248"/>
      <point x="126" y="248" type="curve" smooth="yes"/>
      <point x="107" y="248"/>
      <point x="91" y="252"/>
      <point x="66" y="252" type="curve" smooth="yes"/>
      <point x="10" y="252"/>
      <point x="10" y="239"/>
      <point x="10" y="191" type="curve" smooth="yes"/>
      <point x="10" y="120"/>
      <point x="15" y="69"/>
      <point x="60" y="33" type="curve"/>
      <point x="77" y="10"/>
      <point x="103" y="-6"/>
      <point x="143" y="-19" type="curve"/>
      <point x="144" y="-19" type="line"/>
      <point x="147" y="-26"/>
      <point x="146" y="-30"/>
      <point x="146" y="-37" type="curve" smooth="yes"/>
      <point x="146" y="-46"/>
      <point x="145" y="-55"/>
      <point x="145" y="-63" type="curve" smooth="yes"/>
      <point x="145" y="-82"/>
      <point x="149" y="-97"/>
      <point x="168" y="-104" type="curve"/>
      <point x="173" y="-117"/>
      <point x="184" y="-127"/>
      <point x="211" y="-127" type="curve" smooth="yes"/>
      <point x="239" y="-127" type="line" smooth="yes"/>
      <point x="247" y="-127"/>
      <point x="254" y="-126"/>
      <point x="261" y="-126" type="curve" name="hr06" smooth="yes"/>
      <point x="281" y="-126" type="line" smooth="yes"/>
      <point x="316" y="-126"/>
      <point x="329" y="-112"/>
      <point x="329" y="-89" type="curve" smooth="yes"/>
      <point x="329" y="-50" type="line" smooth="yes"/>
      <point x="329" y="-37"/>
      <point x="330" y="-28"/>
      <point x="330" y="-21" type="curve"/>
      <point x="414" y="19"/>
      <point x="452" y="80"/>
      <point x="452" y="140" type="curve" smooth="yes"/>
      <point x="452" y="211"/>
      <point x="410" y="286"/>
    </contour>
    <contour>
      <point x="340" y="325" type="curve" smooth="yes"/>
      <point x="391" y="287"/>
      <point x="422" y="216"/>
      <point x="422" y="160" type="curve" smooth="yes"/>
      <point x="422" y="117"/>
      <point x="406" y="79"/>
      <point x="363" y="44" type="curve"/>
      <point x="356" y="37"/>
      <point x="305" y="6"/>
      <point x="300" y="6" type="curve"/>
      <point x="300" y="2"/>
      <point x="299" y="-14"/>
      <point x="299" y="-29" type="curve" smooth="yes"/>
      <point x="299" y="-69" type="line" smooth="yes"/>
      <point x="299" y="-96"/>
      <point x="278" y="-97"/>
      <point x="219" y="-97" type="curve" name="hr07" smooth="yes"/>
      <point x="191" y="-97" type="line" smooth="yes"/>
      <point x="160" y="-97"/>
      <point x="156" y="-82"/>
      <point x="156" y="-63" type="curve" smooth="yes"/>
      <point x="156" y="-54"/>
      <point x="157" y="-44"/>
      <point x="157" y="-35" type="curve" smooth="yes"/>
      <point x="157" y="-15"/>
      <point x="153" y="2"/>
      <point x="126" y="11" type="curve" smooth="yes"/>
      <point x="29" y="43"/>
      <point x="20" y="102"/>
      <point x="20" y="191" type="curve" smooth="yes"/>
      <point x="20" y="231"/>
      <point x="20" y="242"/>
      <point x="66" y="242" type="curve" smooth="yes"/>
      <point x="81" y="242"/>
      <point x="93" y="240"/>
      <point x="105" y="239" type="curve" smooth="yes"/>
      <point x="137" y="236"/>
      <point x="174" y="247"/>
      <point x="174" y="206" type="curve" smooth="yes"/>
      <point x="174" y="182"/>
      <point x="166" y="131"/>
      <point x="217" y="131" type="curve" name="hr08" smooth="yes"/>
      <point x="238" y="131"/>
      <point x="263" y="146"/>
      <point x="263" y="167" type="curve" name="hr09" smooth="yes"/>
      <point x="263" y="252"/>
      <point x="140" y="309"/>
      <point x="82" y="373" type="curve" smooth="yes"/>
      <point x="51" y="408"/>
      <point x="28" y="459"/>
      <point x="28" y="507" type="curve" smooth="yes"/>
      <point x="28" y="540"/>
      <point x="39" y="572"/>
      <point x="64" y="597" type="curve" smooth="yes"/>
      <point x="73" y="606"/>
      <point x="97" y="620"/>
      <point x="118" y="632" type="curve" smooth="yes"/>
      <point x="130" y="639"/>
      <point x="143" y="647"/>
      <point x="158" y="654" type="curve"/>
      <point x="158" y="657"/>
      <point x="157" y="659"/>
      <point x="157" y="663" type="curve" smooth="yes"/>
      <point x="157" y="668"/>
      <point x="152" y="732"/>
      <point x="152" y="737" type="curve" smooth="yes"/>
      <point x="152" y="752"/>
      <point x="169" y="753"/>
      <point x="188" y="753" type="curve" smooth="yes"/>
      <point x="210" y="753" type="line"/>
      <point x="220" y="753" type="line" smooth="yes"/>
      <point x="241" y="753"/>
      <point x="291" y="753"/>
      <point x="296" y="740" type="curve"/>
      <point x="296" y="658" type="line" smooth="yes"/>
      <point x="296" y="649"/>
      <point x="300" y="645"/>
      <point x="309" y="644" type="curve" smooth="yes"/>
      <point x="359" y="639"/>
      <point x="397" y="592"/>
      <point x="412" y="561" type="curve" smooth="yes"/>
      <point x="425" y="534"/>
      <point x="426" y="511"/>
      <point x="426" y="480" type="curve" smooth="yes"/>
      <point x="426" y="449"/>
      <point x="420" y="442"/>
      <point x="392" y="442" type="curve" smooth="yes"/>
      <point x="376" y="442" type="line" smooth="yes"/>
      <point x="356" y="442"/>
      <point x="340" y="440"/>
      <point x="320" y="440" type="curve" smooth="yes"/>
      <point x="234" y="440"/>
      <point x="298" y="521"/>
      <point x="234" y="521" type="curve" name="hr10" smooth="yes"/>
      <point x="213" y="521"/>
      <point x="187" y="500"/>
      <point x="187" y="476" type="curve" smooth="yes"/>
      <point x="187" y="418"/>
      <point x="284" y="365"/>
    </contour>
    <contour>
      <point x="148" y="655" type="line"/>
      <point x="147" y="655" type="line"/>
      <point x="147" y="656"/>
      <point x="147" y="656"/>
      <point x="148" y="657" type="curve"/>
    </contour>
  </outline>
</glyph>
<glyph name="percent" format="1">
  <advance width="604"/>
  <unicode hex="0025"/>
  <outline>
    <contour>
      <point x="9" y="485" type="line" name="hr01"/>
      <point x="20" y="418"/>
      <point x="16" y="391"/>
      <point x="58" y="357" type="curve"/>
      <point x="74" y="338"/>
      <point x="95" y="312"/>
      <point x="151" y="312" type="curve" smooth="yes"/>
      <point x="175" y="312"/>
      <point x="196" y="319"/>
      <point x="213" y="333" type="curve"/>
      <point x="165" y="205"/>
      <point x="161" y="190"/>
      <point x="158" y="181" type="curve" smooth="yes"/>
      <point x="159" y="182" type="line" smooth="yes"/>
      <point x="144" y="149"/>
      <point x="135" y="120"/>
      <point x="126" y="93" type="curve"/>
      <point x="127" y="93" type="line"/>
      <point x="126" y="90"/>
      <point x="123" y="82"/>
      <point x="119" y="71" type="curve"/>
      <point x="119" y="72" type="line"/>
      <point x="110" y="51"/>
      <point x="99" y="21"/>
      <point x="99" y="4" type="curve" smooth="yes"/>
      <point x="99" y="-6"/>
      <point x="103" y="-11"/>
      <point x="110" y="-11" type="curve" smooth="yes"/>
      <point x="113" y="-11"/>
      <point x="116" y="-10"/>
      <point x="119" y="-10" type="curve"/>
      <point x="119" y="-15" type="line" smooth="yes"/>
      <point x="119" y="-26"/>
      <point x="123" y="-31"/>
      <point x="130" y="-31" type="curve" smooth="yes"/>
      <point x="226" y="-28"/>
      <point x="260" y="-40"/>
      <point x="268" y="-16" type="curve"/>
      <point x="268" y="-17" type="line"/>
      <point x="325" y="127" type="line" smooth="yes"/>
      <point x="333" y="147"/>
      <point x="340" y="168"/>
      <point x="347" y="188" type="curve"/>
      <point x="347" y="187" type="line"/>
      <point x="348" y="190"/>
      <point x="348" y="194"/>
      <point x="351" y="197" type="curve"/>
      <point x="352" y="168" type="line"/>
      <point x="363" y="101"/>
      <point x="359" y="74"/>
      <point x="401" y="40" type="curve"/>
      <point x="417" y="22"/>
      <point x="437" y="-5"/>
      <point x="492" y="-5" type="curve" name="hr02" smooth="yes"/>
      <point x="595" y="-5"/>
      <point x="616" y="116"/>
      <point x="616" y="193" type="curve" smooth="yes"/>
      <point x="616" y="261"/>
      <point x="575" y="376"/>
      <point x="472" y="376" type="curve" smooth="yes"/>
      <point x="447" y="376"/>
      <point x="423" y="367"/>
      <point x="402" y="349" type="curve"/>
      <point x="415" y="389"/>
      <point x="429" y="430"/>
      <point x="445" y="473" type="curve" smooth="yes"/>
      <point x="460" y="515" type="line"/>
      <point x="491" y="610"/>
      <point x="506" y="655"/>
      <point x="506" y="666" type="curve" smooth="yes"/>
      <point x="506" y="668"/>
      <point x="507" y="672"/>
      <point x="510" y="677" type="curve" smooth="yes"/>
      <point x="514" y="685" type="line"/>
      <point x="505" y="689"/>
      <point x="496" y="692"/>
      <point x="489" y="694" type="curve"/>
      <point x="490" y="697"/>
      <point x="491" y="698"/>
      <point x="492" y="701" type="curve" smooth="yes"/>
      <point x="494" y="705" type="line"/>
      <point x="471" y="716"/>
      <point x="449" y="718"/>
      <point x="428" y="718" type="curve" smooth="yes"/>
      <point x="412" y="718"/>
      <point x="398" y="717"/>
      <point x="382" y="717" type="curve" smooth="yes"/>
      <point x="368" y="717"/>
      <point x="354" y="718"/>
      <point x="341" y="721" type="curve"/>
      <point x="285" y="511"/>
      <point x="289" y="563"/>
      <point x="277" y="515" type="curve"/>
      <point x="278" y="515" type="line"/>
      <point x="275" y="508"/>
      <point x="274" y="503"/>
      <point x="273" y="500" type="curve"/>
      <point x="273" y="510" type="line" smooth="yes"/>
      <point x="273" y="578"/>
      <point x="232" y="693"/>
      <point x="129" y="693" type="curve" smooth="yes"/>
      <point x="94" y="693"/>
      <point x="67" y="676"/>
      <point x="44" y="651" type="curve" smooth="yes"/>
      <point x="16" y="619"/>
      <point x="17" y="580"/>
      <point x="10" y="540" type="curve"/>
      <point x="8" y="513" type="line"/>
    </contour>
    <contour>
      <point x="239" y="7" type="line" smooth="yes"/>
      <point x="236" y="-1"/>
      <point x="224" y="0"/>
      <point x="201" y="0" type="curve" name="hr03" smooth="yes"/>
      <point x="166" y="0" type="line" smooth="yes"/>
      <point x="151" y="0"/>
      <point x="134" y="0"/>
      <point x="111" y="-1" type="curve"/>
      <point x="110" y="-1" type="line"/>
      <point x="108" y="-1"/>
      <point x="107" y="0"/>
      <point x="107" y="3" type="curve" smooth="yes"/>
      <point x="107" y="21"/>
      <point x="133" y="82"/>
      <point x="136" y="90" type="curve" smooth="yes"/>
      <point x="145" y="119"/>
      <point x="155" y="149"/>
      <point x="168" y="178" type="curve"/>
      <point x="172" y="200"/>
      <point x="192" y="227"/>
      <point x="300" y="554" type="curve"/>
      <point x="303" y="559"/>
      <point x="330" y="634"/>
      <point x="349" y="709" type="curve"/>
      <point x="357" y="707"/>
      <point x="367" y="706"/>
      <point x="378" y="706" type="curve" smooth="yes"/>
      <point x="397" y="706"/>
      <point x="417" y="708"/>
      <point x="436" y="708" type="curve" smooth="yes"/>
      <point x="453" y="708"/>
      <point x="469" y="708"/>
      <point x="481" y="701" type="curve"/>
      <point x="478" y="694"/>
      <point x="478" y="691"/>
      <point x="475" y="683" type="curve"/>
      <point x="467" y="650"/>
      <point x="365" y="329"/>
      <point x="296" y="151" type="curve" smooth="yes"/>
    </contour>
    <contour>
      <point x="361" y="196" type="line"/>
      <point x="363" y="221" type="line"/>
      <point x="371" y="284"/>
      <point x="386" y="363"/>
      <point x="469" y="366" type="curve"/>
      <point x="560" y="366"/>
      <point x="586" y="279"/>
      <point x="586" y="214" type="curve" smooth="yes"/>
      <point x="586" y="204" type="line"/>
      <point x="586" y="194" type="line" smooth="yes"/>
      <point x="586" y="121"/>
      <point x="556" y="25"/>
      <point x="473" y="25" type="curve" name="hr04" smooth="yes"/>
      <point x="372" y="25"/>
      <point x="370" y="111"/>
      <point x="362" y="170" type="curve"/>
      <point x="362" y="171" type="line"/>
    </contour>
    <contour>
      <point x="18" y="513" type="line"/>
      <point x="20" y="538" type="line"/>
      <point x="28" y="601"/>
      <point x="43" y="680"/>
      <point x="126" y="683" type="curve"/>
      <point x="217" y="683"/>
      <point x="243" y="596"/>
      <point x="243" y="531" type="curve" smooth="yes"/>
      <point x="243" y="521" type="line"/>
      <point x="243" y="511" type="line" smooth="yes"/>
      <point x="243" y="438"/>
      <point x="213" y="342"/>
      <point x="130" y="342" type="curve" smooth="yes"/>
      <point x="29" y="342"/>
      <point x="27" y="428"/>
      <point x="19" y="487" type="curve"/>
      <point x="19" y="488" type="line"/>
    </contour>
    <contour>
      <point x="445" y="162" type="line"/>
      <point x="448" y="138"/>
      <point x="440" y="103"/>
      <point x="470" y="103" type="curve" smooth="yes"/>
      <point x="509" y="103"/>
      <point x="505" y="164"/>
      <point x="505" y="192" type="curve" smooth="yes"/>
      <point x="505" y="224"/>
      <point x="505" y="291"/>
      <point x="473" y="291" type="curve" smooth="yes"/>
      <point x="454" y="291"/>
      <point x="439" y="272"/>
      <point x="439" y="248" type="curve" smooth="yes"/>
      <point x="439" y="244"/>
      <point x="440" y="240"/>
      <point x="440" y="236" type="curve"/>
      <point x="440" y="235" type="line"/>
    </contour>
    <contour>
      <point x="102" y="479" type="line"/>
      <point x="105" y="455"/>
      <point x="97" y="420"/>
      <point x="127" y="420" type="curve" smooth="yes"/>
      <point x="166" y="420"/>
      <point x="162" y="481"/>
      <point x="162" y="509" type="curve" smooth="yes"/>
      <point x="162" y="541"/>
      <point x="162" y="608"/>
      <point x="130" y="608" type="curve" smooth="yes"/>
      <point x="111" y="608"/>
      <point x="96" y="589"/>
      <point x="96" y="565" type="curve" smooth="yes"/>
      <point x="96" y="561"/>
      <point x="97" y="557"/>
      <point x="97" y="553" type="curve"/>
      <point x="97" y="552" type="line"/>
    </contour>
    <contour>
      <point x="127" y="533" type="line"/>
      <point x="127" y="544"/>
      <point x="127" y="560"/>
      <point x="131" y="567" type="curve"/>
      <point x="131" y="566" type="line"/>
      <point x="134" y="571"/>
      <point x="139" y="575"/>
      <point x="145" y="577" type="curve"/>
      <point x="150" y="554"/>
      <point x="152" y="532"/>
      <point x="152" y="509" type="curve" name="hr05" smooth="yes"/>
      <point x="152" y="494"/>
      <point x="150" y="482"/>
      <point x="150" y="467" type="curve" smooth="yes"/>
      <point x="150" y="462" type="line" smooth="yes"/>
      <point x="150" y="459"/>
      <point x="149" y="459"/>
      <point x="149" y="458" type="curve"/>
      <point x="149" y="459" type="line"/>
      <point x="146" y="447"/>
      <point x="145" y="435"/>
      <point x="133" y="431" type="curve"/>
      <point x="133" y="440" type="line" smooth="yes"/>
      <point x="133" y="447"/>
      <point x="132" y="452"/>
      <point x="132" y="459" type="curve" smooth="yes"/>
    </contour>
    <contour>
      <point x="470" y="216" type="line"/>
      <point x="470" y="227"/>
      <point x="470" y="243"/>
      <point x="474" y="250" type="curve"/>
      <point x="474" y="249" type="line"/>
      <point x="477" y="254"/>
      <point x="482" y="258"/>
      <point x="488" y="260" type="curve"/>
      <point x="493" y="237"/>
      <point x="495" y="215"/>
      <point x="495" y="192" type="curve" smooth="yes"/>
      <point x="495" y="177"/>
      <point x="493" y="165"/>
      <point x="493" y="150" type="curve" smooth="yes"/>
      <point x="493" y="145" type="line" smooth="yes"/>
      <point x="493" y="133"/>
      <point x="487" y="117"/>
      <point x="476" y="114" type="curve"/>
      <point x="476" y="123" type="line" smooth="yes"/>
      <point x="476" y="130"/>
      <point x="475" y="135"/>
      <point x="475" y="142" type="curve" smooth="yes"/>
    </contour>
  </outline>
</glyph>
<glyph name="quotesingle" format="1">
  <advance width="185"/>
  <unicode hex="0027"/>
  <outline>
    <contour>
      <point x="29" y="714" type="line" name="hr01"/>
      <point x="27" y="664"/>
      <point x="26" y="622"/>
      <point x="26" y="588" type="curve" smooth="yes"/>
      <point x="26" y="551" type="line" smooth="yes"/>
      <point x="26" y="526"/>
      <point x="27" y="490"/>
      <point x="27" y="451" type="curve"/>
      <point x="34" y="450"/>
      <point x="40" y="449"/>
      <point x="47" y="449" type="curve"/>
      <point x="47" y="431" type="line"/>
      <point x="58" y="428"/>
      <point x="72" y="429"/>
      <point x="87" y="429" type="curve" smooth="yes"/>
      <point x="103" y="429"/>
      <point x="119" y="430"/>
      <point x="132" y="430" type="curve" smooth="yes"/>
      <point x="180" y="430" type="line"/>
      <point x="180" y="457"/>
      <point x="178" y="641"/>
      <point x="178" y="689" type="curve"/>
      <point x="175" y="694"/>
      <point x="169" y="697"/>
      <point x="158" y="698" type="curve"/>
      <point x="158" y="709" type="line"/>
      <point x="153" y="717"/>
      <point x="136" y="720"/>
      <point x="116" y="720" type="curve" smooth="yes"/>
      <point x="97" y="720"/>
      <point x="74" y="719"/>
      <point x="58" y="716" type="curve"/>
      <point x="40" y="714" type="line"/>
    </contour>
    <contour>
      <point x="40" y="704" type="line" name="hr02"/>
      <point x="48" y="704"/>
      <point x="94" y="711"/>
      <point x="124" y="711" type="curve" smooth="yes"/>
      <point x="138" y="711"/>
      <point x="146" y="709"/>
      <point x="148" y="706" type="curve"/>
      <point x="148" y="674"/>
      <point x="150" y="561"/>
      <point x="150" y="500" type="curve" smooth="yes" name="hr03"/>
      <point x="150" y="460" type="line"/>
      <point x="136" y="460" type="line" smooth="yes"/>
      <point x="119" y="460"/>
      <point x="91" y="459"/>
      <point x="66" y="459" type="curve" smooth="yes"/>
      <point x="37" y="460" type="line"/>
      <point x="37" y="527"/>
      <point x="36" y="564"/>
      <point x="36" y="601" type="curve" smooth="yes"/>
      <point x="36" y="632"/>
      <point x="36" y="659"/>
      <point x="39" y="702" type="curve" smooth="yes"/>
      <point x="39" y="704" type="line"/>
    </contour>
  </outline>
</glyph>
<glyph name="parenright" format="1">
  <advance width="313"/>
  <unicode hex="0029"/>
  <outline>
    <contour>
      <point x="232" y="13" type="curve" smooth="yes" name="hr00"/>
      <point x="249" y="25"/>
      <point x="266" y="43"/>
      <point x="277" y="62" type="curve" smooth="yes"/>
      <point x="302" y="109"/>
      <point x="309" y="145"/>
      <point x="312" y="182" type="curve"/>
      <point x="312" y="245"/>
      <point x="306" y="313"/>
      <point x="306" y="376" type="curve" smooth="yes"/>
      <point x="306" y="400" type="line"/>
      <point x="306" y="424" type="line"/>
      <point x="301" y="482"/>
      <point x="313" y="550"/>
      <point x="281" y="606" type="curve" smooth="yes"/>
      <point x="242" y="675"/>
      <point x="174" y="718"/>
      <point x="102" y="721" type="curve"/>
      <point x="78" y="720"/>
      <point x="48" y="718"/>
      <point x="20" y="714" type="curve"/>
      <point x="16" y="694"/>
      <point x="16" y="677"/>
      <point x="16" y="661" type="curve" smooth="yes"/>
      <point x="16" y="630"/>
      <point x="18" y="600"/>
      <point x="18" y="573" type="curve"/>
      <point x="29" y="569"/>
      <point x="38" y="570"/>
      <point x="38" y="553" type="curve"/>
      <point x="59" y="546"/>
      <point x="82" y="538"/>
      <point x="101" y="523" type="curve"/>
      <point x="125" y="485"/>
      <point x="120" y="413"/>
      <point x="128" y="378" type="curve"/>
      <point x="128" y="335" type="line" smooth="yes"/>
      <point x="128" y="323"/>
      <point x="129" y="310"/>
      <point x="129" y="298" type="curve" smooth="yes"/>
      <point x="129" y="267"/>
      <point x="127" y="237"/>
      <point x="118" y="206" type="curve"/>
      <point x="119" y="207" type="line" smooth="yes"/>
      <point x="102" y="168"/>
      <point x="58" y="140"/>
      <point x="15" y="139" type="curve"/>
      <point x="14" y="123" type="line"/>
      <point x="17" y="82"/>
      <point x="2" y="3"/>
      <point x="36" y="-8" type="curve"/>
      <point x="36" y="-33"/>
      <point x="70" y="-30"/>
      <point x="83" y="-30" type="curve" smooth="yes"/>
      <point x="106" y="-30" type="line" smooth="yes"/>
      <point x="151" y="-30"/>
      <point x="193" y="-16"/>
    </contour>
    <contour>
      <point x="206" y="41" type="curve" smooth="yes"/>
      <point x="167" y="14"/>
      <point x="127" y="0"/>
      <point x="86" y="0" type="curve" smooth="yes"/>
      <point x="69" y="0" type="line"/>
      <point x="56" y="0" type="line" smooth="yes"/>
      <point x="45" y="0"/>
      <point x="34" y="1"/>
      <point x="27" y="9" type="curve"/>
      <point x="24" y="42"/>
      <point x="27" y="89"/>
      <point x="24" y="124" type="curve"/>
      <point x="25" y="129" type="line"/>
      <point x="65" y="130"/>
      <point x="109" y="160"/>
      <point x="128" y="203" type="curve"/>
      <point x="137" y="234"/>
      <point x="139" y="268"/>
      <point x="139" y="301" type="curve" smooth="yes"/>
      <point x="139" y="328"/>
      <point x="138" y="353"/>
      <point x="138" y="380" type="curve"/>
      <point x="125" y="512"/>
      <point x="112" y="557"/>
      <point x="28" y="581" type="curve"/>
      <point x="27" y="606"/>
      <point x="25" y="631"/>
      <point x="25" y="658" type="curve" smooth="yes"/>
      <point x="25" y="673"/>
      <point x="26" y="689"/>
      <point x="28" y="704" type="curve"/>
      <point x="29" y="705" type="line"/>
      <point x="52" y="708"/>
      <point x="79" y="711"/>
      <point x="102" y="711" type="curve" smooth="yes"/>
      <point x="162" y="711"/>
      <point x="219" y="685"/>
      <point x="252" y="621" type="curve"/>
      <point x="284" y="567"/>
      <point x="273" y="503"/>
      <point x="276" y="444" type="curve"/>
      <point x="276" y="420" type="line"/>
      <point x="276" y="398" type="line" smooth="yes"/>
      <point x="276" y="334"/>
      <point x="279" y="267"/>
      <point x="282" y="203" type="curve"/>
      <point x="277" y="161"/>
      <point x="268" y="84"/>
    </contour>
  </outline>
</glyph>
<glyph name="asterisk" format="1">
  <advance width="367"/>
  <unicode hex="002A"/>
  <outline>
    <contour>
      <point x="345" y="386" type="line" name="hr00"/>
      <point x="355" y="396" type="line" smooth="yes"/>
      <point x="364" y="405"/>
      <point x="378" y="415"/>
      <point x="378" y="431" type="curve" smooth="yes"/>
      <point x="378" y="434"/>
      <point x="377" y="434"/>
      <point x="377" y="437" type="curve"/>
      <point x="366" y="443"/>
      <point x="328" y="497"/>
      <point x="310" y="512" type="curve"/>
      <point x="326" y="536"/>
      <point x="370" y="562"/>
      <point x="375" y="594" type="curve"/>
      <point x="261" y="708" type="line"/>
      <point x="263" y="710"/>
      <point x="205" y="652"/>
      <point x="186" y="639" type="curve"/>
      <point x="175" y="652"/>
      <point x="117" y="705"/>
      <point x="105" y="708" type="curve"/>
      <point x="93" y="699"/>
      <point x="73" y="679"/>
      <point x="56" y="662" type="curve" smooth="yes"/>
      <point x="47" y="653"/>
      <point x="17" y="623"/>
      <point x="7" y="618" type="curve"/>
      <point x="15" y="589"/>
      <point x="64" y="547"/>
      <point x="78" y="525" type="curve"/>
      <point x="54" y="501"/>
      <point x="34" y="480"/>
      <point x="7" y="443" type="curve"/>
      <point x="28" y="425" type="line"/>
      <point x="28" y="424"/>
      <point x="28" y="424"/>
      <point x="27" y="423" type="curve"/>
      <point x="58" y="396"/>
      <point x="90" y="368"/>
      <point x="122" y="337" type="curve"/>
      <point x="143" y="337"/>
      <point x="181" y="384"/>
      <point x="199" y="399" type="curve"/>
      <point x="207" y="388"/>
      <point x="244" y="353"/>
      <point x="249" y="348" type="curve"/>
      <point x="250" y="349" type="line"/>
      <point x="257" y="342"/>
      <point x="266" y="332"/>
      <point x="269" y="328" type="curve"/>
    </contour>
    <contour>
      <point x="254" y="362" type="line" smooth="yes"/>
      <point x="253" y="361"/>
      <point x="253" y="361"/>
      <point x="252" y="361" type="curve" smooth="yes"/>
      <point x="251" y="361"/>
      <point x="234" y="380"/>
      <point x="232" y="381" type="curve" smooth="yes"/>
      <point x="222" y="391"/>
      <point x="184" y="428"/>
      <point x="179" y="430" type="curve"/>
      <point x="167" y="425"/>
      <point x="118" y="367"/>
      <point x="106" y="367" type="curve"/>
      <point x="71" y="400"/>
      <point x="49" y="422"/>
      <point x="20" y="446" type="curve"/>
      <point x="28" y="459"/>
      <point x="67" y="498"/>
      <point x="89" y="523" type="curve"/>
      <point x="89" y="524" type="line"/>
      <point x="89" y="534"/>
      <point x="24" y="597"/>
      <point x="19" y="613" type="curve"/>
      <point x="29" y="616"/>
      <point x="88" y="683"/>
      <point x="106" y="696" type="curve" smooth="yes"/>
      <point x="107" y="697" type="line"/>
      <point x="114" y="695"/>
      <point x="175" y="635"/>
      <point x="186" y="627" type="curve"/>
      <point x="188" y="629"/>
      <point x="263" y="698"/>
      <point x="260" y="695" type="curve"/>
      <point x="263" y="691"/>
      <point x="281" y="672"/>
      <point x="301" y="653" type="curve" smooth="yes"/>
      <point x="344" y="611" type="line"/>
      <point x="341" y="587"/>
      <point x="286" y="551"/>
      <point x="278" y="529" type="curve"/>
      <point x="284" y="529"/>
      <point x="343" y="453"/>
      <point x="348" y="450" type="curve"/>
      <point x="348" y="448" type="line" smooth="yes"/>
      <point x="348" y="437"/>
      <point x="324" y="421"/>
      <point x="319" y="414" type="curve"/>
    </contour>
    <contour>
      <point x="80" y="522" type="curve"/>
      <point x="79" y="522"/>
      <point x="79" y="522"/>
      <point x="79" y="523" type="curve" smooth="yes"/>
      <point x="79" y="522"/>
      <point x="79" y="522"/>
    </contour>
  </outline>
</glyph>
<glyph name="comma" format="1">
  <advance width="188"/>
  <unicode hex="002C"/>
  <outline>
    <contour>
      <point x="176" y="-43" type="line" name="hr01"/>
      <point x="176" y="-36"/>
      <point x="180" y="-32"/>
      <point x="180" y="-19" type="curve"/>
      <point x="188" y="108" type="line"/>
      <point x="181" y="108"/>
      <point x="175" y="109"/>
      <point x="167" y="109" type="curve"/>
      <point x="168" y="128" type="line"/>
      <point x="135" y="131"/>
      <point x="103" y="135"/>
      <point x="74" y="135" type="curve" smooth="yes"/>
      <point x="59" y="135"/>
      <point x="45" y="134"/>
      <point x="26" y="127" type="curve"/>
      <point x="21" y="52"/>
      <point x="21" y="22"/>
      <point x="21" y="10" type="curve" smooth="yes"/>
      <point x="21" y="-7"/>
      <point x="31" y="-7"/>
      <point x="34" y="-7" type="curve" smooth="yes"/>
      <point x="41" y="-7" type="line"/>
      <point x="41" y="-17" type="line"/>
      <point x="48" y="-32"/>
      <point x="59" y="-25"/>
      <point x="66" y="-28" type="curve"/>
      <point x="62" y="-44"/>
      <point x="52" y="-77"/>
      <point x="52" y="-92" type="curve" smooth="yes" name="hr02"/>
      <point x="52" y="-99"/>
      <point x="54" y="-105"/>
      <point x="57" y="-108" type="curve"/>
      <point x="71" y="-108" type="line"/>
      <point x="71" y="-117"/>
      <point x="73" y="-124"/>
      <point x="77" y="-128" type="curve"/>
      <point x="119" y="-128" type="line" smooth="yes"/>
      <point x="134" y="-128"/>
      <point x="143" y="-128"/>
      <point x="158" y="-135" type="curve" name="hr03"/>
      <point x="161" y="-119"/>
      <point x="163" y="-110"/>
      <point x="168" y="-85" type="curve" smooth="yes"/>
    </contour>
    <contour>
      <point x="138" y="-61" type="line" smooth="yes"/>
      <point x="135" y="-74"/>
      <point x="133" y="-87"/>
      <point x="130" y="-100" type="curve"/>
      <point x="126" y="-99"/>
      <point x="119" y="-98"/>
      <point x="107" y="-98" type="curve" name="hr04"/>
      <point x="98" y="-99"/>
      <point x="90" y="-99"/>
      <point x="83" y="-99" type="curve" smooth="yes"/>
      <point x="71" y="-99"/>
      <point x="60" y="-99"/>
      <point x="60" y="-96" type="curve" smooth="yes"/>
      <point x="60" y="-85"/>
      <point x="76" y="-34"/>
      <point x="81" y="-1" type="curve"/>
      <point x="34" y="3" type="line"/>
      <point x="33" y="3"/>
      <point x="32" y="3"/>
      <point x="31" y="4" type="curve"/>
      <point x="31" y="8" type="line" smooth="yes"/>
      <point x="31" y="16"/>
      <point x="30" y="37"/>
      <point x="35" y="119" type="curve"/>
      <point x="36" y="120" type="line" smooth="yes"/>
      <point x="48" y="124"/>
      <point x="60" y="125"/>
      <point x="75" y="125" type="curve" smooth="yes"/>
      <point x="99" y="125"/>
      <point x="125" y="122"/>
      <point x="156" y="119" type="curve" smooth="yes"/>
      <point x="153" y="119" type="line"/>
      <point x="153" y="4" type="line"/>
      <point x="151" y="4" type="line"/>
      <point x="150" y="1" type="line"/>
      <point x="150" y="-4"/>
      <point x="147" y="-14"/>
      <point x="146" y="-21" type="curve" smooth="yes"/>
    </contour>
  </outline>
</glyph>
<glyph name="hyphen" format="1">
  <advance width="521"/>
  <unicode hex="002D"/>
  <outline>
    <contour>
      <point x="36" y="192" type="line" name="hr01"/>
      <point x="46" y="192" type="line"/>
      <point x="46" y="182" type="line"/>
      <point x="56" y="172" type="line"/>
      <point x="77" y="172"/>
      <point x="487" y="165"/>
      <point x="515" y="165" type="curve"/>
      <point x="511" y="193"/>
      <point x="510" y="219"/>
      <point x="510" y="244" type="curve" smooth="yes"/>
      <point x="510" y="277"/>
      <point x="512" y="315"/>
      <point x="512" y="352" type="curve"/>
      <point x="492" y="352" type="line"/>
      <point x="492" y="372" type="line"/>
      <point x="29" y="372" type="line"/>
      <point x="29" y="345"/>
      <point x="26" y="235"/>
      <point x="26" y="202" type="curve"/>
    </contour>
    <contour>
      <point x="36" y="202" type="curve"/>
      <point x="36" y="233"/>
      <point x="39" y="354"/>
      <point x="39" y="362" type="curve"/>
      <point x="482" y="362" type="line"/>
      <point x="482" y="329"/>
      <point x="480" y="295"/>
      <point x="480" y="262" type="curve" smooth="yes"/>
      <point x="480" y="239"/>
      <point x="481" y="218"/>
      <point x="485" y="195" type="curve" name="hr02"/>
      <point x="445" y="195" type="line" smooth="yes"/>
      <point x="337" y="195"/>
      <point x="55" y="202"/>
    </contour>
  </outline>
</glyph>
<glyph name="period" format="1">
  <advance width="189"/>
  <unicode hex="002E"/>
  <outline>
    <contour>
      <point x="179" y="-30" type="line" name="hr01"/>
      <point x="181" y="-15"/>
      <point x="187" y="58"/>
      <point x="187" y="86" type="curve" smooth="yes"/>
      <point x="187" y="109"/>
      <point x="178" y="106"/>
      <point x="167" y="109" type="curve"/>
      <point x="165" y="123" type="line"/>
      <point x="148" y="131"/>
      <point x="124" y="135"/>
      <point x="101" y="135" type="curve" name="hr02" smooth="yes"/>
      <point x="74" y="135"/>
      <point x="44" y="132"/>
      <point x="23" y="123" type="curve"/>
      <point x="23" y="107"/>
      <point x="21" y="80"/>
      <point x="21" y="52" type="curve" smooth="yes"/>
      <point x="21" y="31"/>
      <point x="22" y="10"/>
      <point x="25" y="-9" type="curve" name="hr03"/>
      <point x="42" y="-9" type="line"/>
      <point x="43" y="-16"/>
      <point x="44" y="-22"/>
      <point x="45" y="-29" type="curve" name="hr04"/>
    </contour>
    <contour>
      <point x="37" y="0" type="line" name="hr05"/>
      <point x="34" y="1" type="line"/>
      <point x="31" y="12"/>
      <point x="31" y="28"/>
      <point x="31" y="47" type="curve" smooth="yes"/>
      <point x="31" y="75"/>
      <point x="33" y="105"/>
      <point x="33" y="117" type="curve"/>
      <point x="48" y="124"/>
      <point x="74" y="125"/>
      <point x="101" y="125" type="curve" smooth="yes"/>
      <point x="126" y="125"/>
      <point x="149" y="123"/>
      <point x="158" y="119" type="curve"/>
      <point x="158" y="117"/>
      <point x="152" y="21"/>
      <point x="152" y="2" type="curve" smooth="yes"/>
      <point x="152" y="0" type="line"/>
      <point x="150" y="0" type="line"/>
    </contour>
  </outline>
</glyph>
<glyph name="zero" format="1">
  <advance width="513"/>
  <unicode hex="0030"/>
  <outline>
    <contour>
      <point x="19" y="398" type="curve" smooth="yes" name="hr01"/>
      <point x="19" y="370"/>
      <point x="21" y="342"/>
      <point x="22" y="315" type="curve" smooth="yes"/>
      <point x="25" y="216"/>
      <point x="27" y="113"/>
      <point x="102" y="46" type="curve"/>
      <point x="134" y="7"/>
      <point x="192" y="-28"/>
      <point x="271" y="-28" type="curve" smooth="yes"/>
      <point x="445" y="-28"/>
      <point x="518" y="186"/>
      <point x="518" y="341" type="curve" smooth="yes"/>
      <point x="518" y="353" type="line"/>
      <point x="518" y="377" type="line" smooth="yes"/>
      <point x="518" y="518"/>
      <point x="446" y="720"/>
      <point x="254" y="720" type="curve" smooth="yes"/>
      <point x="177" y="720"/>
      <point x="110" y="678"/>
      <point x="74" y="623" type="curve" smooth="yes"/>
      <point x="73" y="622" type="line" smooth="yes"/>
      <point x="30" y="551"/>
      <point x="19" y="475"/>
    </contour>
    <contour>
      <point x="82" y="618" type="curve"/>
      <point x="115" y="673"/>
      <point x="184" y="710"/>
      <point x="256" y="710" type="curve" smooth="yes"/>
      <point x="429" y="710"/>
      <point x="489" y="531"/>
      <point x="489" y="400" type="curve" smooth="yes" name="hr02"/>
      <point x="489" y="391"/>
      <point x="489" y="382"/>
      <point x="488" y="373" type="curve" smooth="yes"/>
      <point x="488" y="364"/>
      <point x="489" y="356"/>
      <point x="489" y="347" type="curve" smooth="yes"/>
      <point x="489" y="198"/>
      <point x="425" y="1"/>
      <point x="258" y="1" type="curve" smooth="yes"/>
      <point x="226" y="1"/>
      <point x="198" y="6"/>
      <point x="174" y="15" type="curve" smooth="yes"/>
      <point x="39" y="63"/>
      <point x="35" y="196"/>
      <point x="32" y="315" type="curve" smooth="yes"/>
      <point x="31" y="342"/>
      <point x="29" y="370"/>
      <point x="29" y="398" type="curve" smooth="yes"/>
      <point x="29" y="474"/>
      <point x="39" y="550"/>
    </contour>
    <contour>
      <point x="231" y="169" type="curve"/>
      <point x="237" y="166"/>
      <point x="245" y="165"/>
      <point x="254" y="165" type="curve" smooth="yes"/>
      <point x="329" y="165"/>
      <point x="322" y="293"/>
      <point x="322" y="371" type="curve" smooth="yes"/>
      <point x="322" y="454"/>
      <point x="313" y="552"/>
      <point x="254" y="552" type="curve" smooth="yes"/>
      <point x="187" y="552"/>
      <point x="177" y="471"/>
      <point x="177" y="347" type="curve" smooth="yes"/>
      <point x="177" y="290"/>
      <point x="186" y="177"/>
    </contour>
    <contour>
      <point x="233" y="179" type="line"/>
      <point x="231" y="179" type="line"/>
      <point x="227" y="191"/>
      <point x="226" y="202"/>
      <point x="221" y="214" type="curve" smooth="yes"/>
      <point x="222" y="213" type="line"/>
      <point x="211" y="253"/>
      <point x="208" y="288"/>
      <point x="208" y="327" type="curve" smooth="yes" name="hr03"/>
      <point x="208" y="524"/>
      <point x="243" y="521"/>
      <point x="270" y="521" type="curve" smooth="yes"/>
      <point x="277" y="521"/>
      <point x="283" y="520"/>
      <point x="289" y="518" type="curve"/>
      <point x="306" y="483"/>
      <point x="312" y="424"/>
      <point x="312" y="371" type="curve" smooth="yes"/>
      <point x="312" y="352"/>
      <point x="312" y="329"/>
      <point x="311" y="313" type="curve"/>
      <point x="308" y="297"/>
      <point x="317" y="174"/>
      <point x="255" y="174" type="curve" smooth="yes"/>
      <point x="248" y="174"/>
      <point x="241" y="175"/>
      <point x="234" y="178" type="curve" smooth="yes"/>
    </contour>
    <contour>
      <point x="93" y="603" type="line"/>
      <point x="93" y="602" type="line"/>
      <point x="94" y="603" type="line"/>
    </contour>
  </outline>
</glyph>
<glyph name="one" format="1">
  <advance width="366"/>
  <unicode hex="0031"/>
  <outline>
    <contour>
      <point x="344" y="-2" type="curve" name="hr01"/>
      <point x="343" y="21"/>
      <point x="343" y="45"/>
      <point x="343" y="68" type="curve" smooth="yes"/>
      <point x="343" y="221"/>
      <point x="354" y="367"/>
      <point x="354" y="522" type="curve" smooth="yes"/>
      <point x="354" y="578"/>
      <point x="352" y="642"/>
      <point x="348" y="699" type="curve"/>
      <point x="325" y="699"/>
      <point x="328" y="704"/>
      <point x="328" y="719" type="curve"/>
      <point x="283" y="723"/>
      <point x="247" y="724"/>
      <point x="214" y="724" type="curve" smooth="yes"/>
      <point x="187" y="724"/>
      <point x="155" y="723"/>
      <point x="128" y="722" type="curve"/>
      <point x="119" y="720" type="line"/>
      <point x="111" y="712"/>
      <point x="-4" y="535"/>
      <point x="-8" y="490" type="curve" smooth="yes"/>
      <point x="-8" y="486"/>
      <point x="-1" y="481"/>
      <point x="13" y="474" type="curve"/>
      <point x="12" y="473"/>
      <point x="12" y="472"/>
      <point x="12" y="470" type="curve" smooth="yes"/>
      <point x="12" y="453"/>
      <point x="130" y="422"/>
      <point x="143" y="422" type="curve" smooth="yes"/>
      <point x="148" y="422"/>
      <point x="152" y="424"/>
      <point x="156" y="428" type="curve"/>
      <point x="153" y="320"/>
      <point x="145" y="213"/>
      <point x="145" y="105" type="curve" smooth="yes"/>
      <point x="145" y="-1" type="line"/>
      <point x="152" y="-2"/>
      <point x="158" y="-3"/>
      <point x="165" y="-4" type="curve"/>
      <point x="165" y="-21" type="line"/>
      <point x="196" y="-26"/>
      <point x="238" y="-30"/>
      <point x="273" y="-30" type="curve" smooth="yes"/>
      <point x="302" y="-30"/>
      <point x="344" y="-26"/>
    </contour>
    <contour>
      <point x="314" y="18" type="curve"/>
      <point x="314" y="2"/>
      <point x="278" y="0"/>
      <point x="253" y="0" type="curve" smooth="yes"/>
      <point x="220" y="0"/>
      <point x="182" y="4"/>
      <point x="155" y="7" type="curve" name="hr02"/>
      <point x="155" y="105" type="line" smooth="yes"/>
      <point x="155" y="234"/>
      <point x="167" y="360"/>
      <point x="167" y="489" type="curve" name="hr03" smooth="yes"/>
      <point x="167" y="498" type="line" smooth="yes"/>
      <point x="167" y="502"/>
      <point x="167" y="505"/>
      <point x="166" y="507" type="curve"/>
      <point x="154" y="507"/>
      <point x="145" y="452"/>
      <point x="123" y="452" type="curve" smooth="yes"/>
      <point x="111" y="452"/>
      <point x="2" y="477"/>
      <point x="2" y="489" type="curve"/>
      <point x="6" y="534"/>
      <point x="115" y="704"/>
      <point x="123" y="712" type="curve"/>
      <point x="154" y="713"/>
      <point x="183" y="714"/>
      <point x="214" y="714" type="curve" smooth="yes"/>
      <point x="249" y="714"/>
      <point x="283" y="713"/>
      <point x="319" y="710" type="curve"/>
      <point x="323" y="653"/>
      <point x="324" y="598"/>
      <point x="324" y="542" type="curve" smooth="yes"/>
      <point x="324" y="389"/>
      <point x="313" y="241"/>
      <point x="313" y="88" type="curve" smooth="yes"/>
      <point x="313" y="53" type="line" smooth="yes"/>
      <point x="313" y="41"/>
      <point x="313" y="29"/>
    </contour>
  </outline>
</glyph>
<glyph name="two" format="1">
  <advance width="498"/>
  <unicode hex="0032"/>
  <outline>
    <contour>
      <point x="476" y="-26" type="line" name="hr01" smooth="yes"/>
      <point x="487" y="-26"/>
      <point x="490" y="-27"/>
      <point x="490" y="-12" type="curve"/>
      <point x="487" y="-5"/>
      <point x="488" y="-1"/>
      <point x="488" y="6" type="curve" smooth="yes"/>
      <point x="488" y="18" type="line"/>
      <point x="488" y="41" type="line" smooth="yes"/>
      <point x="488" y="52"/>
      <point x="489" y="62"/>
      <point x="489" y="73" type="curve" smooth="yes"/>
      <point x="489" y="96"/>
      <point x="485" y="116"/>
      <point x="478" y="135" type="curve"/>
      <point x="464" y="135" type="line"/>
      <point x="463" y="142"/>
      <point x="461" y="148"/>
      <point x="458" y="155" type="curve"/>
      <point x="390" y="155"/>
      <point x="334" y="152"/>
      <point x="270" y="152" type="curve" smooth="yes"/>
      <point x="234" y="152" type="line"/>
      <point x="237" y="161"/>
      <point x="244" y="175"/>
      <point x="244" y="178" type="curve"/>
      <point x="312" y="262"/>
      <point x="503" y="263"/>
      <point x="503" y="435" type="curve" name="hr02" smooth="yes"/>
      <point x="503" y="452"/>
      <point x="502" y="472"/>
      <point x="502" y="488" type="curve" smooth="yes"/>
      <point x="502" y="627"/>
      <point x="409" y="721"/>
      <point x="262" y="721" type="curve" smooth="yes"/>
      <point x="190" y="721"/>
      <point x="114" y="703"/>
      <point x="79" y="657" type="curve"/>
      <point x="79" y="658" type="line"/>
      <point x="40" y="615"/>
      <point x="21" y="554"/>
      <point x="21" y="485" type="curve" smooth="yes"/>
      <point x="21" y="462"/>
      <point x="23" y="437"/>
      <point x="28" y="412" type="curve"/>
      <point x="44" y="405"/>
      <point x="44" y="411"/>
      <point x="48" y="392" type="curve"/>
      <point x="72" y="385"/>
      <point x="87" y="386"/>
      <point x="104" y="386" type="curve" smooth="yes"/>
      <point x="135" y="386"/>
      <point x="171" y="387"/>
      <point x="215" y="394" type="curve"/>
      <point x="218" y="442"/>
      <point x="226" y="516"/>
      <point x="280" y="516" type="curve"/>
      <point x="300" y="512"/>
      <point x="304" y="491"/>
      <point x="304" y="474" type="curve" smooth="yes"/>
      <point x="304" y="448"/>
      <point x="293" y="427"/>
      <point x="272" y="411" type="curve" smooth="yes"/>
      <point x="208" y="363"/>
      <point x="123" y="330"/>
      <point x="59" y="258" type="curve"/>
      <point x="11" y="178"/>
      <point x="28" y="91"/>
      <point x="20" y="2" type="curve" smooth="yes"/>
      <point x="20" y="-1"/>
      <point x="20" y="-4"/>
      <point x="27" y="-11" type="curve"/>
      <point x="40" y="-11" type="line"/>
      <point x="40" y="-18" type="line" smooth="yes"/>
      <point x="40" y="-21"/>
      <point x="40" y="-24"/>
      <point x="47" y="-31" type="curve"/>
      <point x="96" y="-31" type="line"/>
    </contour>
    <contour>
      <point x="76" y="-1" type="line" name="hr03"/>
      <point x="31" y="-1" type="line"/>
      <point x="30" y="0"/>
      <point x="30" y="1"/>
      <point x="30" y="2" type="curve" smooth="yes"/>
      <point x="38" y="92"/>
      <point x="22" y="180"/>
      <point x="65" y="250" type="curve"/>
      <point x="129" y="322"/>
      <point x="209" y="347"/>
      <point x="278" y="403" type="curve"/>
      <point x="302" y="418"/>
      <point x="313" y="447"/>
      <point x="313" y="474" type="curve" smooth="yes"/>
      <point x="313" y="509"/>
      <point x="296" y="541"/>
      <point x="261" y="546" type="curve"/>
      <point x="196" y="546"/>
      <point x="190" y="473"/>
      <point x="187" y="425" type="curve"/>
      <point x="186" y="423" type="line"/>
      <point x="146" y="418"/>
      <point x="115" y="415"/>
      <point x="84" y="415" type="curve" smooth="yes"/>
      <point x="68" y="415"/>
      <point x="53" y="416"/>
      <point x="38" y="418" type="curve"/>
      <point x="37" y="420" type="line" smooth="yes"/>
      <point x="33" y="442"/>
      <point x="31" y="464"/>
      <point x="31" y="485" type="curve" smooth="yes"/>
      <point x="31" y="623"/>
      <point x="102" y="711"/>
      <point x="262" y="711" type="curve" smooth="yes"/>
      <point x="447" y="711"/>
      <point x="473" y="592"/>
      <point x="473" y="452" type="curve" smooth="yes"/>
      <point x="473" y="369"/>
      <point x="425" y="325"/>
      <point x="366" y="296" type="curve" smooth="yes"/>
      <point x="311" y="268" type="line" smooth="yes"/>
      <point x="261" y="242"/>
      <point x="200" y="213"/>
      <point x="200" y="151" type="curve" smooth="yes"/>
      <point x="200" y="138"/>
      <point x="247" y="142"/>
      <point x="263" y="142" type="curve" smooth="yes"/>
      <point x="327" y="142"/>
      <point x="383" y="145"/>
      <point x="451" y="145" type="curve"/>
      <point x="458" y="129"/>
      <point x="459" y="110"/>
      <point x="459" y="90" type="curve" name="hr04" smooth="yes"/>
      <point x="459" y="69"/>
      <point x="457" y="47"/>
      <point x="457" y="27" type="curve" smooth="yes"/>
      <point x="457" y="19"/>
      <point x="458" y="12"/>
      <point x="460" y="5" type="curve"/>
      <point x="460" y="6"/>
      <point x="459" y="4"/>
      <point x="456" y="-1" type="curve"/>
    </contour>
  </outline>
</glyph>
<glyph name="three" format="1">
  <advance width="492"/>
  <unicode hex="0033"/>
  <outline>
    <contour>
      <point x="83" y="17" type="curve" name="hr01" smooth="yes"/>
      <point x="86" y="14"/>
      <point x="103" y="-3"/>
      <point x="134" y="-12" type="curve"/>
      <point x="134" y="-11" type="line"/>
      <point x="171" y="-23"/>
      <point x="211" y="-31"/>
      <point x="262" y="-31" type="curve" smooth="yes"/>
      <point x="422" y="-31"/>
      <point x="476" y="57"/>
      <point x="481" y="173" type="curve"/>
      <point x="481" y="246"/>
      <point x="486" y="323"/>
      <point x="486" y="399" type="curve" smooth="yes"/>
      <point x="486" y="439"/>
      <point x="484" y="490"/>
      <point x="484" y="531" type="curve" smooth="yes"/>
      <point x="484" y="552"/>
      <point x="480" y="589"/>
      <point x="469" y="608" type="curve" smooth="yes"/>
      <point x="431" y="670"/>
      <point x="348" y="719"/>
      <point x="248" y="719" type="curve" smooth="yes"/>
      <point x="150" y="719"/>
      <point x="49" y="677"/>
      <point x="22" y="585" type="curve"/>
      <point x="23" y="586" type="line" smooth="yes"/>
      <point x="16" y="571"/>
      <point x="16" y="556"/>
      <point x="16" y="541" type="curve" smooth="yes"/>
      <point x="16" y="518"/>
      <point x="18" y="506"/>
      <point x="18" y="479" type="curve"/>
      <point x="38" y="477" type="line"/>
      <point x="38" y="459" type="line"/>
      <point x="51" y="457" type="line"/>
      <point x="99" y="457" type="line" smooth="yes"/>
      <point x="131" y="457"/>
      <point x="170" y="457"/>
      <point x="187" y="460" type="curve"/>
      <point x="198" y="492"/>
      <point x="241" y="518"/>
      <point x="273" y="518" type="curve" smooth="yes"/>
      <point x="296" y="518"/>
      <point x="294" y="505"/>
      <point x="294" y="489" type="curve" smooth="yes"/>
      <point x="294" y="426"/>
      <point x="203" y="453"/>
      <point x="154" y="434" type="curve"/>
      <point x="155" y="423"/>
      <point x="155" y="415"/>
      <point x="155" y="407" type="curve" smooth="yes"/>
      <point x="155" y="384"/>
      <point x="152" y="359"/>
      <point x="152" y="336" type="curve" name="hr02" smooth="yes"/>
      <point x="152" y="317"/>
      <point x="154" y="296"/>
      <point x="165" y="277" type="curve"/>
      <point x="169" y="278"/>
      <point x="172" y="278"/>
      <point x="176" y="279" type="curve"/>
      <point x="179" y="270"/>
      <point x="182" y="263"/>
      <point x="185" y="257" type="curve"/>
      <point x="204" y="261"/>
      <point x="220" y="264"/>
      <point x="233" y="264" type="curve" smooth="yes"/>
      <point x="260" y="264"/>
      <point x="295" y="260"/>
      <point x="295" y="224" type="curve" smooth="yes"/>
      <point x="295" y="213"/>
      <point x="292" y="203"/>
      <point x="287" y="194" type="curve" smooth="yes"/>
      <point x="288" y="195" type="line" smooth="yes"/>
      <point x="278" y="181"/>
      <point x="265" y="174"/>
      <point x="248" y="174" type="curve" smooth="yes"/>
      <point x="232" y="174"/>
      <point x="216" y="180"/>
      <point x="203" y="191" type="curve"/>
      <point x="194" y="202"/>
      <point x="193" y="217"/>
      <point x="178" y="217" type="curve"/>
      <point x="162" y="241"/>
      <point x="157" y="238"/>
      <point x="139" y="238" type="curve" smooth="yes"/>
      <point x="100" y="238"/>
      <point x="78" y="229"/>
      <point x="42" y="229" type="curve" smooth="yes"/>
      <point x="35" y="229"/>
      <point x="28" y="229"/>
      <point x="20" y="230" type="curve"/>
      <point x="20" y="94"/>
      <point x="27" y="73"/>
    </contour>
    <contour>
      <point x="70" y="44" type="curve"/>
      <point x="28" y="86"/>
      <point x="36" y="144"/>
      <point x="28" y="218" type="curve"/>
      <point x="30" y="219" type="line"/>
      <point x="34" y="219"/>
      <point x="37" y="218"/>
      <point x="41" y="218" type="curve" smooth="yes"/>
      <point x="74" y="218"/>
      <point x="108" y="228"/>
      <point x="147" y="228" type="curve" smooth="yes"/>
      <point x="160" y="228" type="line"/>
      <point x="162" y="227" type="line"/>
      <point x="173" y="195"/>
      <point x="212" y="164"/>
      <point x="248" y="164" type="curve" name="hr03" smooth="yes"/>
      <point x="273" y="164"/>
      <point x="305" y="181"/>
      <point x="305" y="224" type="curve" smooth="yes"/>
      <point x="305" y="271"/>
      <point x="264" y="293"/>
      <point x="213" y="293" type="curve" smooth="yes"/>
      <point x="198" y="293"/>
      <point x="183" y="292"/>
      <point x="170" y="289" type="curve"/>
      <point x="163" y="301"/>
      <point x="163" y="316"/>
      <point x="163" y="335" type="curve" smooth="yes"/>
      <point x="163" y="359"/>
      <point x="166" y="386"/>
      <point x="166" y="409" type="curve" smooth="yes"/>
      <point x="166" y="416"/>
      <point x="166" y="420"/>
      <point x="165" y="427" type="curve"/>
      <point x="165" y="428" type="line"/>
      <point x="208" y="444"/>
      <point x="304" y="411"/>
      <point x="304" y="489" type="curve" smooth="yes"/>
      <point x="304" y="532"/>
      <point x="282" y="548"/>
      <point x="253" y="548" type="curve" smooth="yes"/>
      <point x="217" y="548"/>
      <point x="171" y="521"/>
      <point x="160" y="489" type="curve"/>
      <point x="155" y="488"/>
      <point x="146" y="488"/>
      <point x="131" y="488" type="curve" smooth="yes"/>
      <point x="87" y="488" type="line" smooth="yes"/>
      <point x="58" y="488"/>
      <point x="31" y="487"/>
      <point x="28" y="487" type="curve"/>
      <point x="28" y="489" type="line" smooth="yes"/>
      <point x="28" y="504"/>
      <point x="26" y="521"/>
      <point x="26" y="540" type="curve" smooth="yes"/>
      <point x="26" y="656"/>
      <point x="142" y="709"/>
      <point x="248" y="709" type="curve" smooth="yes"/>
      <point x="356" y="709"/>
      <point x="454" y="659"/>
      <point x="454" y="561" type="curve" smooth="yes"/>
      <point x="454" y="551" type="line" smooth="yes"/>
      <point x="455" y="506"/>
      <point x="456" y="462"/>
      <point x="456" y="418" type="curve" smooth="yes"/>
      <point x="456" y="350"/>
      <point x="455" y="285"/>
      <point x="452" y="220" type="curve"/>
      <point x="449" y="181"/>
      <point x="451" y="140"/>
      <point x="435" y="104" type="curve" smooth="yes"/>
      <point x="403" y="33"/>
      <point x="345" y="-1"/>
      <point x="242" y="-1" type="curve" smooth="yes"/>
      <point x="147" y="-1"/>
      <point x="80" y="31"/>
    </contour>
  </outline>
</glyph>
<glyph name="four" format="1">
  <advance width="469"/>
  <unicode hex="0034"/>
  <outline>
    <contour>
      <point x="402" y="713" type="curve" name="hr01"/>
      <point x="387" y="716"/>
      <point x="377" y="715"/>
      <point x="361" y="715" type="curve" smooth="yes"/>
      <point x="319" y="715"/>
      <point x="239" y="712"/>
      <point x="228" y="712" type="curve"/>
      <point x="119" y="552"/>
      <point x="67" y="457"/>
      <point x="38" y="401" type="curve"/>
      <point x="11" y="352"/>
      <point x="3" y="345"/>
      <point x="3" y="310" type="curve" smooth="yes"/>
      <point x="3" y="209"/>
      <point x="11" y="186"/>
      <point x="31" y="183" type="curve"/>
      <point x="34" y="176"/>
      <point x="34" y="172"/>
      <point x="35" y="169" type="curve" smooth="yes"/>
      <point x="40" y="161"/>
      <point x="98" y="161"/>
      <point x="155" y="161" type="curve" smooth="yes"/>
      <point x="226" y="161" type="line"/>
      <point x="225" y="147" type="line" smooth="yes"/>
      <point x="222" y="110"/>
      <point x="218" y="58"/>
      <point x="218" y="23" type="curve" smooth="yes"/>
      <point x="218" y="2"/>
      <point x="220" y="-10"/>
      <point x="223" y="-13" type="curve"/>
      <point x="239" y="-13" type="line"/>
      <point x="239" y="-24"/>
      <point x="240" y="-30"/>
      <point x="243" y="-33" type="curve"/>
      <point x="307" y="-33" type="line" smooth="yes"/>
      <point x="363" y="-33"/>
      <point x="391" y="-33"/>
      <point x="400" y="-22" type="curve"/>
      <point x="403" y="-6"/>
      <point x="411" y="95"/>
      <point x="414" y="139" type="curve" smooth="yes"/>
      <point x="414" y="145"/>
      <point x="411" y="148"/>
      <point x="404" y="148" type="curve" smooth="yes"/>
      <point x="401" y="148" type="line" smooth="yes"/>
      <point x="411" y="150"/>
      <point x="419" y="151"/>
      <point x="424" y="151" type="curve" smooth="yes"/>
      <point x="431" y="151"/>
      <point x="436" y="150"/>
      <point x="443" y="150" type="curve" smooth="yes"/>
      <point x="451" y="150"/>
      <point x="461" y="151"/>
      <point x="476" y="156" type="curve"/>
      <point x="482" y="318" type="line"/>
      <point x="477" y="318"/>
      <point x="473" y="317"/>
      <point x="468" y="317" type="curve" smooth="yes"/>
      <point x="465" y="317"/>
      <point x="464" y="318"/>
      <point x="461" y="318" type="curve"/>
      <point x="462" y="338" type="line"/>
      <point x="443" y="338"/>
      <point x="429" y="340"/>
      <point x="414" y="340" type="curve"/>
      <point x="414" y="341" type="line"/>
      <point x="414" y="418"/>
      <point x="418" y="604"/>
      <point x="421" y="665" type="curve" smooth="yes"/>
      <point x="421" y="676"/>
      <point x="422" y="692"/>
      <point x="422" y="693" type="curve"/>
      <point x="414" y="694"/>
      <point x="408" y="695"/>
      <point x="401" y="695" type="curve"/>
      <point x="401" y="703"/>
      <point x="402" y="712"/>
    </contour>
    <contour>
      <point x="391" y="330" type="line" smooth="yes"/>
      <point x="394" y="331"/>
      <point x="398" y="331"/>
      <point x="404" y="331" type="curve" smooth="yes"/>
      <point x="420" y="331"/>
      <point x="440" y="328"/>
      <point x="452" y="328" type="curve"/>
      <point x="446" y="183" type="line"/>
      <point x="439" y="181"/>
      <point x="432" y="180"/>
      <point x="425" y="180" type="curve" smooth="yes"/>
      <point x="416" y="180"/>
      <point x="407" y="181"/>
      <point x="398" y="181" type="curve" smooth="yes"/>
      <point x="392" y="181"/>
      <point x="388" y="181"/>
      <point x="385" y="180" type="curve"/>
      <point x="385" y="184"/>
      <point x="375" y="21"/>
      <point x="371" y="4" type="curve"/>
      <point x="363" y="-5"/>
      <point x="319" y="-2"/>
      <point x="227" y="-3" type="curve"/>
      <point x="226" y="-3"/>
      <point x="226" y="-3"/>
      <point x="226" y="-2" type="curve"/>
      <point x="226" y="2" type="line" smooth="yes"/>
      <point x="226" y="34"/>
      <point x="238" y="181"/>
      <point x="238" y="189" type="curve"/>
      <point x="222" y="193"/>
      <point x="28" y="190"/>
      <point x="24" y="194" type="curve"/>
      <point x="21" y="202"/>
      <point x="13" y="245"/>
      <point x="13" y="309" type="curve" smooth="yes"/>
      <point x="13" y="320"/>
      <point x="13" y="328"/>
      <point x="14" y="339" type="curve"/>
      <point x="41" y="374"/>
      <point x="83" y="477"/>
      <point x="232" y="701" type="curve" smooth="yes"/>
      <point x="233" y="702" type="line"/>
      <point x="242" y="702"/>
      <point x="318" y="705"/>
      <point x="362" y="705" type="curve" smooth="yes"/>
      <point x="375" y="705"/>
      <point x="385" y="705"/>
      <point x="390" y="704" type="curve" smooth="yes"/>
      <point x="392" y="704" type="line"/>
      <point x="392" y="700"/>
      <point x="384" y="455"/>
      <point x="384" y="362" type="curve" smooth="yes" name="hr02"/>
      <point x="384" y="345"/>
      <point x="384" y="333"/>
      <point x="385" y="329" type="curve"/>
    </contour>
    <contour>
      <point x="268" y="541" type="line"/>
      <point x="268" y="542"/>
      <point x="268" y="542"/>
      <point x="267" y="542" type="curve" smooth="yes"/>
      <point x="254" y="542"/>
      <point x="137" y="337"/>
      <point x="133" y="328" type="curve"/>
      <point x="151" y="327" type="line" smooth="yes"/>
      <point x="174" y="326"/>
      <point x="209" y="327"/>
      <point x="236" y="326" type="curve" smooth="yes"/>
      <point x="251" y="326"/>
      <point x="260" y="326"/>
      <point x="265" y="327" type="curve"/>
    </contour>
    <contour>
      <point x="255" y="336" type="line"/>
      <point x="252" y="336"/>
      <point x="253" y="335"/>
      <point x="250" y="335" type="curve" smooth="yes"/>
      <point x="247" y="335"/>
      <point x="244" y="336"/>
      <point x="233" y="336" type="curve" smooth="yes"/>
      <point x="178" y="336" type="line"/>
      <point x="197" y="376"/>
      <point x="233" y="442"/>
      <point x="257" y="484" type="curve"/>
    </contour>
  </outline>
</glyph>
<glyph name="six" format="1">
  <advance width="503"/>
  <unicode hex="0036"/>
  <outline>
    <contour>
      <point x="509" y="208" type="line" name="hr01"/>
      <point x="498" y="284"/>
      <point x="434" y="369"/>
      <point x="336" y="369" type="curve" smooth="yes"/>
      <point x="297" y="369"/>
      <point x="257" y="360"/>
      <point x="234" y="351" type="curve"/>
      <point x="231" y="378"/>
      <point x="229" y="403"/>
      <point x="229" y="430" type="curve" smooth="yes"/>
      <point x="229" y="481"/>
      <point x="244" y="533"/>
      <point x="289" y="533" type="curve" smooth="yes"/>
      <point x="312" y="533"/>
      <point x="316" y="492"/>
      <point x="316" y="469" type="curve"/>
      <point x="334" y="469" type="line"/>
      <point x="335" y="462"/>
      <point x="335" y="456"/>
      <point x="336" y="449" type="curve"/>
      <point x="393" y="449"/>
      <point x="437" y="448"/>
      <point x="488" y="456" type="curve"/>
      <point x="493" y="477"/>
      <point x="496" y="495"/>
      <point x="496" y="512" type="curve" smooth="yes"/>
      <point x="496" y="612"/>
      <point x="409" y="718"/>
      <point x="292" y="718" type="curve" smooth="yes"/>
      <point x="190" y="718"/>
      <point x="80" y="675"/>
      <point x="42" y="589" type="curve"/>
      <point x="42" y="590" type="line"/>
      <point x="31" y="567"/>
      <point x="30" y="543"/>
      <point x="30" y="518" type="curve" smooth="yes"/>
      <point x="30" y="463"/>
      <point x="22" y="401"/>
      <point x="22" y="341" type="curve" smooth="yes"/>
      <point x="22" y="213"/>
      <point x="40" y="88"/>
      <point x="112" y="27" type="curve"/>
      <point x="147" y="-13"/>
      <point x="189" y="-33"/>
      <point x="262" y="-33" type="curve" smooth="yes"/>
      <point x="391" y="-33"/>
      <point x="512" y="31"/>
      <point x="512" y="166" type="curve" name="hr02" smooth="yes"/>
      <point x="512" y="173"/>
      <point x="511" y="177"/>
      <point x="511" y="184" type="curve" smooth="yes"/>
    </contour>
    <contour>
      <point x="481" y="203" type="line" smooth="yes"/>
      <point x="482" y="195"/>
      <point x="482" y="188"/>
      <point x="482" y="180" type="curve" smooth="yes"/>
      <point x="482" y="53"/>
      <point x="366" y="-4"/>
      <point x="242" y="-4" type="curve" smooth="yes"/>
      <point x="65" y="-4"/>
      <point x="32" y="160"/>
      <point x="32" y="341" type="curve" smooth="yes"/>
      <point x="32" y="392"/>
      <point x="34" y="442"/>
      <point x="38" y="489" type="curve" smooth="yes"/>
      <point x="41" y="517"/>
      <point x="38" y="544"/>
      <point x="46" y="571" type="curve"/>
      <point x="65" y="660"/>
      <point x="196" y="708"/>
      <point x="289" y="708" type="curve" smooth="yes"/>
      <point x="397" y="708"/>
      <point x="466" y="625"/>
      <point x="466" y="532" type="curve" name="hr03" smooth="yes"/>
      <point x="466" y="517"/>
      <point x="464" y="501"/>
      <point x="460" y="485" type="curve"/>
      <point x="421" y="478"/>
      <point x="375" y="481"/>
      <point x="328" y="478" type="curve"/>
      <point x="326" y="479" type="line"/>
      <point x="323" y="515"/>
      <point x="312" y="562"/>
      <point x="268" y="562" type="curve" smooth="yes"/>
      <point x="216" y="562"/>
      <point x="199" y="505"/>
      <point x="199" y="450" type="curve" smooth="yes"/>
      <point x="199" y="413"/>
      <point x="204" y="373"/>
      <point x="204" y="338" type="curve" smooth="yes"/>
      <point x="204" y="326" type="line"/>
      <point x="204" y="325" type="line"/>
      <point x="241" y="346"/>
      <point x="285" y="359"/>
      <point x="336" y="359" type="curve" smooth="yes"/>
      <point x="423" y="359"/>
      <point x="471" y="299"/>
      <point x="479" y="227" type="curve" smooth="yes"/>
    </contour>
    <contour>
      <point x="362" y="204" type="line" smooth="yes"/>
      <point x="362" y="232"/>
      <point x="345" y="250"/>
      <point x="317" y="250" type="curve" smooth="yes"/>
      <point x="291" y="250"/>
      <point x="247" y="231"/>
      <point x="247" y="196" type="curve" smooth="yes"/>
      <point x="247" y="168"/>
      <point x="270" y="150"/>
      <point x="299" y="150" type="curve" smooth="yes"/>
      <point x="326" y="150"/>
      <point x="357" y="166"/>
      <point x="362" y="191" type="curve"/>
    </contour>
    <contour>
      <point x="352" y="191" type="line"/>
      <point x="344" y="175"/>
      <point x="321" y="159"/>
      <point x="297" y="159" type="curve" name="hr04" smooth="yes"/>
      <point x="285" y="159"/>
      <point x="277" y="160"/>
      <point x="277" y="175" type="curve" smooth="yes"/>
      <point x="277" y="205"/>
      <point x="317" y="219"/>
      <point x="338" y="219" type="curve" smooth="yes"/>
      <point x="348" y="219" type="line"/>
      <point x="349" y="219" type="line"/>
      <point x="352" y="212"/>
      <point x="352" y="211"/>
      <point x="352" y="204" type="curve" smooth="yes"/>
    </contour>
  </outline>
</glyph>
<glyph name="nine" format="1">
  <advance width="513"/>
  <unicode hex="0039"/>
  <outline>
    <contour>
      <point x="313" y="486" type="line" name="hr01"/>
      <point x="298" y="455"/>
      <point x="290" y="444"/>
      <point x="263" y="444" type="curve" smooth="yes"/>
      <point x="232" y="444"/>
      <point x="231" y="457"/>
      <point x="231" y="484" type="curve" smooth="yes"/>
      <point x="231" y="507"/>
      <point x="262" y="519"/>
      <point x="282" y="519" type="curve" smooth="yes"/>
      <point x="298" y="519"/>
      <point x="313" y="516"/>
      <point x="313" y="495" type="curve" smooth="yes"/>
    </contour>
    <contour>
      <point x="504" y="451" type="line" smooth="yes"/>
      <point x="503" y="522"/>
      <point x="501" y="588"/>
      <point x="468" y="639" type="curve"/>
      <point x="468" y="638" type="line"/>
      <point x="412" y="720"/>
      <point x="338" y="719"/>
      <point x="256" y="719" type="curve"/>
      <point x="136" y="714"/>
      <point x="18" y="666"/>
      <point x="18" y="503" type="curve" smooth="yes"/>
      <point x="18" y="367"/>
      <point x="119" y="256"/>
      <point x="249" y="256" type="curve" smooth="yes"/>
      <point x="262" y="256"/>
      <point x="278" y="257"/>
      <point x="293" y="260" type="curve"/>
      <point x="290" y="224"/>
      <point x="280" y="187"/>
      <point x="245" y="187" type="curve" smooth="yes"/>
      <point x="230" y="187"/>
      <point x="220" y="196"/>
      <point x="215" y="213" type="curve"/>
      <point x="200" y="213"/>
      <point x="198" y="221"/>
      <point x="195" y="233" type="curve"/>
      <point x="176" y="236"/>
      <point x="159" y="237"/>
      <point x="143" y="237" type="curve" smooth="yes"/>
      <point x="102" y="237"/>
      <point x="60" y="232"/>
      <point x="20" y="232" type="curve"/>
      <point x="20" y="219" type="line"/>
      <point x="17" y="208"/>
      <point x="18" y="194"/>
      <point x="18" y="183" type="curve" smooth="yes"/>
      <point x="18" y="59"/>
      <point x="143" y="-34"/>
      <point x="289" y="-34" type="curve" smooth="yes"/>
      <point x="356" y="-34"/>
      <point x="416" y="-16"/>
      <point x="451" y="25" type="curve"/>
      <point x="492" y="84"/>
      <point x="510" y="150"/>
      <point x="510" y="218" type="curve" smooth="yes"/>
      <point x="510" y="245"/>
      <point x="506" y="275"/>
      <point x="506" y="303" type="curve" smooth="yes"/>
    </contour>
    <contour>
      <point x="322" y="482" type="curve" smooth="yes"/>
      <point x="323" y="484"/>
      <point x="323" y="488"/>
      <point x="323" y="495" type="curve" smooth="yes"/>
      <point x="323" y="526"/>
      <point x="297" y="549"/>
      <point x="262" y="549" type="curve" smooth="yes" name="hr02"/>
      <point x="237" y="549"/>
      <point x="201" y="533"/>
      <point x="201" y="504" type="curve" smooth="yes"/>
      <point x="201" y="491"/>
      <point x="203" y="478"/>
      <point x="208" y="467" type="curve"/>
      <point x="208" y="466" type="line"/>
      <point x="219" y="443"/>
      <point x="240" y="434"/>
      <point x="263" y="434" type="curve" smooth="yes"/>
      <point x="301" y="434"/>
      <point x="312" y="459"/>
    </contour>
    <contour>
      <point x="476" y="323" type="line" smooth="yes"/>
      <point x="476" y="292"/>
      <point x="479" y="265"/>
      <point x="479" y="234" type="curve" smooth="yes"/>
      <point x="479" y="171"/>
      <point x="463" y="108"/>
      <point x="427" y="57" type="curve"/>
      <point x="391" y="14"/>
      <point x="332" y="-4"/>
      <point x="269" y="-4" type="curve" smooth="yes"/>
      <point x="141" y="-4"/>
      <point x="27" y="63"/>
      <point x="27" y="182" type="curve" smooth="yes"/>
      <point x="27" y="193"/>
      <point x="28" y="205"/>
      <point x="30" y="217" type="curve"/>
      <point x="30" y="222" type="line"/>
      <point x="63" y="223"/>
      <point x="103" y="227"/>
      <point x="140" y="227" type="curve" smooth="yes"/>
      <point x="156" y="227"/>
      <point x="172" y="226"/>
      <point x="187" y="224" type="curve"/>
      <point x="194" y="197"/>
      <point x="216" y="177"/>
      <point x="244" y="177" type="curve" smooth="yes" name="hr03"/>
      <point x="292" y="177"/>
      <point x="304" y="231"/>
      <point x="304" y="279" type="curve" smooth="yes"/>
      <point x="304" y="286"/>
      <point x="303" y="293"/>
      <point x="303" y="300" type="curve"/>
      <point x="302" y="301" type="line"/>
      <point x="278" y="291"/>
      <point x="254" y="286"/>
      <point x="229" y="286" type="curve" smooth="yes"/>
      <point x="118" y="286"/>
      <point x="28" y="370"/>
      <point x="28" y="503" type="curve" smooth="yes"/>
      <point x="28" y="655"/>
      <point x="141" y="704"/>
      <point x="256" y="709" type="curve"/>
      <point x="324" y="706"/>
      <point x="400" y="715"/>
      <point x="440" y="653" type="curve" smooth="yes"/>
      <point x="471" y="606"/>
      <point x="473" y="539"/>
      <point x="474" y="471" type="curve" smooth="yes"/>
    </contour>
  </outline>
</glyph>
<glyph name="colon" format="1">
  <advance width="205"/>
  <unicode hex="003A"/>
  <outline>
    <contour>
      <point x="187" y="306" type="line" name="hr01"/>
      <point x="189" y="321"/>
      <point x="195" y="394"/>
      <point x="195" y="422" type="curve" smooth="yes"/>
      <point x="195" y="445"/>
      <point x="186" y="442"/>
      <point x="175" y="445" type="curve"/>
      <point x="173" y="459" type="line"/>
      <point x="156" y="467"/>
      <point x="132" y="471"/>
      <point x="109" y="471" type="curve" smooth="yes"/>
      <point x="82" y="471"/>
      <point x="52" y="468"/>
      <point x="31" y="459" type="curve"/>
      <point x="31" y="443"/>
      <point x="29" y="416"/>
      <point x="29" y="388" type="curve" smooth="yes"/>
      <point x="29" y="367"/>
      <point x="30" y="346"/>
      <point x="33" y="327" type="curve"/>
      <point x="50" y="327" type="line"/>
      <point x="51" y="320"/>
      <point x="52" y="314"/>
      <point x="53" y="307" type="curve"/>
    </contour>
    <contour>
      <point x="187" y="-30" type="line"/>
      <point x="189" y="-15"/>
      <point x="195" y="58"/>
      <point x="195" y="86" type="curve" smooth="yes"/>
      <point x="195" y="109"/>
      <point x="186" y="106"/>
      <point x="175" y="109" type="curve"/>
      <point x="173" y="123" type="line"/>
      <point x="156" y="131"/>
      <point x="132" y="135"/>
      <point x="109" y="135" type="curve" name="hr02" smooth="yes"/>
      <point x="82" y="135"/>
      <point x="52" y="132"/>
      <point x="31" y="123" type="curve"/>
      <point x="31" y="107"/>
      <point x="29" y="80"/>
      <point x="29" y="52" type="curve" smooth="yes"/>
      <point x="29" y="31"/>
      <point x="30" y="10"/>
      <point x="33" y="-9" type="curve" name="hr03"/>
      <point x="50" y="-9" type="line"/>
      <point x="51" y="-16"/>
      <point x="52" y="-22"/>
      <point x="53" y="-29" type="curve" name="hr04"/>
    </contour>
    <contour>
      <point x="45" y="337" type="line" name="hr05"/>
      <point x="42" y="337" type="line"/>
      <point x="39" y="348"/>
      <point x="39" y="364"/>
      <point x="39" y="383" type="curve" smooth="yes"/>
      <point x="39" y="411"/>
      <point x="41" y="441"/>
      <point x="41" y="453" type="curve"/>
      <point x="56" y="460"/>
      <point x="82" y="461"/>
      <point x="109" y="461" type="curve" smooth="yes"/>
      <point x="134" y="461"/>
      <point x="157" y="459"/>
      <point x="166" y="455" type="curve"/>
      <point x="166" y="453"/>
      <point x="160" y="357"/>
      <point x="160" y="338" type="curve" smooth="yes"/>
      <point x="160" y="336" type="line"/>
      <point x="158" y="336" type="line"/>
    </contour>
    <contour>
      <point x="45" y="0" type="line" name="hr06"/>
      <point x="42" y="1" type="line"/>
      <point x="39" y="12"/>
      <point x="39" y="28"/>
      <point x="39" y="47" type="curve" smooth="yes"/>
      <point x="39" y="75"/>
      <point x="41" y="105"/>
      <point x="41" y="117" type="curve"/>
      <point x="56" y="124"/>
      <point x="82" y="125"/>
      <point x="109" y="125" type="curve" smooth="yes"/>
      <point x="134" y="125"/>
      <point x="157" y="123"/>
      <point x="166" y="119" type="curve"/>
      <point x="166" y="117"/>
      <point x="160" y="21"/>
      <point x="160" y="2" type="curve" smooth="yes"/>
      <point x="160" y="0" type="line"/>
      <point x="158" y="0" type="line"/>
    </contour>
  </outline>
</glyph>
<glyph name="semicolon" format="1">
  <advance width="205"/>
  <unicode hex="003B"/>
  <outline>
    <contour>
      <point x="185" y="-43" type="line" name="hr01"/>
      <point x="185" y="-36"/>
      <point x="189" y="-32"/>
      <point x="189" y="-19" type="curve"/>
      <point x="197" y="108" type="line"/>
      <point x="190" y="108"/>
      <point x="184" y="109"/>
      <point x="176" y="109" type="curve"/>
      <point x="177" y="128" type="line"/>
      <point x="144" y="131"/>
      <point x="112" y="135"/>
      <point x="83" y="135" type="curve" smooth="yes"/>
      <point x="68" y="135"/>
      <point x="54" y="134"/>
      <point x="35" y="127" type="curve"/>
      <point x="30" y="52"/>
      <point x="30" y="22"/>
      <point x="30" y="10" type="curve" smooth="yes"/>
      <point x="30" y="-6"/>
      <point x="38" y="-7"/>
      <point x="42" y="-7" type="curve" smooth="yes"/>
      <point x="50" y="-7" type="line"/>
      <point x="50" y="-17" type="line"/>
      <point x="57" y="-32"/>
      <point x="68" y="-25"/>
      <point x="75" y="-28" type="curve"/>
      <point x="71" y="-44"/>
      <point x="61" y="-77"/>
      <point x="61" y="-92" type="curve" smooth="yes" name="hr02"/>
      <point x="61" y="-99"/>
      <point x="63" y="-105"/>
      <point x="66" y="-108" type="curve"/>
      <point x="81" y="-108" type="line"/>
      <point x="81" y="-113" type="line" smooth="yes"/>
      <point x="81" y="-120"/>
      <point x="83" y="-125"/>
      <point x="86" y="-128" type="curve"/>
      <point x="128" y="-128" type="line" smooth="yes"/>
      <point x="143" y="-128"/>
      <point x="152" y="-128"/>
      <point x="167" y="-135" type="curve" name="hr03"/>
      <point x="170" y="-119"/>
      <point x="172" y="-110"/>
      <point x="177" y="-85" type="curve" smooth="yes"/>
    </contour>
    <contour>
      <point x="187" y="306" type="line"/>
      <point x="187" y="321"/>
      <point x="195" y="394"/>
      <point x="195" y="422" type="curve" smooth="yes"/>
      <point x="195" y="445"/>
      <point x="186" y="442"/>
      <point x="175" y="445" type="curve"/>
      <point x="173" y="459" type="line"/>
      <point x="156" y="467"/>
      <point x="132" y="471"/>
      <point x="109" y="471" type="curve" smooth="yes"/>
      <point x="82" y="471"/>
      <point x="52" y="468"/>
      <point x="31" y="459" type="curve"/>
      <point x="31" y="443"/>
      <point x="29" y="416"/>
      <point x="29" y="388" type="curve" smooth="yes"/>
      <point x="29" y="367"/>
      <point x="30" y="346"/>
      <point x="33" y="327" type="curve"/>
      <point x="50" y="327" type="line"/>
      <point x="51" y="320"/>
      <point x="52" y="314"/>
      <point x="53" y="307" type="curve"/>
    </contour>
    <contour>
      <point x="147" y="-61" type="line" smooth="yes"/>
      <point x="144" y="-74"/>
      <point x="142" y="-87"/>
      <point x="139" y="-100" type="curve"/>
      <point x="135" y="-99"/>
      <point x="128" y="-98"/>
      <point x="116" y="-98" type="curve" name="hr04"/>
      <point x="107" y="-99"/>
      <point x="99" y="-99"/>
      <point x="92" y="-99" type="curve" smooth="yes"/>
      <point x="80" y="-99"/>
      <point x="69" y="-99"/>
      <point x="69" y="-96" type="curve" smooth="yes"/>
      <point x="69" y="-85"/>
      <point x="85" y="-34"/>
      <point x="90" y="-1" type="curve"/>
      <point x="43" y="3" type="line"/>
      <point x="42" y="3"/>
      <point x="41" y="3"/>
      <point x="40" y="4" type="curve"/>
      <point x="40" y="8" type="line" smooth="yes"/>
      <point x="40" y="16"/>
      <point x="39" y="37"/>
      <point x="44" y="119" type="curve"/>
      <point x="45" y="120" type="line" smooth="yes"/>
      <point x="57" y="124"/>
      <point x="69" y="125"/>
      <point x="84" y="125" type="curve" smooth="yes"/>
      <point x="108" y="125"/>
      <point x="134" y="122"/>
      <point x="165" y="119" type="curve" smooth="yes"/>
      <point x="162" y="119" type="line"/>
      <point x="162" y="4" type="line"/>
      <point x="160" y="4" type="line"/>
      <point x="159" y="1" type="line"/>
      <point x="159" y="-4"/>
      <point x="156" y="-14"/>
      <point x="155" y="-21" type="curve" smooth="yes"/>
    </contour>
    <contour>
      <point x="45" y="337" type="line"/>
      <point x="42" y="337" type="line"/>
      <point x="39" y="348"/>
      <point x="39" y="364"/>
      <point x="39" y="383" type="curve" smooth="yes"/>
      <point x="39" y="411"/>
      <point x="41" y="441"/>
      <point x="41" y="453" type="curve"/>
      <point x="56" y="460"/>
      <point x="82" y="461"/>
      <point x="109" y="461" type="curve" smooth="yes"/>
      <point x="134" y="461"/>
      <point x="157" y="459"/>
      <point x="166" y="455" type="curve"/>
      <point x="166" y="453"/>
      <point x="160" y="357"/>
      <point x="160" y="338" type="curve" smooth="yes"/>
      <point x="160" y="336" type="line"/>
      <point x="158" y="337" type="line"/>
    </contour>
  </outline>
</glyph>
<glyph name="less" format="1">
  <advance width="363"/>
  <unicode hex="003C"/>
  <outline>
    <contour>
      <point x="378" y="73" type="line" name="hr00"/>
      <point x="371" y="80"/>
      <point x="364" y="84"/>
      <point x="356" y="91" type="curve"/>
      <point x="358" y="93" type="line"/>
      <point x="302" y="137"/>
      <point x="246" y="196"/>
      <point x="193" y="249" type="curve"/>
      <point x="244" y="310"/>
      <point x="312" y="372"/>
      <point x="368" y="441" type="curve"/>
      <point x="359" y="446"/>
      <point x="352" y="452"/>
      <point x="346" y="458" type="curve"/>
      <point x="346" y="459"/>
      <point x="347" y="460"/>
      <point x="348" y="461" type="curve"/>
      <point x="337" y="468"/>
      <point x="329" y="475"/>
      <point x="320" y="484" type="curve" smooth="yes"/>
      <point x="307" y="497" type="line" smooth="yes"/>
      <point x="291" y="513"/>
      <point x="276" y="530"/>
      <point x="257" y="541" type="curve"/>
      <point x="241" y="525"/>
      <point x="216" y="500"/>
      <point x="199" y="481" type="curve" smooth="yes"/>
      <point x="194" y="476" type="line" smooth="yes"/>
      <point x="130" y="409"/>
      <point x="55" y="341"/>
      <point x="0" y="270" type="curve"/>
      <point x="80" y="156"/>
      <point x="173" y="91"/>
      <point x="261" y="8" type="curve"/>
      <point x="261" y="7"/>
      <point x="262" y="6"/>
      <point x="263" y="6" type="curve"/>
      <point x="283" y="-14" type="line"/>
      <point x="331" y="26"/>
      <point x="335" y="32"/>
      <point x="343" y="40" type="curve" smooth="yes"/>
      <point x="359" y="56" type="line"/>
    </contour>
    <contour>
      <point x="332" y="83" type="line"/>
      <point x="303" y="54" type="line" smooth="yes"/>
      <point x="296" y="47"/>
      <point x="285" y="36"/>
      <point x="265" y="19" type="curve"/>
      <point x="264" y="20" type="line" smooth="yes"/>
      <point x="184" y="103"/>
      <point x="88" y="168"/>
      <point x="13" y="270" type="curve"/>
      <point x="38" y="302"/>
      <point x="70" y="335"/>
      <point x="103" y="368" type="curve" smooth="yes"/>
      <point x="153" y="419" type="line" smooth="yes"/>
      <point x="192" y="458"/>
      <point x="225" y="493"/>
      <point x="258" y="528" type="curve"/>
      <point x="282" y="515"/>
      <point x="310" y="475"/>
      <point x="334" y="459" type="curve"/>
      <point x="295" y="409"/>
      <point x="209" y="331"/>
      <point x="158" y="267" type="curve"/>
      <point x="222" y="211"/>
      <point x="279" y="145"/>
      <point x="343" y="93" type="curve"/>
    </contour>
  </outline>
</glyph>
<glyph name="equal" format="1">
  <advance width="466"/>
  <unicode hex="003D"/>
  <outline>
    <contour>
      <point x="41" y="316" type="line" name="hr01"/>
      <point x="51" y="316" type="line"/>
      <point x="51" y="306" type="line"/>
      <point x="61" y="296" type="line"/>
      <point x="91" y="296"/>
      <point x="430" y="290"/>
      <point x="456" y="290" type="curve"/>
      <point x="453" y="317"/>
      <point x="451" y="342"/>
      <point x="451" y="365" type="curve" smooth="yes"/>
      <point x="451" y="389"/>
      <point x="453" y="422"/>
      <point x="453" y="453" type="curve"/>
      <point x="433" y="453" type="line"/>
      <point x="433" y="473" type="line"/>
      <point x="34" y="473" type="line"/>
      <point x="34" y="450"/>
      <point x="31" y="357"/>
      <point x="31" y="326" type="curve"/>
    </contour>
    <contour>
      <point x="41" y="109" type="line"/>
      <point x="51" y="109" type="line"/>
      <point x="51" y="99" type="line"/>
      <point x="61" y="89" type="line"/>
      <point x="91" y="89"/>
      <point x="430" y="83"/>
      <point x="456" y="83" type="curve" name="hr02"/>
      <point x="453" y="110"/>
      <point x="451" y="135"/>
      <point x="451" y="158" type="curve" smooth="yes"/>
      <point x="451" y="182"/>
      <point x="453" y="215"/>
      <point x="453" y="246" type="curve"/>
      <point x="433" y="246" type="line"/>
      <point x="433" y="266" type="line" name="hr03"/>
      <point x="34" y="266" type="line"/>
      <point x="34" y="243"/>
      <point x="31" y="150"/>
      <point x="31" y="119" type="curve"/>
    </contour>
    <contour>
      <point x="41" y="119" type="curve"/>
      <point x="41" y="146"/>
      <point x="44" y="248"/>
      <point x="44" y="256" type="curve" name="hr04"/>
      <point x="423" y="256" type="line"/>
      <point x="423" y="228"/>
      <point x="422" y="199"/>
      <point x="422" y="171" type="curve" smooth="yes"/>
      <point x="422" y="151"/>
      <point x="423" y="132"/>
      <point x="426" y="113" type="curve"/>
      <point x="391" y="113" type="line" smooth="yes"/>
      <point x="300" y="113"/>
      <point x="58" y="119"/>
    </contour>
    <contour>
      <point x="41" y="326" type="curve"/>
      <point x="41" y="353"/>
      <point x="44" y="455"/>
      <point x="44" y="463" type="curve"/>
      <point x="423" y="463" type="line"/>
      <point x="423" y="435"/>
      <point x="422" y="406"/>
      <point x="422" y="378" type="curve" smooth="yes"/>
      <point x="422" y="358"/>
      <point x="423" y="339"/>
      <point x="426" y="320" type="curve"/>
      <point x="391" y="320" type="line" smooth="yes"/>
      <point x="300" y="320"/>
      <point x="58" y="326"/>
    </contour>
  </outline>
</glyph>
<glyph name="greater" format="1">
  <advance width="363"/>
  <unicode hex="003E"/>
  <outline>
    <contour>
      <point x="24" y="76" type="line" name="hr00"/>
      <point x="42" y="57" type="line" smooth="yes"/>
      <point x="58" y="41"/>
      <point x="33" y="59"/>
      <point x="118" y="-15" type="curve"/>
      <point x="206" y="75"/>
      <point x="299" y="139"/>
      <point x="383" y="250" type="curve"/>
      <point x="344" y="298"/>
      <point x="295" y="341"/>
      <point x="252" y="392" type="curve" smooth="yes"/>
      <point x="249" y="395" type="line" smooth="yes"/>
      <point x="236" y="408"/>
      <point x="217" y="425"/>
      <point x="189" y="456" type="curve" smooth="yes"/>
      <point x="184" y="461" type="line" smooth="yes"/>
      <point x="165" y="480"/>
      <point x="143" y="503"/>
      <point x="126" y="520" type="curve" smooth="yes"/>
      <point x="106" y="540" type="line"/>
      <point x="69" y="519"/>
      <point x="50" y="482"/>
      <point x="15" y="461" type="curve"/>
      <point x="70" y="390"/>
      <point x="138" y="328"/>
      <point x="191" y="268" type="curve"/>
      <point x="124" y="208"/>
      <point x="69" y="147"/>
      <point x="5" y="94" type="curve"/>
    </contour>
    <contour>
      <point x="20" y="93" type="line"/>
      <point x="84" y="145"/>
      <point x="141" y="211"/>
      <point x="205" y="267" type="curve"/>
      <point x="151" y="331"/>
      <point x="69" y="409"/>
      <point x="29" y="459" type="curve"/>
      <point x="52" y="475"/>
      <point x="82" y="515"/>
      <point x="105" y="528" type="curve"/>
      <point x="138" y="493"/>
      <point x="171" y="458"/>
      <point x="210" y="419" type="curve" smooth="yes"/>
      <point x="260" y="368" type="line" smooth="yes"/>
      <point x="293" y="335"/>
      <point x="325" y="302"/>
      <point x="350" y="270" type="curve"/>
      <point x="273" y="169"/>
      <point x="179" y="103"/>
      <point x="99" y="20" type="curve" smooth="yes"/>
      <point x="98" y="19" type="line"/>
      <point x="58" y="54"/>
      <point x="52" y="62"/>
      <point x="47" y="67" type="curve" smooth="yes"/>
      <point x="31" y="83" type="line"/>
    </contour>
  </outline>
</glyph>
<glyph name="question" format="1">
  <advance width="451"/>
  <unicode hex="003F"/>
  <outline>
    <contour>
      <point x="132" y="199" type="line" name="hr01" smooth="yes"/>
      <point x="132" y="187"/>
      <point x="131" y="178"/>
      <point x="142" y="167" type="curve"/>
      <point x="152" y="167" type="line"/>
      <point x="153" y="160"/>
      <point x="155" y="154"/>
      <point x="162" y="147" type="curve"/>
      <point x="222" y="147" type="line"/>
      <point x="238" y="147" type="line" smooth="yes"/>
      <point x="257" y="147"/>
      <point x="280" y="148"/>
      <point x="303" y="151" type="curve"/>
      <point x="301" y="159"/>
      <point x="300" y="166"/>
      <point x="300" y="171" type="curve" smooth="yes"/>
      <point x="300" y="214"/>
      <point x="326" y="272"/>
      <point x="351" y="310" type="curve"/>
      <point x="395" y="362"/>
      <point x="461" y="417"/>
      <point x="461" y="508" type="curve" smooth="yes"/>
      <point x="461" y="617"/>
      <point x="351" y="718"/>
      <point x="233" y="718" type="curve" smooth="yes"/>
      <point x="226" y="718"/>
      <point x="219" y="718"/>
      <point x="212" y="717" type="curve" name="hr02"/>
      <point x="213" y="717" type="line"/>
      <point x="94" y="712"/>
      <point x="11" y="600"/>
      <point x="6" y="490" type="curve"/>
      <point x="11" y="489"/>
      <point x="19" y="489"/>
      <point x="27" y="488" type="curve"/>
      <point x="26" y="481"/>
      <point x="26" y="477"/>
      <point x="26" y="470" type="curve"/>
      <point x="58" y="467"/>
      <point x="87" y="464"/>
      <point x="119" y="464" type="curve" smooth="yes"/>
      <point x="132" y="464"/>
      <point x="146" y="465"/>
      <point x="159" y="466" type="curve"/>
      <point x="197" y="480"/>
      <point x="197" y="526"/>
      <point x="231" y="526" type="curve" smooth="yes"/>
      <point x="239" y="526"/>
      <point x="261" y="523"/>
      <point x="261" y="507" type="curve" smooth="yes"/>
      <point x="261" y="479"/>
      <point x="232" y="443"/>
      <point x="208" y="410" type="curve" smooth="yes"/>
      <point x="160" y="347"/>
      <point x="144" y="302"/>
      <point x="134" y="239" type="curve"/>
    </contour>
    <contour>
      <point x="144" y="237" type="line"/>
      <point x="151" y="280"/>
      <point x="158" y="319"/>
      <point x="183" y="356" type="curve"/>
      <point x="204" y="396"/>
      <point x="270" y="461"/>
      <point x="270" y="508" type="curve" smooth="yes"/>
      <point x="270" y="527"/>
      <point x="250" y="557"/>
      <point x="208" y="557" type="curve" smooth="yes"/>
      <point x="171" y="557"/>
      <point x="167" y="507"/>
      <point x="138" y="496" type="curve"/>
      <point x="126" y="495"/>
      <point x="115" y="494"/>
      <point x="104" y="494" type="curve" smooth="yes"/>
      <point x="73" y="494"/>
      <point x="45" y="497"/>
      <point x="16" y="498" type="curve"/>
      <point x="16" y="499" type="line"/>
      <point x="21" y="610"/>
      <point x="108" y="708"/>
      <point x="234" y="708" type="curve" smooth="yes"/>
      <point x="342" y="708"/>
      <point x="431" y="632"/>
      <point x="431" y="532" type="curve" smooth="yes"/>
      <point x="431" y="435"/>
      <point x="363" y="389"/>
      <point x="323" y="336" type="curve" smooth="yes"/>
      <point x="295" y="297"/>
      <point x="283" y="261"/>
      <point x="274" y="214" type="curve"/>
      <point x="271" y="206"/>
      <point x="269" y="197"/>
      <point x="269" y="188" type="curve" smooth="yes"/>
      <point x="269" y="185"/>
      <point x="269" y="182"/>
      <point x="270" y="180" type="curve"/>
      <point x="270" y="179" type="line"/>
      <point x="257" y="176"/>
      <point x="245" y="177"/>
      <point x="230" y="177" type="curve" smooth="yes"/>
      <point x="211" y="177"/>
      <point x="193" y="178"/>
      <point x="174" y="178" type="curve" smooth="yes"/>
      <point x="165" y="178"/>
      <point x="156" y="178"/>
      <point x="147" y="177" type="curve"/>
      <point x="146" y="177" type="line"/>
      <point x="143" y="180"/>
      <point x="142" y="183"/>
      <point x="142" y="187" type="curve" smooth="yes"/>
      <point x="142" y="199" type="line"/>
    </contour>
    <contour>
      <point x="288" y="-30" type="line"/>
      <point x="290" y="-15"/>
      <point x="296" y="58"/>
      <point x="296" y="86" type="curve" smooth="yes"/>
      <point x="296" y="109"/>
      <point x="287" y="106"/>
      <point x="276" y="109" type="curve"/>
      <point x="274" y="123" type="line"/>
      <point x="257" y="131"/>
      <point x="233" y="135"/>
      <point x="210" y="135" type="curve" name="hr03" smooth="yes"/>
      <point x="183" y="135"/>
      <point x="153" y="132"/>
      <point x="132" y="123" type="curve"/>
      <point x="132" y="107"/>
      <point x="130" y="80"/>
      <point x="130" y="52" type="curve" smooth="yes"/>
      <point x="130" y="31"/>
      <point x="131" y="10"/>
      <point x="134" y="-9" type="curve" name="hr04"/>
      <point x="151" y="-9" type="line"/>
      <point x="152" y="-16"/>
      <point x="153" y="-22"/>
      <point x="154" y="-29" type="curve" name="hr05"/>
    </contour>
    <contour>
      <point x="146" y="0" type="line" name="hr06"/>
      <point x="143" y="1" type="line"/>
      <point x="140" y="12"/>
      <point x="140" y="28"/>
      <point x="140" y="47" type="curve" smooth="yes"/>
      <point x="140" y="75"/>
      <point x="142" y="105"/>
      <point x="142" y="117" type="curve"/>
      <point x="157" y="124"/>
      <point x="183" y="125"/>
      <point x="210" y="125" type="curve" smooth="yes"/>
      <point x="235" y="125"/>
      <point x="258" y="123"/>
      <point x="267" y="119" type="curve"/>
      <point x="267" y="117"/>
      <point x="261" y="21"/>
      <point x="261" y="2" type="curve" smooth="yes"/>
      <point x="261" y="0" type="line"/>
      <point x="259" y="0" type="line"/>
    </contour>
  </outline>
</glyph>
<glyph name="at" format="1">
  <advance width="564"/>
  <unicode hex="0040"/>
  <outline>
    <contour>
      <point x="477" y="609" type="curve" name="hr01" smooth="yes"/>
      <point x="421" y="660"/>
      <point x="352" y="669"/>
      <point x="280" y="669" type="curve" smooth="yes"/>
      <point x="263" y="669"/>
      <point x="242" y="669"/>
      <point x="227" y="666" type="curve"/>
      <point x="228" y="666" type="line"/>
      <point x="169" y="658"/>
      <point x="114" y="645"/>
      <point x="75" y="596" type="curve" smooth="yes"/>
      <point x="31" y="539"/>
      <point x="23" y="473"/>
      <point x="23" y="406" type="curve" smooth="yes"/>
      <point x="23" y="376" type="line" smooth="yes"/>
      <point x="23" y="270"/>
      <point x="14" y="92"/>
      <point x="110" y="17" type="curve"/>
      <point x="158" y="-41"/>
      <point x="230" y="-53"/>
      <point x="313" y="-53" type="curve" smooth="yes"/>
      <point x="397" y="-53"/>
      <point x="472" y="-40"/>
      <point x="563" y="19" type="curve"/>
      <point x="518" y="117" type="line"/>
      <point x="515" y="114"/>
      <point x="512" y="115"/>
      <point x="509" y="112" type="curve"/>
      <point x="498" y="137" type="line"/>
      <point x="556" y="163"/>
      <point x="563" y="220"/>
      <point x="563" y="306" type="curve" smooth="yes"/>
      <point x="563" y="360" type="line" smooth="yes"/>
      <point x="563" y="435"/>
      <point x="559" y="530"/>
      <point x="497" y="589" type="curve" smooth="yes"/>
      <point x="489" y="596"/>
      <point x="484" y="602"/>
    </contour>
    <contour>
      <point x="395" y="462" type="line"/>
      <point x="402" y="454"/>
      <point x="405" y="444"/>
      <point x="405" y="432" type="curve" smooth="yes"/>
      <point x="405" y="417"/>
      <point x="403" y="394"/>
      <point x="403" y="371" type="curve" smooth="yes"/>
      <point x="403" y="341" type="line" smooth="yes"/>
      <point x="403" y="290"/>
      <point x="407" y="240"/>
      <point x="424" y="237" type="curve"/>
      <point x="442" y="250"/>
      <point x="440" y="342"/>
      <point x="440" y="339" type="curve" smooth="yes"/>
      <point x="441" y="354"/>
      <point x="439" y="365"/>
      <point x="439" y="380" type="curve" smooth="yes"/>
      <point x="439" y="408" type="line"/>
      <point x="436" y="465"/>
      <point x="421" y="524"/>
      <point x="368" y="555" type="curve"/>
      <point x="369" y="555" type="line"/>
      <point x="341" y="568"/>
      <point x="295" y="574"/>
      <point x="270" y="574" type="curve" name="hr02" smooth="yes"/>
      <point x="136" y="574"/>
      <point x="126" y="445"/>
      <point x="126" y="349" type="curve" smooth="yes"/>
      <point x="126" y="327" type="line" smooth="yes"/>
      <point x="126" y="151"/>
      <point x="151" y="69"/>
      <point x="292" y="69" type="curve" smooth="yes"/>
      <point x="340" y="69"/>
      <point x="429" y="92"/>
      <point x="493" y="124" type="curve"/>
      <point x="531" y="42" type="line"/>
      <point x="451" y="-9"/>
      <point x="376" y="-23"/>
      <point x="293" y="-23" type="curve" smooth="yes"/>
      <point x="209" y="-23"/>
      <point x="137" y="-11"/>
      <point x="90" y="53" type="curve" smooth="yes"/>
      <point x="65" y="88"/>
      <point x="43" y="157"/>
      <point x="40" y="195" type="curve" smooth="yes"/>
      <point x="35" y="263"/>
      <point x="33" y="312"/>
      <point x="33" y="376" type="curve" smooth="yes"/>
      <point x="33" y="406" type="line" smooth="yes"/>
      <point x="33" y="470"/>
      <point x="40" y="534"/>
      <point x="83" y="590" type="curve" smooth="yes"/>
      <point x="128" y="649"/>
      <point x="211" y="659"/>
      <point x="280" y="659" type="curve" smooth="yes"/>
      <point x="512" y="659"/>
      <point x="533" y="516"/>
      <point x="533" y="380" type="curve" smooth="yes"/>
      <point x="533" y="326" type="line" smooth="yes"/>
      <point x="533" y="223"/>
      <point x="517" y="154"/>
      <point x="418" y="154" type="curve" smooth="yes"/>
      <point x="403" y="154"/>
      <point x="389" y="160"/>
      <point x="377" y="167" type="curve"/>
      <point x="369" y="174" type="line"/>
      <point x="366" y="178"/>
      <point x="362" y="182"/>
      <point x="359" y="187" type="curve"/>
      <point x="337" y="169"/>
      <point x="310" y="160"/>
      <point x="278" y="160" type="curve" smooth="yes"/>
      <point x="191" y="160"/>
      <point x="164" y="232"/>
      <point x="164" y="303" type="curve" smooth="yes"/>
      <point x="164" y="382"/>
      <point x="209" y="479"/>
      <point x="333" y="479" type="curve" smooth="yes"/>
      <point x="354" y="479"/>
      <point x="375" y="475"/>
      <point x="392" y="464" type="curve" smooth="yes"/>
    </contour>
    <contour>
      <point x="417" y="452" type="line"/>
      <point x="410" y="455"/>
      <point x="405" y="465"/>
      <point x="400" y="472" type="curve"/>
      <point x="397" y="472" type="line"/>
      <point x="378" y="485"/>
      <point x="356" y="489"/>
      <point x="333" y="489" type="curve" name="hr03" smooth="yes"/>
      <point x="277" y="489"/>
      <point x="221" y="461"/>
      <point x="198" y="432" type="curve"/>
      <point x="198" y="433" type="line"/>
      <point x="175" y="407"/>
      <point x="161" y="377"/>
      <point x="156" y="342" type="curve"/>
      <point x="156" y="438"/>
      <point x="173" y="544"/>
      <point x="290" y="544" type="curve" smooth="yes"/>
      <point x="312" y="544"/>
      <point x="360" y="537"/>
      <point x="385" y="526" type="curve"/>
      <point x="384" y="526" type="line"/>
      <point x="411" y="506"/>
      <point x="419" y="478"/>
      <point x="424" y="446" type="curve" smooth="yes"/>
      <point x="423" y="449"/>
      <point x="421" y="449"/>
      <point x="420" y="452" type="curve"/>
    </contour>
    <contour>
      <point x="185" y="189" type="curve" smooth="yes"/>
      <point x="190" y="182"/>
      <point x="195" y="179"/>
      <point x="200" y="174" type="curve" smooth="yes"/>
      <point x="205" y="169" type="line" smooth="yes"/>
      <point x="229" y="143"/>
      <point x="260" y="130"/>
      <point x="298" y="130" type="curve" smooth="yes"/>
      <point x="329" y="130"/>
      <point x="356" y="138"/>
      <point x="377" y="153" type="curve"/>
      <point x="392" y="134"/>
      <point x="413" y="124"/>
      <point x="438" y="124" type="curve" smooth="yes"/>
      <point x="459" y="124"/>
      <point x="481" y="128"/>
      <point x="498" y="137" type="curve" smooth="yes"/>
      <point x="448" y="111"/>
      <point x="368" y="83"/>
      <point x="320" y="80" type="curve"/>
      <point x="309" y="80" type="line" smooth="yes"/>
      <point x="304" y="80"/>
      <point x="299" y="79"/>
      <point x="292" y="79" type="curve" smooth="yes"/>
      <point x="260" y="79"/>
      <point x="222" y="82"/>
      <point x="198" y="97" type="curve"/>
      <point x="198" y="96" type="line"/>
      <point x="170" y="109"/>
      <point x="160" y="199"/>
      <point x="157" y="252" type="curve"/>
      <point x="161" y="228"/>
      <point x="170" y="206"/>
    </contour>
    <contour>
      <point x="249" y="286" type="line" smooth="yes"/>
      <point x="249" y="267"/>
      <point x="261" y="254"/>
      <point x="277" y="254" type="curve" smooth="yes"/>
      <point x="325" y="254"/>
      <point x="323" y="337"/>
      <point x="323" y="382" type="curve"/>
      <point x="316" y="383"/>
      <point x="312" y="383"/>
      <point x="307" y="383" type="curve" name="hr04" smooth="yes"/>
      <point x="254" y="383"/>
      <point x="249" y="323"/>
      <point x="249" y="289" type="curve" smooth="yes"/>
    </contour>
    <contour>
      <point x="279" y="273" type="line" smooth="yes"/>
      <point x="279" y="305"/>
      <point x="284" y="341"/>
      <point x="311" y="350" type="curve"/>
      <point x="306" y="319"/>
      <point x="316" y="264"/>
      <point x="279" y="264" type="curve"/>
    </contour>
  </outline>
</glyph>
<glyph name="B" format="1">
  <advance width="477"/>
  <unicode hex="0042"/>
  <outline>
    <contour>
      <point x="423" y="318" type="line" name="hr01"/>
      <point x="420" y="321"/>
      <point x="419" y="323"/>
      <point x="419" y="325" type="curve" smooth="yes"/>
      <point x="419" y="327" type="line"/>
      <point x="446" y="374"/>
      <point x="469" y="429"/>
      <point x="469" y="488" type="curve" smooth="yes"/>
      <point x="469" y="655"/>
      <point x="335" y="725"/>
      <point x="196" y="725" type="curve" smooth="yes"/>
      <point x="140" y="725"/>
      <point x="83" y="716"/>
      <point x="32" y="701" type="curve"/>
      <point x="32" y="565" type="line" smooth="yes"/>
      <point x="32" y="453"/>
      <point x="30" y="346"/>
      <point x="30" y="235" type="curve" smooth="yes"/>
      <point x="30" y="158"/>
      <point x="31" y="76"/>
      <point x="34" y="-3" type="curve"/>
      <point x="43" y="-6"/>
      <point x="49" y="-7"/>
      <point x="53" y="-8" type="curve"/>
      <point x="53" y="-33"/>
      <point x="77" y="-28"/>
      <point x="81" y="-28" type="curve" smooth="yes"/>
      <point x="85" y="-28" type="line" smooth="yes"/>
      <point x="104" y="-29"/>
      <point x="126" y="-30"/>
      <point x="147" y="-31" type="curve"/>
      <point x="146" y="-31" type="line"/>
      <point x="177" y="-34"/>
      <point x="211" y="-35"/>
      <point x="243" y="-35" type="curve" smooth="yes"/>
      <point x="364" y="-35"/>
      <point x="496" y="-7"/>
      <point x="496" y="161" type="curve" name="hr02" smooth="yes"/>
      <point x="496" y="229"/>
      <point x="460" y="272"/>
      <point x="423" y="317" type="curve"/>
    </contour>
    <contour>
      <point x="395" y="331" type="curve" smooth="yes"/>
      <point x="431" y="287"/>
      <point x="466" y="245"/>
      <point x="466" y="181" type="curve" smooth="yes"/>
      <point x="466" y="21"/>
      <point x="340" y="-5"/>
      <point x="223" y="-5" type="curve" smooth="yes"/>
      <point x="168" y="-5"/>
      <point x="113" y="1"/>
      <point x="66" y="2" type="curve" smooth="yes"/>
      <point x="54" y="2" type="line" smooth="yes"/>
      <point x="51" y="2"/>
      <point x="48" y="3"/>
      <point x="44" y="4" type="curve"/>
      <point x="41" y="81"/>
      <point x="40" y="157"/>
      <point x="40" y="233" type="curve" smooth="yes"/>
      <point x="40" y="341"/>
      <point x="42" y="445"/>
      <point x="42" y="553" type="curve" smooth="yes"/>
      <point x="42" y="600"/>
      <point x="42" y="645"/>
      <point x="41" y="692" type="curve"/>
      <point x="42" y="693" type="line"/>
      <point x="89" y="706"/>
      <point x="144" y="715"/>
      <point x="196" y="715" type="curve" smooth="yes"/>
      <point x="321" y="715"/>
      <point x="439" y="664"/>
      <point x="439" y="508" type="curve" name="hr03" smooth="yes"/>
      <point x="439" y="452"/>
      <point x="417" y="397"/>
      <point x="390" y="352" type="curve" smooth="yes"/>
      <point x="388" y="349"/>
      <point x="387" y="346"/>
      <point x="387" y="344" type="curve" smooth="yes"/>
      <point x="387" y="341"/>
      <point x="390" y="336"/>
    </contour>
    <contour>
      <point x="301" y="165" type="curve" name="hr04" smooth="yes"/>
      <point x="308" y="174"/>
      <point x="311" y="186"/>
      <point x="311" y="201" type="curve" name="hr05" smooth="yes"/>
      <point x="311" y="288"/>
      <point x="230" y="276"/>
      <point x="183" y="281" type="curve"/>
      <point x="176" y="260"/>
      <point x="172" y="229"/>
      <point x="172" y="201" type="curve" smooth="yes"/>
      <point x="172" y="178"/>
      <point x="175" y="156"/>
      <point x="186" y="141" type="curve"/>
      <point x="188" y="140" type="line"/>
      <point x="199" y="140"/>
      <point x="212" y="139"/>
      <point x="224" y="139" type="curve" smooth="yes"/>
      <point x="253" y="139"/>
      <point x="282" y="142"/>
    </contour>
    <contour>
      <point x="300" y="450" type="curve" smooth="yes"/>
      <point x="307" y="461"/>
      <point x="313" y="476"/>
      <point x="313" y="491" type="curve" smooth="yes"/>
      <point x="313" y="541"/>
      <point x="253" y="551"/>
      <point x="217" y="551" type="curve" smooth="yes"/>
      <point x="202" y="551"/>
      <point x="189" y="549"/>
      <point x="180" y="544" type="curve"/>
      <point x="180" y="531" type="line" smooth="yes"/>
      <point x="180" y="514"/>
      <point x="178" y="494"/>
      <point x="178" y="471" type="curve" smooth="yes"/>
      <point x="178" y="455"/>
      <point x="179" y="437"/>
      <point x="184" y="420" type="curve"/>
      <point x="197" y="418"/>
      <point x="211" y="417"/>
      <point x="227" y="417" type="curve" smooth="yes"/>
      <point x="258" y="417"/>
      <point x="285" y="423"/>
    </contour>
    <contour>
      <point x="293" y="171" type="curve" smooth="yes"/>
      <point x="277" y="152"/>
      <point x="252" y="149"/>
      <point x="225" y="149" type="curve" smooth="yes"/>
      <point x="198" y="149"/>
      <point x="202" y="160"/>
      <point x="202" y="181" type="curve" smooth="yes"/>
      <point x="202" y="204"/>
      <point x="207" y="230"/>
      <point x="211" y="250" type="curve"/>
      <point x="236" y="246"/>
      <point x="267" y="252"/>
      <point x="294" y="236" type="curve" smooth="yes"/>
      <point x="295" y="235" type="line"/>
      <point x="295" y="236" type="line"/>
      <point x="298" y="225"/>
      <point x="301" y="214"/>
      <point x="301" y="201" type="curve" smooth="yes"/>
      <point x="301" y="188"/>
      <point x="298" y="178"/>
    </contour>
    <contour>
      <point x="291" y="455" type="curve"/>
      <point x="279" y="432"/>
      <point x="254" y="427"/>
      <point x="227" y="427" type="curve" smooth="yes"/>
      <point x="209" y="427" type="line"/>
      <point x="209" y="430"/>
      <point x="208" y="430"/>
      <point x="208" y="433" type="curve" smooth="yes"/>
      <point x="208" y="457"/>
      <point x="211" y="488"/>
      <point x="211" y="508" type="curve" smooth="yes"/>
      <point x="211" y="518" type="line"/>
      <point x="219" y="521"/>
      <point x="226" y="521"/>
      <point x="237" y="521" type="curve" name="hr07" smooth="yes"/>
      <point x="250" y="521"/>
      <point x="264" y="520"/>
      <point x="279" y="517" type="curve" name="hr08"/>
      <point x="278" y="517" type="line"/>
      <point x="293" y="513"/>
      <point x="303" y="508"/>
      <point x="303" y="491" type="curve" smooth="yes"/>
      <point x="303" y="478"/>
      <point x="298" y="466"/>
    </contour>
  </outline>
</glyph>
<glyph name="D" format="1">
  <advance width="482"/>
  <unicode hex="0044"/>
  <outline>
    <contour>
      <point x="422" y="602" type="line" name="hr01"/>
      <point x="397" y="646"/>
      <point x="340" y="695"/>
      <point x="285" y="711" type="curve"/>
      <point x="272" y="710"/>
      <point x="259" y="710"/>
      <point x="246" y="710" type="curve" smooth="yes"/>
      <point x="215" y="710"/>
      <point x="184" y="712"/>
      <point x="153" y="712" type="curve" smooth="yes"/>
      <point x="114" y="712"/>
      <point x="77" y="711"/>
      <point x="38" y="700" type="curve"/>
      <point x="34" y="696"/>
      <point x="32" y="693"/>
      <point x="31" y="690" type="curve" smooth="yes"/>
      <point x="30" y="689"/>
      <point x="30" y="688"/>
      <point x="30" y="687" type="curve" smooth="yes"/>
      <point x="31" y="655"/>
      <point x="31" y="623"/>
      <point x="31" y="590" type="curve" smooth="yes"/>
      <point x="31" y="498"/>
      <point x="29" y="413"/>
      <point x="29" y="326" type="curve" smooth="yes"/>
      <point x="29" y="210"/>
      <point x="32" y="100"/>
      <point x="47" y="-9" type="curve"/>
      <point x="52" y="-9"/>
      <point x="57" y="-8"/>
      <point x="64" y="-8" type="curve"/>
      <point x="67" y="-29" type="line"/>
      <point x="152" y="-28"/>
      <point x="257" y="-28"/>
      <point x="345" y="-25" type="curve" name="hr02"/>
      <point x="397" y="40"/>
      <point x="447" y="112"/>
      <point x="478" y="200" type="curve"/>
      <point x="490" y="256"/>
      <point x="488" y="325"/>
      <point x="492" y="386" type="curve"/>
      <point x="491" y="407"/>
      <point x="490" y="429"/>
      <point x="482" y="453" type="curve" smooth="yes"/>
      <point x="483" y="452" type="line"/>
      <point x="471" y="505"/>
      <point x="452" y="555"/>
      <point x="421" y="602" type="curve"/>
    </contour>
    <contour>
      <point x="393" y="617" type="curve" smooth="yes"/>
      <point x="432" y="556"/>
      <point x="458" y="479"/>
      <point x="462" y="407" type="curve"/>
      <point x="459" y="343"/>
      <point x="460" y="280"/>
      <point x="448" y="219" type="curve" smooth="yes"/>
      <point x="447" y="217" type="line" smooth="yes"/>
      <point x="420" y="137"/>
      <point x="371" y="69"/>
      <point x="320" y="5" type="curve"/>
      <point x="232" y="2"/>
      <point x="141" y="2"/>
      <point x="57" y="2" type="curve"/>
      <point x="56" y="1" type="line"/>
      <point x="41" y="102"/>
      <point x="39" y="210"/>
      <point x="39" y="322" type="curve" smooth="yes"/>
      <point x="39" y="411"/>
      <point x="41" y="500"/>
      <point x="41" y="591" type="curve" smooth="yes"/>
      <point x="41" y="623"/>
      <point x="41" y="655"/>
      <point x="40" y="687" type="curve"/>
      <point x="41" y="688"/>
      <point x="42" y="690"/>
      <point x="43" y="691" type="curve"/>
      <point x="79" y="700"/>
      <point x="117" y="702"/>
      <point x="156" y="702" type="curve" smooth="yes"/>
      <point x="189" y="702"/>
      <point x="223" y="700"/>
      <point x="255" y="700" type="curve" smooth="yes"/>
      <point x="266" y="700"/>
      <point x="273" y="701"/>
      <point x="284" y="701" type="curve"/>
      <point x="327" y="690"/>
      <point x="369" y="656"/>
    </contour>
    <contour>
      <point x="301" y="254" type="curve" smooth="yes"/>
      <point x="318" y="281"/>
      <point x="329" y="308"/>
      <point x="329" y="343" type="curve" smooth="yes"/>
      <point x="329" y="403"/>
      <point x="312" y="488"/>
      <point x="223" y="488" type="curve" smooth="yes"/>
      <point x="210" y="488"/>
      <point x="197" y="487"/>
      <point x="185" y="485" type="curve" smooth="yes"/>
      <point x="182" y="485" type="line"/>
      <point x="182" y="481" type="line" smooth="yes"/>
      <point x="183" y="462"/>
      <point x="184" y="443"/>
      <point x="184" y="420" type="curve" smooth="yes"/>
      <point x="184" y="381"/>
      <point x="182" y="337"/>
      <point x="182" y="293" type="curve" smooth="yes"/>
      <point x="182" y="269"/>
      <point x="183" y="245"/>
      <point x="184" y="222" type="curve"/>
      <point x="192" y="215"/>
      <point x="204" y="213"/>
      <point x="217" y="213" type="curve" smooth="yes"/>
      <point x="229" y="213"/>
      <point x="241" y="214"/>
      <point x="252" y="216" type="curve" smooth="yes"/>
      <point x="254" y="216" type="line" smooth="yes"/>
      <point x="270" y="216"/>
      <point x="290" y="238"/>
    </contour>
    <contour>
      <point x="293" y="260" type="line"/>
      <point x="286" y="249"/>
      <point x="277" y="238"/>
      <point x="265" y="231" type="curve"/>
      <point x="266" y="231" type="line"/>
      <point x="262" y="228"/>
      <point x="258" y="225"/>
      <point x="255" y="225" type="curve" smooth="yes"/>
      <point x="254" y="225"/>
      <point x="254" y="226"/>
      <point x="253" y="226" type="curve" smooth="yes"/>
      <point x="242" y="225"/>
      <point x="233" y="223"/>
      <point x="217" y="223" type="curve" smooth="yes"/>
      <point x="212" y="223" type="line"/>
      <point x="212" y="228"/>
      <point x="211" y="234"/>
      <point x="211" y="239" type="curve" name="hr03" smooth="yes"/>
      <point x="211" y="290"/>
      <point x="214" y="342"/>
      <point x="214" y="393" type="curve" smooth="yes"/>
      <point x="214" y="413"/>
      <point x="213" y="437"/>
      <point x="212" y="456" type="curve"/>
      <point x="223" y="457"/>
      <point x="232" y="458"/>
      <point x="243" y="458" type="curve" smooth="yes"/>
      <point x="255" y="458"/>
      <point x="267" y="457"/>
      <point x="279" y="456" type="curve"/>
      <point x="289" y="451" type="line"/>
      <point x="308" y="418"/>
      <point x="319" y="370"/>
      <point x="319" y="343" type="curve" smooth="yes"/>
      <point x="319" y="311"/>
      <point x="309" y="283"/>
      <point x="293" y="259" type="curve"/>
    </contour>
  </outline>
</glyph>
<glyph name="F" format="1">
  <advance width="494"/>
  <unicode hex="0046"/>
  <outline>
    <contour>
      <point x="359" y="438" type="curve" name="hr01"/>
      <point x="328" y="434"/>
      <point x="290" y="433"/>
      <point x="258" y="433" type="curve" smooth="yes"/>
      <point x="239" y="433"/>
      <point x="244" y="442"/>
      <point x="244" y="454" type="curve" smooth="yes"/>
      <point x="244" y="465"/>
      <point x="247" y="478"/>
      <point x="250" y="489" type="curve"/>
      <point x="333" y="497"/>
      <point x="440" y="500"/>
      <point x="519" y="505" type="curve"/>
      <point x="520" y="520"/>
      <point x="522" y="550"/>
      <point x="522" y="573" type="curve" smooth="yes"/>
      <point x="522" y="608"/>
      <point x="520" y="645"/>
      <point x="520" y="670" type="curve"/>
      <point x="513" y="671"/>
      <point x="507" y="671"/>
      <point x="500" y="674" type="curve"/>
      <point x="500" y="690" type="line"/>
      <point x="449" y="702"/>
      <point x="381" y="707"/>
      <point x="309" y="707" type="curve" smooth="yes"/>
      <point x="198" y="707"/>
      <point x="75" y="697"/>
      <point x="33" y="689" type="curve"/>
      <point x="33" y="372"/>
      <point x="31" y="242"/>
      <point x="31" y="-3" type="curve"/>
      <point x="34" y="-6"/>
      <point x="41" y="-8"/>
      <point x="51" y="-10" type="curve"/>
      <point x="51" y="-23" type="line"/>
      <point x="62" y="-31"/>
      <point x="93" y="-33"/>
      <point x="129" y="-33" type="curve" smooth="yes"/>
      <point x="168" y="-33"/>
      <point x="211" y="-32"/>
      <point x="246" y="-28" type="curve"/>
      <point x="246" y="12" type="line" smooth="yes"/>
      <point x="246" y="79"/>
      <point x="248" y="146"/>
      <point x="253" y="218" type="curve"/>
      <point x="276" y="221"/>
      <point x="386" y="223"/>
      <point x="386" y="243" type="curve" smooth="yes"/>
      <point x="386" y="256"/>
      <point x="384" y="271"/>
      <point x="384" y="290" type="curve" smooth="yes"/>
      <point x="384" y="318"/>
      <point x="386" y="349"/>
      <point x="386" y="372" type="curve" smooth="yes"/>
      <point x="386" y="387"/>
      <point x="384" y="403"/>
      <point x="379" y="418" type="curve"/>
      <point x="374" y="417"/>
      <point x="369" y="417"/>
      <point x="364" y="416" type="curve"/>
      <point x="363" y="424"/>
      <point x="362" y="431"/>
    </contour>
    <contour>
      <point x="353" y="261" type="curve" smooth="yes"/>
      <point x="312" y="254"/>
      <point x="265" y="253"/>
      <point x="225" y="246" type="curve"/>
      <point x="224" y="246" type="line"/>
      <point x="217" y="162"/>
      <point x="217" y="77"/>
      <point x="216" y="1" type="curve" name="hr02"/>
      <point x="189" y="-2"/>
      <point x="145" y="-3"/>
      <point x="109" y="-3" type="curve" smooth="yes"/>
      <point x="74" y="-3"/>
      <point x="47" y="-2"/>
      <point x="42" y="1" type="curve"/>
      <point x="41" y="114" type="line"/>
      <point x="41" y="256"/>
      <point x="43" y="367"/>
      <point x="43" y="537" type="curve" smooth="yes"/>
      <point x="43" y="680" type="line"/>
      <point x="85" y="688"/>
      <point x="200" y="697"/>
      <point x="309" y="697" type="curve" smooth="yes"/>
      <point x="380" y="697"/>
      <point x="446" y="693"/>
      <point x="490" y="682" type="curve"/>
      <point x="490" y="665"/>
      <point x="491" y="636"/>
      <point x="491" y="607" type="curve" smooth="yes"/>
      <point x="491" y="566" type="line" smooth="yes"/>
      <point x="491" y="553"/>
      <point x="491" y="543"/>
      <point x="490" y="534" type="curve"/>
      <point x="418" y="529"/>
      <point x="306" y="526"/>
      <point x="223" y="518" type="curve"/>
      <point x="216" y="503"/>
      <point x="214" y="489"/>
      <point x="214" y="474" type="curve" smooth="yes"/>
      <point x="214" y="420"/>
      <point x="232" y="424"/>
      <point x="285" y="424" type="curve" smooth="yes"/>
      <point x="312" y="424"/>
      <point x="336" y="424"/>
      <point x="353" y="427" type="curve"/>
      <point x="355" y="421"/>
      <point x="356" y="409"/>
      <point x="356" y="390" type="curve" smooth="yes"/>
      <point x="356" y="363"/>
      <point x="354" y="331"/>
      <point x="354" y="300" type="curve" smooth="yes"/>
      <point x="354" y="285"/>
      <point x="355" y="274"/>
      <point x="356" y="263" type="curve"/>
      <point x="356" y="262"/>
      <point x="355" y="261"/>
    </contour>
  </outline>
</glyph>
<glyph name="I" format="1">
  <advance width="260"/>
  <unicode hex="0049"/>
  <outline>
    <contour>
      <point x="198" y="713" type="line" name="hr01"/>
      <point x="174" y="713" type="line" smooth="yes"/>
      <point x="115" y="713"/>
      <point x="113" y="718"/>
      <point x="56" y="718" type="curve" smooth="yes"/>
      <point x="49" y="718"/>
      <point x="45" y="717"/>
      <point x="38" y="716" type="curve"/>
      <point x="31" y="644"/>
      <point x="28" y="579"/>
      <point x="28" y="515" type="curve" smooth="yes"/>
      <point x="28" y="399"/>
      <point x="35" y="285"/>
      <point x="35" y="170" type="curve" smooth="yes"/>
      <point x="35" y="111"/>
      <point x="32" y="41"/>
      <point x="28" y="-18" type="curve"/>
      <point x="36" y="-15"/>
      <point x="42" y="-15"/>
      <point x="49" y="-14" type="curve"/>
      <point x="49" y="-22"/>
      <point x="48" y="-30"/>
      <point x="48" y="-38" type="curve"/>
      <point x="65" y="-34"/>
      <point x="78" y="-33"/>
      <point x="91" y="-33" type="curve" smooth="yes" name="hr02"/>
      <point x="118" y="-33"/>
      <point x="149" y="-35"/>
      <point x="178" y="-35" type="curve" smooth="yes"/>
      <point x="209" y="-35"/>
      <point x="238" y="-32"/>
      <point x="251" y="-19" type="curve"/>
      <point x="247" y="50"/>
      <point x="245" y="123"/>
      <point x="245" y="194" type="curve" smooth="yes"/>
      <point x="245" y="359"/>
      <point x="252" y="519"/>
      <point x="252" y="679" type="curve" smooth="yes"/>
      <point x="252" y="693" type="line"/>
      <point x="232" y="693" type="line"/>
      <point x="232" y="713" type="line"/>
    </contour>
    <contour>
      <point x="222" y="703" type="line"/>
      <point x="222" y="699" type="line" smooth="yes"/>
      <point x="222" y="542"/>
      <point x="215" y="383"/>
      <point x="215" y="223" type="curve" smooth="yes"/>
      <point x="215" y="150"/>
      <point x="217" y="77"/>
      <point x="221" y="5" type="curve"/>
      <point x="213" y="-3"/>
      <point x="189" y="-6"/>
      <point x="162" y="-6" type="curve" smooth="yes"/>
      <point x="127" y="-6"/>
      <point x="89" y="-2"/>
      <point x="62" y="-2" type="curve" smooth="yes"/>
      <point x="53" y="-2"/>
      <point x="46" y="-3"/>
      <point x="39" y="-4" type="curve"/>
      <point x="43" y="52"/>
      <point x="45" y="108"/>
      <point x="45" y="164" type="curve" smooth="yes"/>
      <point x="45" y="284"/>
      <point x="38" y="400"/>
      <point x="38" y="516" type="curve" smooth="yes"/>
      <point x="38" y="580"/>
      <point x="40" y="643"/>
      <point x="47" y="706" type="curve" smooth="yes"/>
      <point x="47" y="708" type="line"/>
      <point x="51" y="708" type="line" smooth="yes"/>
      <point x="93" y="708"/>
      <point x="106" y="703"/>
      <point x="175" y="703" type="curve" smooth="yes"/>
      <point x="198" y="703" type="line"/>
    </contour>
  </outline>
</glyph>
<glyph name="J" format="1">
  <advance width="463"/>
  <unicode hex="004A"/>
  <outline>
    <contour>
      <point x="269" y="720" type="line" name="hr01"/>
      <point x="269" y="703" type="line" smooth="yes"/>
      <point x="269" y="640"/>
      <point x="263" y="580"/>
      <point x="266" y="519" type="curve"/>
      <point x="266" y="427"/>
      <point x="267" y="324"/>
      <point x="270" y="236" type="curve"/>
      <point x="267" y="205"/>
      <point x="256" y="175"/>
      <point x="229" y="175" type="curve" smooth="yes"/>
      <point x="192" y="175"/>
      <point x="192" y="228"/>
      <point x="189" y="260" type="curve"/>
      <point x="189" y="274" type="line"/>
      <point x="182" y="275"/>
      <point x="176" y="276"/>
      <point x="169" y="277" type="curve"/>
      <point x="169" y="294" type="line"/>
      <point x="138" y="301"/>
      <point x="102" y="303"/>
      <point x="67" y="303" type="curve" smooth="yes" name="hr02"/>
      <point x="42" y="303"/>
      <point x="17" y="303"/>
      <point x="-6" y="296" type="curve"/>
      <point x="-6" y="285"/>
      <point x="-7" y="269"/>
      <point x="-7" y="258" type="curve" smooth="yes"/>
      <point x="-7" y="114"/>
      <point x="42" y="-38"/>
      <point x="220" y="-38" type="curve" smooth="yes"/>
      <point x="260" y="-38"/>
      <point x="302" y="-32"/>
      <point x="337" y="-13" type="curve"/>
      <point x="336" y="-13" type="line"/>
      <point x="452" y="30"/>
      <point x="455" y="160"/>
      <point x="458" y="268" type="curve"/>
      <point x="458" y="301"/>
      <point x="460" y="333"/>
      <point x="460" y="366" type="curve" smooth="yes"/>
      <point x="460" y="462"/>
      <point x="455" y="553"/>
      <point x="455" y="642" type="curve" smooth="yes"/>
      <point x="455" y="702" type="line"/>
      <point x="435" y="702" type="line"/>
      <point x="435" y="722" type="line"/>
    </contour>
    <contour>
      <point x="425" y="712" type="line" name="hr03"/>
      <point x="424" y="695"/>
      <point x="424" y="679"/>
      <point x="424" y="662" type="curve" smooth="yes" name="hr04"/>
      <point x="424" y="569"/>
      <point x="429" y="476"/>
      <point x="429" y="380" type="curve" smooth="yes"/>
      <point x="429" y="363"/>
      <point x="430" y="346"/>
      <point x="429" y="329" type="curve" smooth="yes"/>
      <point x="424" y="220"/>
      <point x="437" y="62"/>
      <point x="313" y="16" type="curve"/>
      <point x="278" y="-1"/>
      <point x="239" y="-8"/>
      <point x="200" y="-8" type="curve" smooth="yes"/>
      <point x="175" y="-8"/>
      <point x="151" y="-5"/>
      <point x="126" y="0" type="curve"/>
      <point x="27" y="29"/>
      <point x="3" y="157"/>
      <point x="3" y="257" type="curve" smooth="yes"/>
      <point x="3" y="268"/>
      <point x="3" y="277"/>
      <point x="4" y="288" type="curve"/>
      <point x="20" y="291"/>
      <point x="42" y="293"/>
      <point x="67" y="293" type="curve" smooth="yes"/>
      <point x="98" y="293"/>
      <point x="132" y="290"/>
      <point x="159" y="286" type="curve"/>
      <point x="159" y="280" type="line" smooth="yes"/>
      <point x="162" y="232"/>
      <point x="172" y="165"/>
      <point x="229" y="165" type="curve" smooth="yes"/>
      <point x="262" y="165"/>
      <point x="277" y="200"/>
      <point x="280" y="236" type="curve"/>
      <point x="277" y="328"/>
      <point x="276" y="422"/>
      <point x="276" y="519" type="curve" smooth="yes"/>
      <point x="276" y="580"/>
      <point x="277" y="641"/>
      <point x="279" y="703" type="curve" smooth="yes"/>
      <point x="279" y="710" type="line"/>
    </contour>
  </outline>
</glyph>
<glyph name="K" format="1">
  <advance width="459"/>
  <unicode hex="004B"/>
  <outline>
    <contour>
      <point x="323" y="340" type="line" name="hr01"/>
      <point x="368" y="444"/>
      <point x="455" y="553"/>
      <point x="495" y="683" type="curve"/>
      <point x="486" y="684"/>
      <point x="477" y="685"/>
      <point x="469" y="686" type="curve"/>
      <point x="472" y="693"/>
      <point x="472" y="696"/>
      <point x="475" y="703" type="curve"/>
      <point x="448" y="707"/>
      <point x="427" y="708"/>
      <point x="406" y="708" type="curve" smooth="yes"/>
      <point x="383" y="708"/>
      <point x="364" y="707"/>
      <point x="340" y="707" type="curve" smooth="yes"/>
      <point x="333" y="707"/>
      <point x="328" y="708"/>
      <point x="321" y="708" type="curve"/>
      <point x="268" y="634"/>
      <point x="245" y="578"/>
      <point x="210" y="516" type="curve"/>
      <point x="210" y="557" type="line" smooth="yes"/>
      <point x="210" y="598"/>
      <point x="210" y="648"/>
      <point x="209" y="687" type="curve"/>
      <point x="189" y="687" type="line"/>
      <point x="189" y="707" type="line"/>
      <point x="146" y="707"/>
      <point x="106" y="709"/>
      <point x="59" y="709" type="curve" name="hr02" smooth="yes"/>
      <point x="35" y="709" type="line"/>
      <point x="35" y="534"/>
      <point x="29" y="367"/>
      <point x="29" y="200" type="curve" smooth="yes"/>
      <point x="29" y="135"/>
      <point x="30" y="62"/>
      <point x="33" y="-3" type="curve"/>
      <point x="46" y="-6"/>
      <point x="49" y="0"/>
      <point x="53" y="-23" type="curve"/>
      <point x="76" y="-28"/>
      <point x="109" y="-32"/>
      <point x="140" y="-32" type="curve" smooth="yes"/>
      <point x="168" y="-32"/>
      <point x="196" y="-30"/>
      <point x="219" y="-23" type="curve"/>
      <point x="219" y="37"/>
      <point x="215" y="114"/>
      <point x="215" y="182" type="curve"/>
      <point x="239" y="121"/>
      <point x="278" y="36"/>
      <point x="319" y="-8" type="curve"/>
      <point x="323" y="-8" type="line"/>
      <point x="328" y="-15"/>
      <point x="332" y="-21"/>
      <point x="339" y="-28" type="curve"/>
      <point x="370" y="-28"/>
      <point x="397" y="-31"/>
      <point x="428" y="-31" type="curve" name="hr03" smooth="yes"/>
      <point x="448" y="-31"/>
      <point x="469" y="-30"/>
      <point x="497" y="-23" type="curve"/>
    </contour>
    <contour>
      <point x="463" y="4" type="line"/>
      <point x="444" y="0"/>
      <point x="425" y="-1"/>
      <point x="406" y="-1" type="curve" name="hr04" smooth="yes"/>
      <point x="378" y="-1"/>
      <point x="349" y="1"/>
      <point x="324" y="2" type="curve"/>
      <point x="267" y="67"/>
      <point x="228" y="189"/>
      <point x="186" y="263" type="curve"/>
      <point x="185" y="247"/>
      <point x="185" y="231"/>
      <point x="185" y="214" type="curve" smooth="yes"/>
      <point x="185" y="145"/>
      <point x="189" y="65"/>
      <point x="189" y="5" type="curve"/>
      <point x="172" y="0"/>
      <point x="147" y="-2"/>
      <point x="120" y="-2" type="curve" smooth="yes"/>
      <point x="91" y="-2"/>
      <point x="62" y="1"/>
      <point x="43" y="5" type="curve"/>
      <point x="40" y="70"/>
      <point x="39" y="136"/>
      <point x="39" y="201" type="curve" smooth="yes"/>
      <point x="39" y="358"/>
      <point x="45" y="515"/>
      <point x="45" y="674" type="curve" smooth="yes"/>
      <point x="45" y="691"/>
      <point x="38" y="699"/>
      <point x="64" y="699" type="curve" smooth="yes"/>
      <point x="103" y="699"/>
      <point x="142" y="697"/>
      <point x="179" y="697" type="curve"/>
      <point x="180" y="673"/>
      <point x="180" y="648"/>
      <point x="180" y="623" type="curve" smooth="yes"/>
      <point x="180" y="531" type="line" smooth="yes"/>
      <point x="180" y="504"/>
      <point x="180" y="481"/>
      <point x="181" y="457" type="curve"/>
      <point x="182" y="458" type="line" smooth="yes"/>
      <point x="183" y="459"/>
      <point x="184" y="461"/>
      <point x="186" y="463" type="curve" smooth="yes"/>
      <point x="242" y="535"/>
      <point x="271" y="619"/>
      <point x="326" y="698" type="curve"/>
      <point x="334" y="697"/>
      <point x="343" y="697"/>
      <point x="352" y="697" type="curve" smooth="yes"/>
      <point x="372" y="697"/>
      <point x="392" y="698"/>
      <point x="413" y="698" type="curve" smooth="yes"/>
      <point x="430" y="698"/>
      <point x="446" y="697"/>
      <point x="462" y="695" type="curve"/>
      <point x="430" y="583"/>
      <point x="340" y="471"/>
      <point x="292" y="359" type="curve"/>
    </contour>
  </outline>
</glyph>
<glyph name="M" format="1">
  <advance width="501"/>
  <unicode hex="004D"/>
  <outline>
    <contour>
      <point x="489" y="298" type="line" name="hr01"/>
      <point x="489" y="297" type="line"/>
      <point x="492" y="328"/>
      <point x="491" y="359"/>
      <point x="491" y="390" type="curve" smooth="yes"/>
      <point x="491" y="462"/>
      <point x="489" y="529"/>
      <point x="489" y="601" type="curve" smooth="yes"/>
      <point x="489" y="626"/>
      <point x="489" y="662"/>
      <point x="490" y="687" type="curve"/>
      <point x="469" y="687" type="line"/>
      <point x="469" y="694"/>
      <point x="470" y="700"/>
      <point x="470" y="707" type="curve"/>
      <point x="431" y="707"/>
      <point x="368" y="702"/>
      <point x="332" y="702" type="curve" smooth="yes"/>
      <point x="321" y="702"/>
      <point x="315" y="703"/>
      <point x="308" y="704" type="curve"/>
      <point x="287" y="675"/>
      <point x="264" y="601"/>
      <point x="256" y="566" type="curve"/>
      <point x="243" y="600"/>
      <point x="227" y="656"/>
      <point x="205" y="681" type="curve"/>
      <point x="202" y="681"/>
      <point x="202" y="680"/>
      <point x="199" y="680" type="curve"/>
      <point x="194" y="688"/>
      <point x="190" y="694"/>
      <point x="185" y="701" type="curve"/>
      <point x="174" y="700"/>
      <point x="167" y="700"/>
      <point x="156" y="700" type="curve" smooth="yes"/>
      <point x="135" y="700"/>
      <point x="114" y="702"/>
      <point x="95" y="702" type="curve" smooth="yes"/>
      <point x="75" y="702"/>
      <point x="55" y="700"/>
      <point x="34" y="693" type="curve"/>
      <point x="31" y="436"/>
      <point x="31" y="268"/>
      <point x="31" y="165" type="curve" smooth="yes"/>
      <point x="31" y="47"/>
      <point x="31" y="10"/>
      <point x="34" y="2" type="curve" smooth="yes"/>
      <point x="38" y="-6"/>
      <point x="43" y="-10"/>
      <point x="48" y="-10" type="curve" smooth="yes"/>
      <point x="53" y="-10" type="line"/>
      <point x="53" y="-38"/>
      <point x="105" y="-32"/>
      <point x="136" y="-32" type="curve" smooth="yes"/>
      <point x="165" y="-32"/>
      <point x="193" y="-30"/>
      <point x="219" y="-26" type="curve"/>
      <point x="214" y="50"/>
      <point x="209" y="137"/>
      <point x="209" y="214" type="curve" smooth="yes"/>
      <point x="209" y="237"/>
      <point x="209" y="260"/>
      <point x="210" y="284" type="curve"/>
      <point x="222" y="256"/>
      <point x="235" y="234"/>
      <point x="246" y="233" type="curve"/>
      <point x="254" y="220"/>
      <point x="261" y="213"/>
      <point x="266" y="213" type="curve" smooth="yes"/>
      <point x="282" y="213"/>
      <point x="294" y="252"/>
      <point x="309" y="292" type="curve"/>
      <point x="312" y="212"/>
      <point x="309" y="86"/>
      <point x="314" y="-10" type="curve" name="hr02"/>
      <point x="318" y="-10"/>
      <point x="325" y="-9"/>
      <point x="333" y="-9" type="curve"/>
      <point x="333" y="-16"/>
      <point x="333" y="-23"/>
      <point x="334" y="-30" type="curve"/>
      <point x="361" y="-30"/>
      <point x="390" y="-28"/>
      <point x="422" y="-28" type="curve" smooth="yes"/>
      <point x="442" y="-28"/>
      <point x="465" y="-29"/>
      <point x="486" y="-32" type="curve"/>
    </contour>
    <contour>
      <point x="456" y="-1" type="line"/>
      <point x="445" y="0"/>
      <point x="435" y="1"/>
      <point x="423" y="1" type="curve" smooth="yes"/>
      <point x="387" y="1" type="line" smooth="yes"/>
      <point x="363" y="1"/>
      <point x="340" y="0"/>
      <point x="324" y="0" type="curve" name="hr03"/>
      <point x="319" y="114"/>
      <point x="323" y="277"/>
      <point x="310" y="389" type="curve"/>
      <point x="294" y="362"/>
      <point x="257" y="243"/>
      <point x="247" y="243" type="curve" smooth="yes"/>
      <point x="231" y="243"/>
      <point x="199" y="343"/>
      <point x="188" y="372" type="curve" smooth="yes"/>
      <point x="185" y="382" type="line"/>
      <point x="181" y="333"/>
      <point x="179" y="283"/>
      <point x="179" y="234" type="curve" smooth="yes"/>
      <point x="179" y="155"/>
      <point x="183" y="79"/>
      <point x="188" y="3" type="curve"/>
      <point x="168" y="0"/>
      <point x="146" y="-1"/>
      <point x="123" y="-1" type="curve" smooth="yes"/>
      <point x="96" y="-1"/>
      <point x="71" y="0"/>
      <point x="48" y="0" type="curve" smooth="yes"/>
      <point x="42" y="0"/>
      <point x="41" y="24"/>
      <point x="41" y="165" type="curve" smooth="yes"/>
      <point x="41" y="266"/>
      <point x="41" y="430"/>
      <point x="44" y="686" type="curve"/>
      <point x="57" y="690"/>
      <point x="74" y="691"/>
      <point x="93" y="691" type="curve" smooth="yes"/>
      <point x="109" y="691" type="line"/>
      <point x="145" y="690" type="line" smooth="yes"/>
      <point x="157" y="690"/>
      <point x="169" y="690"/>
      <point x="180" y="691" type="curve"/>
      <point x="181" y="691" type="line"/>
      <point x="202" y="667"/>
      <point x="236" y="537"/>
      <point x="253" y="537" type="curve"/>
      <point x="260" y="535"/>
      <point x="289" y="662"/>
      <point x="312" y="693" type="curve"/>
      <point x="314" y="692"/>
      <point x="319" y="692"/>
      <point x="328" y="692" type="curve" smooth="yes"/>
      <point x="359" y="692"/>
      <point x="425" y="697"/>
      <point x="460" y="697" type="curve"/>
      <point x="459" y="672"/>
      <point x="459" y="646"/>
      <point x="459" y="621" type="curve" smooth="yes"/>
      <point x="459" y="552"/>
      <point x="461" y="484"/>
      <point x="461" y="416" type="curve" smooth="yes"/>
      <point x="461" y="383"/>
      <point x="462" y="351"/>
      <point x="459" y="318" type="curve"/>
    </contour>
  </outline>
</glyph>
<glyph name="N" format="1">
  <advance width="498"/>
  <unicode hex="004E"/>
  <outline>
    <contour>
      <point x="444" y="-35" type="curve" name="hr01" smooth="yes"/>
      <point x="467" y="-35"/>
      <point x="479" y="-29"/>
      <point x="486" y="-28" type="curve"/>
      <point x="487" y="0" type="line" name="hr02" smooth="yes"/>
      <point x="487" y="13"/>
      <point x="486" y="27"/>
      <point x="486" y="40" type="curve" smooth="yes"/>
      <point x="486" y="134" type="line" smooth="yes"/>
      <point x="486" y="153"/>
      <point x="487" y="171"/>
      <point x="487" y="191" type="curve" smooth="yes"/>
      <point x="487" y="242"/>
      <point x="486" y="311"/>
      <point x="486" y="362" type="curve" smooth="yes"/>
      <point x="486" y="692" type="line"/>
      <point x="479" y="693"/>
      <point x="473" y="694"/>
      <point x="466" y="695" type="curve"/>
      <point x="466" y="712" type="line"/>
      <point x="441" y="717"/>
      <point x="417" y="720"/>
      <point x="390" y="720" type="curve" smooth="yes"/>
      <point x="361" y="720"/>
      <point x="333" y="718"/>
      <point x="308" y="713" type="curve"/>
      <point x="308" y="691" type="line" smooth="yes"/>
      <point x="308" y="664"/>
      <point x="305" y="639"/>
      <point x="306" y="615" type="curve"/>
      <point x="306" y="564"/>
      <point x="309" y="522"/>
      <point x="309" y="470" type="curve" smooth="yes"/>
      <point x="309" y="449" type="line"/>
      <point x="240" y="596"/>
      <point x="233" y="611"/>
      <point x="206" y="675" type="curve"/>
      <point x="203" y="680"/>
      <point x="190" y="679"/>
      <point x="186" y="695" type="curve" smooth="yes"/>
      <point x="183" y="707"/>
      <point x="112" y="714"/>
      <point x="93" y="714" type="curve" smooth="yes"/>
      <point x="77" y="714"/>
      <point x="59" y="713"/>
      <point x="39" y="708" type="curve"/>
      <point x="31" y="613"/>
      <point x="29" y="523"/>
      <point x="29" y="432" type="curve" smooth="yes"/>
      <point x="29" y="308"/>
      <point x="32" y="198"/>
      <point x="32" y="71" type="curve" smooth="yes"/>
      <point x="32" y="-9" type="line"/>
      <point x="52" y="-9" type="line"/>
      <point x="52" y="-29" type="line" name="hr03"/>
      <point x="87" y="-29"/>
      <point x="122" y="-35"/>
      <point x="158" y="-35" type="curve" name="hr04" smooth="yes"/>
      <point x="175" y="-35"/>
      <point x="191" y="-35"/>
      <point x="212" y="-28" type="curve"/>
      <point x="209" y="47"/>
      <point x="210" y="171"/>
      <point x="210" y="249" type="curve"/>
      <point x="238" y="173"/>
      <point x="283" y="86"/>
      <point x="326" y="-10" type="curve"/>
      <point x="337" y="-10" type="line"/>
      <point x="340" y="-17"/>
      <point x="343" y="-23"/>
      <point x="346" y="-30" type="curve"/>
      <point x="375" y="-30"/>
      <point x="413" y="-35"/>
    </contour>
    <contour>
      <point x="424" y="-5" type="curve" name="hr05" smooth="yes"/>
      <point x="397" y="-5"/>
      <point x="359" y="0"/>
      <point x="332" y="0" type="curve" name="hr06"/>
      <point x="288" y="100"/>
      <point x="242" y="192"/>
      <point x="211" y="277" type="curve"/>
      <point x="201" y="307" type="line" smooth="yes"/>
      <point x="196" y="322"/>
      <point x="191" y="337"/>
      <point x="188" y="337" type="curve" smooth="yes"/>
      <point x="184" y="337"/>
      <point x="181" y="195"/>
      <point x="181" y="83" type="curve" smooth="yes"/>
      <point x="181" y="38" type="line" smooth="yes"/>
      <point x="181" y="23"/>
      <point x="181" y="11"/>
      <point x="182" y="0" type="curve"/>
      <point x="167" y="-4"/>
      <point x="153" y="-5"/>
      <point x="138" y="-5" type="curve" name="hr07" smooth="yes"/>
      <point x="106" y="-5"/>
      <point x="73" y="1"/>
      <point x="42" y="1" type="curve"/>
      <point x="42" y="71" type="line" smooth="yes"/>
      <point x="42" y="198"/>
      <point x="39" y="307"/>
      <point x="39" y="432" type="curve" smooth="yes"/>
      <point x="39" y="524"/>
      <point x="41" y="615"/>
      <point x="48" y="700" type="curve"/>
      <point x="61" y="703"/>
      <point x="77" y="704"/>
      <point x="93" y="704" type="curve" smooth="yes"/>
      <point x="110" y="704"/>
      <point x="176" y="700"/>
      <point x="176" y="694" type="curve"/>
      <point x="181" y="682"/>
      <point x="185" y="672"/>
      <point x="189" y="664" type="curve" smooth="yes"/>
      <point x="200" y="641" type="line" smooth="yes"/>
      <point x="207" y="626"/>
      <point x="216" y="610"/>
      <point x="228" y="582" type="curve" smooth="yes"/>
      <point x="236" y="563"/>
      <point x="309" y="415"/>
      <point x="312" y="415" type="curve"/>
      <point x="316" y="418"/>
      <point x="319" y="447"/>
      <point x="319" y="470" type="curve" smooth="yes"/>
      <point x="319" y="523"/>
      <point x="316" y="567"/>
      <point x="316" y="615" type="curve" smooth="yes"/>
      <point x="316" y="643"/>
      <point x="317" y="671"/>
      <point x="318" y="704" type="curve"/>
      <point x="341" y="708"/>
      <point x="365" y="710"/>
      <point x="390" y="710" type="curve" smooth="yes"/>
      <point x="415" y="710"/>
      <point x="437" y="708"/>
      <point x="456" y="704" type="curve"/>
      <point x="456" y="382" type="line"/>
      <point x="457" y="354"/>
      <point x="457" y="326"/>
      <point x="457" y="297" type="curve" smooth="yes"/>
      <point x="457" y="211" type="line" smooth="yes"/>
      <point x="457" y="172"/>
      <point x="456" y="137"/>
      <point x="456" y="100" type="curve" smooth="yes"/>
      <point x="456" y="73"/>
      <point x="457" y="47"/>
      <point x="457" y="20" type="curve" smooth="yes"/>
      <point x="457" y="0" type="line" name="hr08"/>
      <point x="454" y="-1"/>
      <point x="447" y="-5"/>
    </contour>
  </outline>
</glyph>
<glyph name="O" format="1">
  <advance width="483"/>
  <unicode hex="004F"/>
  <outline>
    <contour>
      <point x="320" y="348" type="line" name="hr01"/>
      <point x="320" y="300" type="line" smooth="yes"/>
      <point x="320" y="204"/>
      <point x="322" y="191"/>
      <point x="300" y="163" type="curve" smooth="yes"/>
      <point x="301" y="164" type="line" smooth="yes"/>
      <point x="284" y="145"/>
      <point x="260" y="136"/>
      <point x="235" y="136" type="curve" smooth="yes"/>
      <point x="217" y="136"/>
      <point x="202" y="140"/>
      <point x="189" y="148" type="curve"/>
      <point x="186" y="154" type="line"/>
      <point x="187" y="153" type="line"/>
      <point x="174" y="198"/>
      <point x="176" y="246"/>
      <point x="168" y="293" type="curve"/>
      <point x="168" y="292" type="line"/>
      <point x="167" y="309"/>
      <point x="167" y="325"/>
      <point x="167" y="342" type="curve" smooth="yes"/>
      <point x="167" y="381"/>
      <point x="169" y="418"/>
      <point x="177" y="453" type="curve"/>
      <point x="177" y="452" type="line"/>
      <point x="187" y="494"/>
      <point x="225" y="533"/>
      <point x="268" y="533" type="curve" smooth="yes"/>
      <point x="319" y="533"/>
      <point x="315" y="456"/>
      <point x="318" y="420" type="curve" smooth="yes"/>
      <point x="318" y="416" type="line"/>
    </contour>
    <contour>
      <point x="466" y="575" type="line"/>
      <point x="455" y="602"/>
      <point x="440" y="621"/>
      <point x="419" y="642" type="curve"/>
      <point x="379" y="690"/>
      <point x="304" y="711"/>
      <point x="240" y="711" type="curve" smooth="yes"/>
      <point x="191" y="711"/>
      <point x="145" y="701"/>
      <point x="102" y="680" type="curve"/>
      <point x="11" y="627"/>
      <point x="18" y="474"/>
      <point x="18" y="390" type="curve" smooth="yes"/>
      <point x="18" y="339"/>
      <point x="20" y="283"/>
      <point x="23" y="232" type="curve" smooth="yes"/>
      <point x="26" y="174"/>
      <point x="21" y="103"/>
      <point x="51" y="52" type="curve"/>
      <point x="51" y="53" type="line"/>
      <point x="89" y="-25"/>
      <point x="163" y="-44"/>
      <point x="243" y="-44" type="curve" smooth="yes"/>
      <point x="310" y="-44"/>
      <point x="397" y="-24"/>
      <point x="437" y="32" type="curve"/>
      <point x="464" y="72"/>
      <point x="473" y="125"/>
      <point x="477" y="172" type="curve" smooth="yes"/>
      <point x="480" y="205" type="line" smooth="yes"/>
      <point x="487" y="284"/>
      <point x="485" y="363"/>
      <point x="486" y="447" type="curve" smooth="yes"/>
      <point x="486" y="491"/>
      <point x="485" y="535"/>
      <point x="466" y="576" type="curve"/>
    </contour>
    <contour>
      <point x="328" y="416" type="line"/>
      <point x="328" y="444"/>
      <point x="327" y="563"/>
      <point x="247" y="563" type="curve" name="hr02" smooth="yes"/>
      <point x="146" y="563"/>
      <point x="136" y="437"/>
      <point x="136" y="362" type="curve" smooth="yes"/>
      <point x="136" y="345"/>
      <point x="137" y="328"/>
      <point x="138" y="311" type="curve"/>
      <point x="149" y="235"/>
      <point x="134" y="126"/>
      <point x="235" y="126" type="curve" smooth="yes"/>
      <point x="262" y="126"/>
      <point x="291" y="136"/>
      <point x="308" y="157" type="curve"/>
      <point x="332" y="184"/>
      <point x="330" y="213"/>
      <point x="330" y="300" type="curve" smooth="yes"/>
      <point x="330" y="348" type="line"/>
    </contour>
    <contour>
      <point x="437" y="592" type="curve"/>
      <point x="456" y="553"/>
      <point x="455" y="510"/>
      <point x="455" y="467" type="curve" smooth="yes"/>
      <point x="455" y="383"/>
      <point x="457" y="306"/>
      <point x="450" y="226" type="curve" smooth="yes"/>
      <point x="447" y="193" type="line" smooth="yes"/>
      <point x="443" y="146"/>
      <point x="434" y="97"/>
      <point x="409" y="58" type="curve"/>
      <point x="372" y="6"/>
      <point x="287" y="-14"/>
      <point x="223" y="-14" type="curve" smooth="yes"/>
      <point x="113" y="-14"/>
      <point x="39" y="22"/>
      <point x="36" y="168" type="curve"/>
      <point x="33" y="243"/>
      <point x="28" y="316"/>
      <point x="28" y="392" type="curve" smooth="yes"/>
      <point x="28" y="471"/>
      <point x="23" y="584"/>
      <point x="84" y="653" type="curve"/>
      <point x="119" y="688"/>
      <point x="185" y="700"/>
      <point x="240" y="700" type="curve" smooth="yes"/>
      <point x="322" y="700"/>
      <point x="410" y="669"/>
    </contour>
  </outline>
</glyph>
<glyph name="P" format="1">
  <advance width="497"/>
  <unicode hex="0050"/>
  <outline>
    <contour>
      <point x="514" y="471" type="line" name="hr01"/>
      <point x="503" y="647"/>
      <point x="341" y="724"/>
      <point x="183" y="724" type="curve" smooth="yes"/>
      <point x="130" y="724"/>
      <point x="74" y="716"/>
      <point x="27" y="703" type="curve"/>
      <point x="30" y="628"/>
      <point x="30" y="541"/>
      <point x="30" y="460" type="curve" name="hr02" smooth="yes"/>
      <point x="30" y="339" type="line" smooth="yes"/>
      <point x="30" y="218"/>
      <point x="30" y="94"/>
      <point x="34" y="-3" type="curve"/>
      <point x="47" y="-3"/>
      <point x="54" y="-2"/>
      <point x="54" y="-23" type="curve"/>
      <point x="79" y="-26"/>
      <point x="113" y="-28"/>
      <point x="141" y="-28" type="curve" smooth="yes"/>
      <point x="185" y="-28"/>
      <point x="228" y="-19"/>
      <point x="244" y="-19" type="curve" name="hr03"/>
      <point x="241" y="93"/>
      <point x="241" y="156"/>
      <point x="241" y="189" type="curve" smooth="yes"/>
      <point x="241" y="231" type="line"/>
      <point x="249" y="230"/>
      <point x="257" y="230"/>
      <point x="266" y="230" type="curve" smooth="yes"/>
      <point x="393" y="230"/>
      <point x="514" y="338"/>
      <point x="514" y="470" type="curve"/>
    </contour>
    <contour>
      <point x="484" y="476" type="line" smooth="yes"/>
      <point x="484" y="355"/>
      <point x="358" y="260"/>
      <point x="246" y="260" type="curve" smooth="yes"/>
      <point x="234" y="260"/>
      <point x="222" y="261"/>
      <point x="210" y="263" type="curve"/>
      <point x="211" y="254"/>
      <point x="211" y="244"/>
      <point x="211" y="235" type="curve" smooth="yes"/>
      <point x="211" y="196" type="line" smooth="yes"/>
      <point x="211" y="163"/>
      <point x="211" y="109"/>
      <point x="214" y="12" type="curve"/>
      <point x="211" y="10" type="line"/>
      <point x="190" y="3"/>
      <point x="156" y="2"/>
      <point x="121" y="2" type="curve" smooth="yes"/>
      <point x="92" y="2"/>
      <point x="64" y="3"/>
      <point x="44" y="6" type="curve"/>
      <point x="42" y="55"/>
      <point x="41" y="107"/>
      <point x="41" y="164" type="curve" smooth="yes"/>
      <point x="41" y="340" type="line" smooth="yes"/>
      <point x="41" y="461"/>
      <point x="41" y="583"/>
      <point x="37" y="695" type="curve"/>
      <point x="80" y="706"/>
      <point x="131" y="714"/>
      <point x="182" y="714" type="curve" smooth="yes"/>
      <point x="325" y="714"/>
      <point x="476" y="658"/>
      <point x="484" y="491" type="curve"/>
    </contour>
    <contour>
      <point x="309" y="533" type="curve"/>
      <point x="286" y="552"/>
      <point x="256" y="561"/>
      <point x="225" y="561" type="curve" smooth="yes"/>
      <point x="214" y="561"/>
      <point x="188" y="560"/>
      <point x="183" y="555" type="curve" name="hr04"/>
      <point x="186" y="508"/>
      <point x="179" y="444"/>
      <point x="192" y="405" type="curve"/>
      <point x="195" y="405" type="line" smooth="yes"/>
      <point x="246" y="408"/>
      <point x="340" y="399"/>
      <point x="340" y="475" type="curve" smooth="yes"/>
      <point x="340" y="498"/>
      <point x="330" y="520"/>
    </contour>
    <contour>
      <point x="330" y="476" type="curve" name="hr05" smooth="yes"/>
      <point x="330" y="420"/>
      <point x="268" y="416"/>
      <point x="221" y="416" type="curve" smooth="yes"/>
      <point x="216" y="416" type="line"/>
      <point x="213" y="428"/>
      <point x="214" y="440"/>
      <point x="214" y="455" type="curve" smooth="yes"/>
      <point x="214" y="484" type="line" smooth="yes"/>
      <point x="214" y="499"/>
      <point x="214" y="512"/>
      <point x="213" y="527" type="curve"/>
      <point x="223" y="530"/>
      <point x="234" y="531"/>
      <point x="245" y="531" type="curve" smooth="yes"/>
      <point x="281" y="531"/>
      <point x="330" y="519"/>
    </contour>
  </outline>
</glyph>
<glyph name="Q" format="1">
  <advance width="495"/>
  <unicode hex="0051"/>
  <outline>
    <contour>
      <point x="253" y="724" type="curve" smooth="yes" name="hr01"/>
      <point x="147" y="724"/>
      <point x="61" y="681"/>
      <point x="42" y="621" type="curve"/>
      <point x="23" y="552"/>
      <point x="20" y="470"/>
      <point x="20" y="391" type="curve" smooth="yes"/>
      <point x="20" y="252" type="line" smooth="yes"/>
      <point x="20" y="172"/>
      <point x="27" y="101"/>
      <point x="83" y="47" type="curve" smooth="yes"/>
      <point x="134" y="-4"/>
      <point x="174" y="-37"/>
      <point x="262" y="-37" type="curve" smooth="yes"/>
      <point x="297" y="-37"/>
      <point x="336" y="-26"/>
      <point x="359" y="-11" type="curve"/>
      <point x="370" y="-24"/>
      <point x="388" y="-38"/>
      <point x="397" y="-38" type="curve" smooth="yes" name="hr02"/>
      <point x="432" y="-38"/>
      <point x="477" y="-3"/>
      <point x="477" y="28" type="curve" smooth="yes"/>
      <point x="477" y="39"/>
      <point x="471" y="49"/>
      <point x="460" y="60" type="curve"/>
      <point x="471" y="83"/>
      <point x="477" y="102"/>
      <point x="481" y="117" type="curve" smooth="yes"/>
      <point x="480" y="115" type="line" smooth="yes"/>
      <point x="489" y="143"/>
      <point x="493" y="175"/>
      <point x="493" y="211" type="curve" smooth="yes"/>
      <point x="493" y="270"/>
      <point x="498" y="297"/>
      <point x="498" y="348" type="curve" smooth="yes" name="hr03"/>
      <point x="498" y="483"/>
      <point x="477" y="620"/>
      <point x="408" y="673" type="curve"/>
      <point x="369" y="721"/>
      <point x="322" y="724"/>
    </contour>
    <contour>
      <point x="456" y="165" type="curve"/>
      <point x="453" y="141"/>
      <point x="445" y="118"/>
      <point x="428" y="78" type="curve"/>
      <point x="437" y="67"/>
      <point x="447" y="57"/>
      <point x="447" y="48" type="curve" smooth="yes" name="hr04"/>
      <point x="447" y="23"/>
      <point x="405" y="-8"/>
      <point x="377" y="-8" type="curve" smooth="yes"/>
      <point x="369" y="-8"/>
      <point x="348" y="13"/>
      <point x="340" y="24" type="curve"/>
      <point x="325" y="7"/>
      <point x="281" y="-7"/>
      <point x="242" y="-7" type="curve" smooth="yes"/>
      <point x="82" y="-7"/>
      <point x="30" y="117"/>
      <point x="30" y="235" type="curve" smooth="yes"/>
      <point x="30" y="381" type="line" smooth="yes"/>
      <point x="30" y="461"/>
      <point x="32" y="546"/>
      <point x="52" y="618" type="curve"/>
      <point x="71" y="674"/>
      <point x="152" y="714"/>
      <point x="253" y="714" type="curve" smooth="yes"/>
      <point x="346" y="714"/>
      <point x="394" y="709"/>
      <point x="439" y="602" type="curve"/>
      <point x="462" y="530"/>
      <point x="468" y="448"/>
      <point x="468" y="368" type="curve" smooth="yes" name="hr05"/>
      <point x="468" y="327"/>
      <point x="468" y="304"/>
      <point x="465" y="264" type="curve" smooth="yes"/>
      <point x="462" y="231"/>
      <point x="464" y="197"/>
    </contour>
    <contour>
      <point x="294" y="232" type="curve" smooth="yes"/>
      <point x="311" y="232"/>
      <point x="317" y="199"/>
      <point x="334" y="182" type="curve"/>
      <point x="343" y="219"/>
      <point x="344" y="254"/>
      <point x="344" y="293" type="curve" smooth="yes"/>
      <point x="344" y="388"/>
      <point x="341" y="418"/>
      <point x="336" y="484" type="curve"/>
      <point x="331" y="532"/>
      <point x="313" y="565"/>
      <point x="250" y="565" type="curve" smooth="yes"/>
      <point x="173" y="565"/>
      <point x="165" y="556"/>
      <point x="160" y="488" type="curve"/>
      <point x="152" y="410"/>
      <point x="152" y="382"/>
      <point x="152" y="271" type="curve" smooth="yes"/>
      <point x="152" y="151"/>
      <point x="178" y="115"/>
      <point x="251" y="115" type="curve" smooth="yes"/>
      <point x="260" y="115" type="line" smooth="yes"/>
      <point x="264" y="115"/>
      <point x="267" y="115"/>
      <point x="269" y="116" type="curve"/>
      <point x="250" y="135"/>
      <point x="226" y="159"/>
      <point x="226" y="179" type="curve" smooth="yes" name="hr06"/>
      <point x="226" y="198"/>
      <point x="244" y="200"/>
      <point x="259" y="211" type="curve" smooth="yes"/>
      <point x="270" y="218"/>
      <point x="279" y="232"/>
    </contour>
    <contour>
      <point x="294" y="242" type="curve" smooth="yes"/>
      <point x="281" y="242"/>
      <point x="271" y="233"/>
      <point x="262" y="226" type="curve"/>
      <point x="241" y="205"/>
      <point x="216" y="209"/>
      <point x="216" y="179" type="curve" smooth="yes" name="hr07"/>
      <point x="216" y="160"/>
      <point x="232" y="140"/>
      <point x="247" y="125" type="curve"/>
      <point x="223" y="125"/>
      <point x="198" y="128"/>
      <point x="190" y="155" type="curve"/>
      <point x="191" y="154" type="line"/>
      <point x="184" y="177"/>
      <point x="182" y="212"/>
      <point x="182" y="245" type="curve" smooth="yes"/>
      <point x="182" y="264"/>
      <point x="183" y="282"/>
      <point x="183" y="297" type="curve" smooth="yes"/>
      <point x="183" y="323" type="line" smooth="yes"/>
      <point x="183" y="378"/>
      <point x="185" y="410"/>
      <point x="190" y="467" type="curve" smooth="yes"/>
      <point x="195" y="527"/>
      <point x="201" y="535"/>
      <point x="270" y="535" type="curve" smooth="yes"/>
      <point x="287" y="535"/>
      <point x="302" y="532"/>
      <point x="314" y="525" type="curve"/>
      <point x="335" y="490"/>
      <point x="333" y="409"/>
      <point x="333" y="361" type="curve" smooth="yes" name="hr08"/>
      <point x="333" y="286" type="line" smooth="yes"/>
      <point x="333" y="271"/>
      <point x="333" y="257"/>
      <point x="332" y="246" type="curve" smooth="yes"/>
      <point x="332" y="248" type="line"/>
      <point x="329" y="241"/>
      <point x="329" y="229"/>
      <point x="328" y="217" type="curve"/>
      <point x="313" y="224"/>
      <point x="311" y="242"/>
    </contour>
  </outline>
</glyph>
<glyph name="R" format="1">
  <advance width="518"/>
  <unicode hex="0052"/>
  <outline>
    <contour>
      <point x="179" y="559" type="curve" name="hr01"/>
      <point x="182" y="525"/>
      <point x="179" y="466"/>
      <point x="184" y="436" type="curve"/>
      <point x="185" y="436" type="line"/>
      <point x="202" y="434"/>
      <point x="220" y="433"/>
      <point x="241" y="433" type="curve" smooth="yes"/>
      <point x="301" y="433"/>
      <point x="328" y="450"/>
      <point x="328" y="499" type="curve" smooth="yes"/>
      <point x="328" y="546"/>
      <point x="295" y="575"/>
      <point x="250" y="575" type="curve" smooth="yes"/>
      <point x="228" y="575"/>
      <point x="204" y="570"/>
    </contour>
    <contour>
      <point x="319" y="499" type="curve" smooth="yes"/>
      <point x="319" y="474"/>
      <point x="308" y="451"/>
      <point x="284" y="446" type="curve"/>
      <point x="285" y="446" type="line"/>
      <point x="271" y="444"/>
      <point x="256" y="443"/>
      <point x="241" y="443" type="curve" smooth="yes"/>
      <point x="211" y="443" type="line"/>
      <point x="211" y="448"/>
      <point x="210" y="452"/>
      <point x="210" y="457" type="curve" smooth="yes"/>
      <point x="210" y="468"/>
      <point x="211" y="477"/>
      <point x="211" y="486" type="curve" smooth="yes"/>
      <point x="211" y="503"/>
      <point x="210" y="519"/>
      <point x="209" y="532" type="curve"/>
      <point x="232" y="541"/>
      <point x="252" y="545"/>
      <point x="270" y="545" type="curve" name="hr02" smooth="yes"/>
      <point x="303" y="545"/>
      <point x="319" y="530"/>
    </contour>
    <contour>
      <point x="33" y="104" type="curve"/>
      <point x="34" y="52"/>
      <point x="34" y="22"/>
      <point x="34" y="13" type="curve" smooth="yes"/>
      <point x="34" y="4"/>
      <point x="34" y="-10"/>
      <point x="35" y="-30" type="curve"/>
      <point x="93" y="-30" type="line" smooth="yes"/>
      <point x="106" y="-30"/>
      <point x="121" y="-31"/>
      <point x="137" y="-31" type="curve" name="hr03" smooth="yes"/>
      <point x="174" y="-31"/>
      <point x="213" y="-30"/>
      <point x="244" y="-15" type="curve"/>
      <point x="244" y="25"/>
      <point x="236" y="104"/>
      <point x="236" y="173" type="curve" smooth="yes"/>
      <point x="236" y="199" type="line"/>
      <point x="281" y="130"/>
      <point x="322" y="41"/>
      <point x="343" y="-9" type="curve"/>
      <point x="358" y="-9"/>
      <point x="358" y="-20"/>
      <point x="363" y="-29" type="curve"/>
      <point x="379" y="-30"/>
      <point x="401" y="-31"/>
      <point x="416" y="-31" type="curve" smooth="yes"/>
      <point x="460" y="-31"/>
      <point x="501" y="-27"/>
      <point x="537" y="-27" type="curve" smooth="yes"/>
      <point x="551" y="-27" type="line"/>
      <point x="545" y="-14" type="line"/>
      <point x="505" y="96"/>
      <point x="433" y="176"/>
      <point x="374" y="277" type="curve"/>
      <point x="478" y="288"/>
      <point x="533" y="396"/>
      <point x="533" y="478" type="curve" smooth="yes"/>
      <point x="533" y="538"/>
      <point x="500" y="595"/>
      <point x="461" y="643" type="curve"/>
      <point x="405" y="708"/>
      <point x="323" y="727"/>
      <point x="223" y="727" type="curve" smooth="yes"/>
      <point x="155" y="727"/>
      <point x="84" y="716"/>
      <point x="21" y="707" type="curve"/>
      <point x="29" y="646"/>
      <point x="35" y="291"/>
    </contour>
    <contour>
      <point x="516" y="3" type="curve"/>
      <point x="483" y="3"/>
      <point x="443" y="-1"/>
      <point x="403" y="-1" type="curve" name="hr04" smooth="yes"/>
      <point x="386" y="-1"/>
      <point x="368" y="0"/>
      <point x="351" y="1" type="curve"/>
      <point x="350" y="1" type="line"/>
      <point x="324" y="62"/>
      <point x="268" y="182"/>
      <point x="211" y="252" type="curve" smooth="yes"/>
      <point x="209" y="255" type="line"/>
      <point x="207" y="238"/>
      <point x="206" y="217"/>
      <point x="206" y="192" type="curve" smooth="yes"/>
      <point x="206" y="128"/>
      <point x="211" y="48"/>
      <point x="214" y="11" type="curve"/>
      <point x="191" y="0"/>
      <point x="150" y="-1"/>
      <point x="111" y="-1" type="curve" smooth="yes"/>
      <point x="86" y="-1"/>
      <point x="63" y="1"/>
      <point x="50" y="1" type="curve" smooth="yes"/>
      <point x="48" y="1"/>
      <point x="46" y="1"/>
      <point x="43" y="2" type="curve"/>
      <point x="43" y="33" type="line"/>
      <point x="44" y="52"/>
      <point x="44" y="74"/>
      <point x="44" y="100" type="curve" smooth="yes"/>
      <point x="44" y="203" type="line" smooth="yes"/>
      <point x="44" y="395"/>
      <point x="41" y="657"/>
      <point x="33" y="699" type="curve" name="hr05"/>
      <point x="89" y="707"/>
      <point x="153" y="717"/>
      <point x="222" y="717" type="curve" smooth="yes"/>
      <point x="246" y="717"/>
      <point x="271" y="716"/>
      <point x="296" y="713" type="curve"/>
      <point x="416" y="708"/>
      <point x="502" y="605"/>
      <point x="502" y="498" type="curve" smooth="yes"/>
      <point x="502" y="417"/>
      <point x="450" y="314"/>
      <point x="343" y="306" type="curve"/>
      <point x="338" y="305" type="line"/>
      <point x="394" y="206"/>
      <point x="476" y="113"/>
    </contour>
  </outline>
</glyph>
<glyph name="S" format="1">
  <advance width="485"/>
  <unicode hex="0053"/>
  <outline>
    <contour>
      <point x="492" y="444" type="line" name="hr01"/>
      <point x="496" y="465"/>
      <point x="498" y="484"/>
      <point x="498" y="501" type="curve" smooth="yes"/>
      <point x="498" y="633"/>
      <point x="377" y="709"/>
      <point x="246" y="709" type="curve" smooth="yes"/>
      <point x="114" y="709"/>
      <point x="12" y="607"/>
      <point x="12" y="482" type="curve" smooth="yes"/>
      <point x="12" y="425"/>
      <point x="33" y="370"/>
      <point x="82" y="323" type="curve" smooth="yes"/>
      <point x="106" y="299"/>
      <point x="131" y="276"/>
      <point x="175" y="267" type="curve" smooth="yes"/>
      <point x="190" y="264" type="line" smooth="yes"/>
      <point x="231" y="256"/>
      <point x="291" y="252"/>
      <point x="291" y="199" type="curve" smooth="yes"/>
      <point x="291" y="168"/>
      <point x="266" y="153"/>
      <point x="239" y="153" type="curve" smooth="yes"/>
      <point x="212" y="153"/>
      <point x="195" y="162"/>
      <point x="195" y="197" type="curve"/>
      <point x="178" y="197" type="line"/>
      <point x="176" y="203"/>
      <point x="175" y="210"/>
      <point x="175" y="217" type="curve"/>
      <point x="139" y="217"/>
      <point x="97" y="219"/>
      <point x="60" y="219" type="curve" name="hr02" smooth="yes"/>
      <point x="41" y="219"/>
      <point x="22" y="218"/>
      <point x="2" y="215" type="curve"/>
      <point x="2" y="201" type="line" smooth="yes"/>
      <point x="2" y="197"/>
      <point x="1" y="192"/>
      <point x="1" y="188" type="curve" smooth="yes"/>
      <point x="1" y="61"/>
      <point x="144" y="-35"/>
      <point x="276" y="-35" type="curve" smooth="yes"/>
      <point x="390" y="-35"/>
      <point x="493" y="50"/>
      <point x="493" y="189" type="curve" smooth="yes"/>
      <point x="493" y="304"/>
      <point x="378" y="421"/>
      <point x="253" y="440" type="curve" smooth="yes"/>
      <point x="235" y="443"/>
      <point x="215" y="440"/>
      <point x="215" y="468" type="curve" smooth="yes"/>
      <point x="215" y="500"/>
      <point x="238" y="515"/>
      <point x="263" y="515" type="curve" smooth="yes"/>
      <point x="282" y="515"/>
      <point x="301" y="511"/>
      <point x="301" y="480" type="curve" smooth="yes"/>
      <point x="301" y="475"/>
      <point x="301" y="470"/>
      <point x="300" y="467" type="curve"/>
      <point x="307" y="464"/>
      <point x="314" y="463"/>
      <point x="321" y="462" type="curve"/>
      <point x="321" y="455"/>
      <point x="321" y="450"/>
      <point x="320" y="447" type="curve"/>
      <point x="348" y="439"/>
      <point x="375" y="437"/>
      <point x="402" y="437" type="curve" smooth="yes"/>
      <point x="433" y="437"/>
      <point x="459" y="440"/>
      <point x="484" y="444" type="curve"/>
    </contour>
    <contour>
      <point x="462" y="474" type="line"/>
      <point x="437" y="470"/>
      <point x="409" y="466"/>
      <point x="381" y="466" type="curve" smooth="yes"/>
      <point x="357" y="466"/>
      <point x="334" y="469"/>
      <point x="312" y="475" type="curve"/>
      <point x="313" y="478"/>
      <point x="313" y="482"/>
      <point x="313" y="487" type="curve" smooth="yes"/>
      <point x="313" y="523"/>
      <point x="278" y="545"/>
      <point x="243" y="545" type="curve" smooth="yes"/>
      <point x="214" y="545"/>
      <point x="185" y="528"/>
      <point x="185" y="489" type="curve" smooth="yes"/>
      <point x="185" y="444"/>
      <point x="222" y="433"/>
      <point x="252" y="430" type="curve" smooth="yes"/>
      <point x="364" y="417"/>
      <point x="463" y="320"/>
      <point x="463" y="208" type="curve" smooth="yes"/>
      <point x="463" y="68"/>
      <point x="365" y="-5"/>
      <point x="257" y="-5" type="curve" smooth="yes"/>
      <point x="141" y="-5"/>
      <point x="12" y="65"/>
      <point x="12" y="189" type="curve" name="hr03" smooth="yes"/>
      <point x="12" y="200" type="line"/>
      <point x="12" y="206" type="line"/>
      <point x="28" y="208"/>
      <point x="45" y="209"/>
      <point x="64" y="209" type="curve" smooth="yes"/>
      <point x="99" y="209"/>
      <point x="134" y="207"/>
      <point x="165" y="207" type="curve"/>
      <point x="168" y="164"/>
      <point x="203" y="143"/>
      <point x="239" y="143" type="curve" smooth="yes"/>
      <point x="271" y="143"/>
      <point x="301" y="160"/>
      <point x="301" y="199" type="curve" smooth="yes"/>
      <point x="301" y="276"/>
      <point x="218" y="284"/>
      <point x="157" y="297" type="curve"/>
      <point x="64" y="313"/>
      <point x="22" y="417"/>
      <point x="22" y="482" type="curve" smooth="yes"/>
      <point x="22" y="602"/>
      <point x="118" y="699"/>
      <point x="246" y="699" type="curve" smooth="yes"/>
      <point x="361" y="699"/>
      <point x="468" y="648"/>
      <point x="468" y="521" type="curve" smooth="yes"/>
      <point x="468" y="506"/>
      <point x="466" y="491"/>
      <point x="463" y="474" type="curve"/>
    </contour>
  </outline>
</glyph>
<glyph name="T" format="1">
  <advance width="443"/>
  <unicode hex="0054"/>
  <outline>
    <contour>
      <point x="453" y="685" type="line" name="hr01"/>
      <point x="449" y="685"/>
      <point x="446" y="686"/>
      <point x="442" y="686" type="curve"/>
      <point x="442" y="696" type="line"/>
      <point x="433" y="705" type="line"/>
      <point x="354" y="714"/>
      <point x="274" y="716"/>
      <point x="191" y="716" type="curve" smooth="yes"/>
      <point x="126" y="716"/>
      <point x="64" y="714"/>
      <point x="0" y="714" type="curve"/>
      <point x="-1" y="691"/>
      <point x="-1" y="660"/>
      <point x="-1" y="637" type="curve" smooth="yes"/>
      <point x="-1" y="590"/>
      <point x="3" y="547"/>
      <point x="7" y="538" type="curve"/>
      <point x="30" y="530"/>
      <point x="24" y="525"/>
      <point x="27" y="518" type="curve"/>
      <point x="58" y="507"/>
      <point x="90" y="515"/>
      <point x="125" y="511" type="curve"/>
      <point x="132" y="364"/>
      <point x="134" y="259"/>
      <point x="134" y="179" type="curve" smooth="yes"/>
      <point x="134" y="114"/>
      <point x="133" y="49"/>
      <point x="133" y="26" type="curve" smooth="yes"/>
      <point x="133" y="10"/>
      <point x="134" y="-5"/>
      <point x="138" y="-12" type="curve"/>
      <point x="145" y="-11"/>
      <point x="150" y="-10"/>
      <point x="153" y="-10" type="curve"/>
      <point x="154" y="-19"/>
      <point x="155" y="-27"/>
      <point x="158" y="-32" type="curve"/>
      <point x="189" y="-27"/>
      <point x="216" y="-27"/>
      <point x="245" y="-27" type="curve" name="hr02" smooth="yes"/>
      <point x="274" y="-27" type="line" smooth="yes"/>
      <point x="295" y="-27"/>
      <point x="314" y="-27"/>
      <point x="337" y="-23" type="curve"/>
      <point x="332" y="252"/>
      <point x="330" y="394"/>
      <point x="330" y="457" type="curve" smooth="yes"/>
      <point x="330" y="486"/>
      <point x="330" y="501"/>
      <point x="331" y="510" type="curve"/>
      <point x="336" y="510" type="line" smooth="yes"/>
      <point x="367" y="512"/>
      <point x="391" y="513"/>
      <point x="410" y="513" type="curve" name="hr03" smooth="yes"/>
      <point x="423" y="513"/>
      <point x="437" y="511"/>
      <point x="456" y="508" type="curve"/>
      <point x="461" y="547"/>
      <point x="464" y="585"/>
      <point x="464" y="616" type="curve" smooth="yes"/>
      <point x="464" y="637"/>
      <point x="463" y="659"/>
      <point x="462" y="676" type="curve"/>
    </contour>
    <contour>
      <point x="432" y="695" type="curve"/>
      <point x="433" y="676"/>
      <point x="434" y="657"/>
      <point x="434" y="636" type="curve" smooth="yes"/>
      <point x="434" y="603"/>
      <point x="432" y="569"/>
      <point x="428" y="540" type="curve"/>
      <point x="417" y="542"/>
      <point x="403" y="543"/>
      <point x="388" y="543" type="curve" name="hr04" smooth="yes"/>
      <point x="368" y="543"/>
      <point x="341" y="542"/>
      <point x="306" y="540" type="curve" smooth="yes"/>
      <point x="303" y="540" type="line"/>
      <point x="302" y="537" type="line" smooth="yes"/>
      <point x="299" y="530"/>
      <point x="300" y="516"/>
      <point x="300" y="477" type="curve" smooth="yes"/>
      <point x="300" y="412"/>
      <point x="302" y="282"/>
      <point x="307" y="8" type="curve" smooth="yes"/>
      <point x="307" y="6" type="line"/>
      <point x="283" y="2"/>
      <point x="253" y="2"/>
      <point x="224" y="2" type="curve" smooth="yes"/>
      <point x="182" y="2" type="line" smooth="yes"/>
      <point x="168" y="2"/>
      <point x="155" y="1"/>
      <point x="143" y="-1" type="curve"/>
      <point x="143" y="0"/>
      <point x="142" y="4"/>
      <point x="142" y="9" type="curve" smooth="yes"/>
      <point x="142" y="30"/>
      <point x="144" y="81"/>
      <point x="144" y="172" type="curve" smooth="yes"/>
      <point x="144" y="256"/>
      <point x="143" y="373"/>
      <point x="136" y="532" type="curve"/>
      <point x="135" y="533" type="line" smooth="yes"/>
      <point x="103" y="549"/>
      <point x="31" y="540"/>
      <point x="15" y="545" type="curve"/>
      <point x="11" y="552"/>
      <point x="9" y="592"/>
      <point x="9" y="637" type="curve" smooth="yes"/>
      <point x="9" y="660"/>
      <point x="8" y="681"/>
      <point x="11" y="702" type="curve"/>
      <point x="10" y="704" type="line"/>
      <point x="69" y="704"/>
      <point x="128" y="705"/>
      <point x="191" y="705" type="curve" smooth="yes"/>
      <point x="272" y="705"/>
      <point x="353" y="703"/>
    </contour>
  </outline>
</glyph>
